<?xml version="1.0" encoding="utf-8" standalone="no"?>
<!DOCTYPE svg PUBLIC "-//W3C//DTD SVG 1.1//EN"
  "http://www.w3.org/Graphics/SVG/1.1/DTD/svg11.dtd">
<svg xmlns:xlink="http://www.w3.org/1999/xlink" width="981.813437pt" height="331.976875pt" viewBox="0 0 981.813437 331.976875" xmlns="http://www.w3.org/2000/svg" version="1.1">
 <metadata>
  <rdf:RDF xmlns:dc="http://purl.org/dc/elements/1.1/" xmlns:cc="http://creativecommons.org/ns#" xmlns:rdf="http://www.w3.org/1999/02/22-rdf-syntax-ns#">
   <cc:Work>
    <dc:type rdf:resource="http://purl.org/dc/dcmitype/StillImage"/>
    <dc:date>2026-01-27T12:01:37.093202</dc:date>
    <dc:format>image/svg+xml</dc:format>
    <dc:creator>
     <cc:Agent>
      <dc:title>Matplotlib v3.10.8, https://matplotlib.org/</dc:title>
     </cc:Agent>
    </dc:creator>
   </cc:Work>
  </rdf:RDF>
 </metadata>
 <defs>
  <style type="text/css">*{stroke-linejoin: round; stroke-linecap: butt}</style>
 </defs>
 <g id="figure_1">
  <g id="patch_1">
   <path d="M 0 331.976875 
L 981.813437 331.976875 
L 981.813437 0 
L 0 0 
z
" style="fill: #ffffff"/>
  </g>
  <g id="axes_1">
   <g id="patch_2">
    <path d="M 67.680937 284.7425 
L 473.088375 284.7425 
L 473.088375 26.6725 
L 67.680937 26.6725 
z
" style="fill: #ffffff"/>
   </g>
   <g id="matplotlib.axis_1">
    <g id="xtick_1">
     <g id="line2d_1">
      <path d="M 78.587075 284.7425 
L 78.587075 26.6725 
" clip-path="url(#p217a6af5dc)" style="fill: none; stroke: #b0b0b0; stroke-opacity: 0.3; stroke-width: 0.8; stroke-linecap: square"/>
     </g>
     <g id="line2d_2">
      <defs>
       <path id="mcfcbe63c1d" d="M 0 0 
L 0 3.5 
" style="stroke: #000000; stroke-width: 0.8"/>
      </defs>
      <g>
       <use xlink:href="#mcfcbe63c1d" x="78.587075" y="284.7425" style="stroke: #000000; stroke-width: 0.8"/>
      </g>
     </g>
     <g id="text_1">
      <!-- 0 -->
      <g transform="translate(74.133325 302.380312) scale(0.14 -0.14)">
       <defs>
        <path id="DejaVuSans-30" d="M 2034 4250 
Q 1547 4250 1301 3770 
Q 1056 3291 1056 2328 
Q 1056 1369 1301 889 
Q 1547 409 2034 409 
Q 2525 409 2770 889 
Q 3016 1369 3016 2328 
Q 3016 3291 2770 3770 
Q 2525 4250 2034 4250 
z
M 2034 4750 
Q 2819 4750 3233 4129 
Q 3647 3509 3647 2328 
Q 3647 1150 3233 529 
Q 2819 -91 2034 -91 
Q 1250 -91 836 529 
Q 422 1150 422 2328 
Q 422 3509 836 4129 
Q 1250 4750 2034 4750 
z
" transform="scale(0.015625)"/>
       </defs>
       <use xlink:href="#DejaVuSans-30"/>
      </g>
     </g>
    </g>
    <g id="xtick_2">
     <g id="line2d_3">
      <path d="M 153.801812 284.7425 
L 153.801812 26.6725 
" clip-path="url(#p217a6af5dc)" style="fill: none; stroke: #b0b0b0; stroke-opacity: 0.3; stroke-width: 0.8; stroke-linecap: square"/>
     </g>
     <g id="line2d_4">
      <g>
       <use xlink:href="#mcfcbe63c1d" x="153.801812" y="284.7425" style="stroke: #000000; stroke-width: 0.8"/>
      </g>
     </g>
     <g id="text_2">
      <!-- 1 -->
      <g transform="translate(149.348062 302.380312) scale(0.14 -0.14)">
       <defs>
        <path id="DejaVuSans-31" d="M 794 531 
L 1825 531 
L 1825 4091 
L 703 3866 
L 703 4441 
L 1819 4666 
L 2450 4666 
L 2450 531 
L 3481 531 
L 3481 0 
L 794 0 
L 794 531 
z
" transform="scale(0.015625)"/>
       </defs>
       <use xlink:href="#DejaVuSans-31"/>
      </g>
     </g>
    </g>
    <g id="xtick_3">
     <g id="line2d_5">
      <path d="M 229.01655 284.7425 
L 229.01655 26.6725 
" clip-path="url(#p217a6af5dc)" style="fill: none; stroke: #b0b0b0; stroke-opacity: 0.3; stroke-width: 0.8; stroke-linecap: square"/>
     </g>
     <g id="line2d_6">
      <g>
       <use xlink:href="#mcfcbe63c1d" x="229.01655" y="284.7425" style="stroke: #000000; stroke-width: 0.8"/>
      </g>
     </g>
     <g id="text_3">
      <!-- 2 -->
      <g transform="translate(224.5628 302.380312) scale(0.14 -0.14)">
       <defs>
        <path id="DejaVuSans-32" d="M 1228 531 
L 3431 531 
L 3431 0 
L 469 0 
L 469 531 
Q 828 903 1448 1529 
Q 2069 2156 2228 2338 
Q 2531 2678 2651 2914 
Q 2772 3150 2772 3378 
Q 2772 3750 2511 3984 
Q 2250 4219 1831 4219 
Q 1534 4219 1204 4116 
Q 875 4013 500 3803 
L 500 4441 
Q 881 4594 1212 4672 
Q 1544 4750 1819 4750 
Q 2544 4750 2975 4387 
Q 3406 4025 3406 3419 
Q 3406 3131 3298 2873 
Q 3191 2616 2906 2266 
Q 2828 2175 2409 1742 
Q 1991 1309 1228 531 
z
" transform="scale(0.015625)"/>
       </defs>
       <use xlink:href="#DejaVuSans-32"/>
      </g>
     </g>
    </g>
    <g id="xtick_4">
     <g id="line2d_7">
      <path d="M 304.231288 284.7425 
L 304.231288 26.6725 
" clip-path="url(#p217a6af5dc)" style="fill: none; stroke: #b0b0b0; stroke-opacity: 0.3; stroke-width: 0.8; stroke-linecap: square"/>
     </g>
     <g id="line2d_8">
      <g>
       <use xlink:href="#mcfcbe63c1d" x="304.231288" y="284.7425" style="stroke: #000000; stroke-width: 0.8"/>
      </g>
     </g>
     <g id="text_4">
      <!-- 3 -->
      <g transform="translate(299.777538 302.380312) scale(0.14 -0.14)">
       <defs>
        <path id="DejaVuSans-33" d="M 2597 2516 
Q 3050 2419 3304 2112 
Q 3559 1806 3559 1356 
Q 3559 666 3084 287 
Q 2609 -91 1734 -91 
Q 1441 -91 1130 -33 
Q 819 25 488 141 
L 488 750 
Q 750 597 1062 519 
Q 1375 441 1716 441 
Q 2309 441 2620 675 
Q 2931 909 2931 1356 
Q 2931 1769 2642 2001 
Q 2353 2234 1838 2234 
L 1294 2234 
L 1294 2753 
L 1863 2753 
Q 2328 2753 2575 2939 
Q 2822 3125 2822 3475 
Q 2822 3834 2567 4026 
Q 2313 4219 1838 4219 
Q 1578 4219 1281 4162 
Q 984 4106 628 3988 
L 628 4550 
Q 988 4650 1302 4700 
Q 1616 4750 1894 4750 
Q 2613 4750 3031 4423 
Q 3450 4097 3450 3541 
Q 3450 3153 3228 2886 
Q 3006 2619 2597 2516 
z
" transform="scale(0.015625)"/>
       </defs>
       <use xlink:href="#DejaVuSans-33"/>
      </g>
     </g>
    </g>
    <g id="xtick_5">
     <g id="line2d_9">
      <path d="M 379.446026 284.7425 
L 379.446026 26.6725 
" clip-path="url(#p217a6af5dc)" style="fill: none; stroke: #b0b0b0; stroke-opacity: 0.3; stroke-width: 0.8; stroke-linecap: square"/>
     </g>
     <g id="line2d_10">
      <g>
       <use xlink:href="#mcfcbe63c1d" x="379.446026" y="284.7425" style="stroke: #000000; stroke-width: 0.8"/>
      </g>
     </g>
     <g id="text_5">
      <!-- 4 -->
      <g transform="translate(374.992276 302.380312) scale(0.14 -0.14)">
       <defs>
        <path id="DejaVuSans-34" d="M 2419 4116 
L 825 1625 
L 2419 1625 
L 2419 4116 
z
M 2253 4666 
L 3047 4666 
L 3047 1625 
L 3713 1625 
L 3713 1100 
L 3047 1100 
L 3047 0 
L 2419 0 
L 2419 1100 
L 313 1100 
L 313 1709 
L 2253 4666 
z
" transform="scale(0.015625)"/>
       </defs>
       <use xlink:href="#DejaVuSans-34"/>
      </g>
     </g>
    </g>
    <g id="xtick_6">
     <g id="line2d_11">
      <path d="M 454.660764 284.7425 
L 454.660764 26.6725 
" clip-path="url(#p217a6af5dc)" style="fill: none; stroke: #b0b0b0; stroke-opacity: 0.3; stroke-width: 0.8; stroke-linecap: square"/>
     </g>
     <g id="line2d_12">
      <g>
       <use xlink:href="#mcfcbe63c1d" x="454.660764" y="284.7425" style="stroke: #000000; stroke-width: 0.8"/>
      </g>
     </g>
     <g id="text_6">
      <!-- 5 -->
      <g transform="translate(450.207014 302.380312) scale(0.14 -0.14)">
       <defs>
        <path id="DejaVuSans-35" d="M 691 4666 
L 3169 4666 
L 3169 4134 
L 1269 4134 
L 1269 2991 
Q 1406 3038 1543 3061 
Q 1681 3084 1819 3084 
Q 2600 3084 3056 2656 
Q 3513 2228 3513 1497 
Q 3513 744 3044 326 
Q 2575 -91 1722 -91 
Q 1428 -91 1123 -41 
Q 819 9 494 109 
L 494 744 
Q 775 591 1075 516 
Q 1375 441 1709 441 
Q 2250 441 2565 725 
Q 2881 1009 2881 1497 
Q 2881 1984 2565 2268 
Q 2250 2553 1709 2553 
Q 1456 2553 1204 2497 
Q 953 2441 691 2322 
L 691 4666 
z
" transform="scale(0.015625)"/>
       </defs>
       <use xlink:href="#DejaVuSans-35"/>
      </g>
     </g>
    </g>
    <g id="text_7">
     <!-- x -->
     <g transform="translate(265.649656 321.449375) scale(0.16 -0.16)">
      <defs>
       <path id="DejaVuSans-78" d="M 3513 3500 
L 2247 1797 
L 3578 0 
L 2900 0 
L 1881 1375 
L 863 0 
L 184 0 
L 1544 1831 
L 300 3500 
L 978 3500 
L 1906 2253 
L 2834 3500 
L 3513 3500 
z
" transform="scale(0.015625)"/>
      </defs>
      <use xlink:href="#DejaVuSans-78"/>
     </g>
    </g>
   </g>
   <g id="matplotlib.axis_2">
    <g id="ytick_1">
     <g id="line2d_13">
      <path d="M 67.680937 254.865625 
L 473.088375 254.865625 
" clip-path="url(#p217a6af5dc)" style="fill: none; stroke: #b0b0b0; stroke-opacity: 0.3; stroke-width: 0.8; stroke-linecap: square"/>
     </g>
     <g id="line2d_14">
      <defs>
       <path id="me86e3d8e63" d="M 0 0 
L -3.5 0 
" style="stroke: #000000; stroke-width: 0.8"/>
      </defs>
      <g>
       <use xlink:href="#me86e3d8e63" x="67.680937" y="254.865625" style="stroke: #000000; stroke-width: 0.8"/>
      </g>
     </g>
     <g id="text_8">
      <!-- −2.0 -->
      <g transform="translate(26.685 260.184531) scale(0.14 -0.14)">
       <defs>
        <path id="DejaVuSans-2212" d="M 678 2272 
L 4684 2272 
L 4684 1741 
L 678 1741 
L 678 2272 
z
" transform="scale(0.015625)"/>
        <path id="DejaVuSans-2e" d="M 684 794 
L 1344 794 
L 1344 0 
L 684 0 
L 684 794 
z
" transform="scale(0.015625)"/>
       </defs>
       <use xlink:href="#DejaVuSans-2212"/>
       <use xlink:href="#DejaVuSans-32" transform="translate(83.789062 0)"/>
       <use xlink:href="#DejaVuSans-2e" transform="translate(147.412109 0)"/>
       <use xlink:href="#DejaVuSans-30" transform="translate(179.199219 0)"/>
      </g>
     </g>
    </g>
    <g id="ytick_2">
     <g id="line2d_15">
      <path d="M 67.680937 224.879977 
L 473.088375 224.879977 
" clip-path="url(#p217a6af5dc)" style="fill: none; stroke: #b0b0b0; stroke-opacity: 0.3; stroke-width: 0.8; stroke-linecap: square"/>
     </g>
     <g id="line2d_16">
      <g>
       <use xlink:href="#me86e3d8e63" x="67.680937" y="224.879977" style="stroke: #000000; stroke-width: 0.8"/>
      </g>
     </g>
     <g id="text_9">
      <!-- −1.5 -->
      <g transform="translate(26.685 230.198883) scale(0.14 -0.14)">
       <use xlink:href="#DejaVuSans-2212"/>
       <use xlink:href="#DejaVuSans-31" transform="translate(83.789062 0)"/>
       <use xlink:href="#DejaVuSans-2e" transform="translate(147.412109 0)"/>
       <use xlink:href="#DejaVuSans-35" transform="translate(179.199219 0)"/>
      </g>
     </g>
    </g>
    <g id="ytick_3">
     <g id="line2d_17">
      <path d="M 67.680937 194.894329 
L 473.088375 194.894329 
" clip-path="url(#p217a6af5dc)" style="fill: none; stroke: #b0b0b0; stroke-opacity: 0.3; stroke-width: 0.8; stroke-linecap: square"/>
     </g>
     <g id="line2d_18">
      <g>
       <use xlink:href="#me86e3d8e63" x="67.680937" y="194.894329" style="stroke: #000000; stroke-width: 0.8"/>
      </g>
     </g>
     <g id="text_10">
      <!-- −1.0 -->
      <g transform="translate(26.685 200.213235) scale(0.14 -0.14)">
       <use xlink:href="#DejaVuSans-2212"/>
       <use xlink:href="#DejaVuSans-31" transform="translate(83.789062 0)"/>
       <use xlink:href="#DejaVuSans-2e" transform="translate(147.412109 0)"/>
       <use xlink:href="#DejaVuSans-30" transform="translate(179.199219 0)"/>
      </g>
     </g>
    </g>
    <g id="ytick_4">
     <g id="line2d_19">
      <path d="M 67.680937 164.908681 
L 473.088375 164.908681 
" clip-path="url(#p217a6af5dc)" style="fill: none; stroke: #b0b0b0; stroke-opacity: 0.3; stroke-width: 0.8; stroke-linecap: square"/>
     </g>
     <g id="line2d_20">
      <g>
       <use xlink:href="#me86e3d8e63" x="67.680937" y="164.908681" style="stroke: #000000; stroke-width: 0.8"/>
      </g>
     </g>
     <g id="text_11">
      <!-- −0.5 -->
      <g transform="translate(26.685 170.227587) scale(0.14 -0.14)">
       <use xlink:href="#DejaVuSans-2212"/>
       <use xlink:href="#DejaVuSans-30" transform="translate(83.789062 0)"/>
       <use xlink:href="#DejaVuSans-2e" transform="translate(147.412109 0)"/>
       <use xlink:href="#DejaVuSans-35" transform="translate(179.199219 0)"/>
      </g>
     </g>
    </g>
    <g id="ytick_5">
     <g id="line2d_21">
      <path d="M 67.680937 134.923033 
L 473.088375 134.923033 
" clip-path="url(#p217a6af5dc)" style="fill: none; stroke: #b0b0b0; stroke-opacity: 0.3; stroke-width: 0.8; stroke-linecap: square"/>
     </g>
     <g id="line2d_22">
      <g>
       <use xlink:href="#me86e3d8e63" x="67.680937" y="134.923033" style="stroke: #000000; stroke-width: 0.8"/>
      </g>
     </g>
     <g id="text_12">
      <!-- 0.0 -->
      <g transform="translate(38.416562 140.241939) scale(0.14 -0.14)">
       <use xlink:href="#DejaVuSans-30"/>
       <use xlink:href="#DejaVuSans-2e" transform="translate(63.623047 0)"/>
       <use xlink:href="#DejaVuSans-30" transform="translate(95.410156 0)"/>
      </g>
     </g>
    </g>
    <g id="ytick_6">
     <g id="line2d_23">
      <path d="M 67.680937 104.937384 
L 473.088375 104.937384 
" clip-path="url(#p217a6af5dc)" style="fill: none; stroke: #b0b0b0; stroke-opacity: 0.3; stroke-width: 0.8; stroke-linecap: square"/>
     </g>
     <g id="line2d_24">
      <g>
       <use xlink:href="#me86e3d8e63" x="67.680937" y="104.937384" style="stroke: #000000; stroke-width: 0.8"/>
      </g>
     </g>
     <g id="text_13">
      <!-- 0.5 -->
      <g transform="translate(38.416562 110.256291) scale(0.14 -0.14)">
       <use xlink:href="#DejaVuSans-30"/>
       <use xlink:href="#DejaVuSans-2e" transform="translate(63.623047 0)"/>
       <use xlink:href="#DejaVuSans-35" transform="translate(95.410156 0)"/>
      </g>
     </g>
    </g>
    <g id="ytick_7">
     <g id="line2d_25">
      <path d="M 67.680937 74.951736 
L 473.088375 74.951736 
" clip-path="url(#p217a6af5dc)" style="fill: none; stroke: #b0b0b0; stroke-opacity: 0.3; stroke-width: 0.8; stroke-linecap: square"/>
     </g>
     <g id="line2d_26">
      <g>
       <use xlink:href="#me86e3d8e63" x="67.680937" y="74.951736" style="stroke: #000000; stroke-width: 0.8"/>
      </g>
     </g>
     <g id="text_14">
      <!-- 1.0 -->
      <g transform="translate(38.416562 80.270642) scale(0.14 -0.14)">
       <use xlink:href="#DejaVuSans-31"/>
       <use xlink:href="#DejaVuSans-2e" transform="translate(63.623047 0)"/>
       <use xlink:href="#DejaVuSans-30" transform="translate(95.410156 0)"/>
      </g>
     </g>
    </g>
    <g id="ytick_8">
     <g id="line2d_27">
      <path d="M 67.680937 44.966088 
L 473.088375 44.966088 
" clip-path="url(#p217a6af5dc)" style="fill: none; stroke: #b0b0b0; stroke-opacity: 0.3; stroke-width: 0.8; stroke-linecap: square"/>
     </g>
     <g id="line2d_28">
      <g>
       <use xlink:href="#me86e3d8e63" x="67.680937" y="44.966088" style="stroke: #000000; stroke-width: 0.8"/>
      </g>
     </g>
     <g id="text_15">
      <!-- 1.5 -->
      <g transform="translate(38.416562 50.284994) scale(0.14 -0.14)">
       <use xlink:href="#DejaVuSans-31"/>
       <use xlink:href="#DejaVuSans-2e" transform="translate(63.623047 0)"/>
       <use xlink:href="#DejaVuSans-35" transform="translate(95.410156 0)"/>
      </g>
     </g>
    </g>
    <g id="text_16">
     <!-- $f(x)$ -->
     <g transform="translate(19.3575 169.5475) rotate(-90) scale(0.16 -0.16)">
      <defs>
       <path id="DejaVuSans-Oblique-66" d="M 3059 4863 
L 2969 4384 
L 2419 4384 
Q 2106 4384 1964 4261 
Q 1822 4138 1753 3809 
L 1691 3500 
L 2638 3500 
L 2553 3053 
L 1606 3053 
L 1013 0 
L 434 0 
L 1031 3053 
L 481 3053 
L 563 3500 
L 1113 3500 
L 1159 3744 
Q 1278 4363 1576 4613 
Q 1875 4863 2516 4863 
L 3059 4863 
z
" transform="scale(0.015625)"/>
       <path id="DejaVuSans-28" d="M 1984 4856 
Q 1566 4138 1362 3434 
Q 1159 2731 1159 2009 
Q 1159 1288 1364 580 
Q 1569 -128 1984 -844 
L 1484 -844 
Q 1016 -109 783 600 
Q 550 1309 550 2009 
Q 550 2706 781 3412 
Q 1013 4119 1484 4856 
L 1984 4856 
z
" transform="scale(0.015625)"/>
       <path id="DejaVuSans-Oblique-78" d="M 3841 3500 
L 2234 1784 
L 3219 0 
L 2559 0 
L 1819 1388 
L 531 0 
L -166 0 
L 1556 1844 
L 641 3500 
L 1300 3500 
L 1972 2234 
L 3144 3500 
L 3841 3500 
z
" transform="scale(0.015625)"/>
       <path id="DejaVuSans-29" d="M 513 4856 
L 1013 4856 
Q 1481 4119 1714 3412 
Q 1947 2706 1947 2009 
Q 1947 1309 1714 600 
Q 1481 -109 1013 -844 
L 513 -844 
Q 928 -128 1133 580 
Q 1338 1288 1338 2009 
Q 1338 2731 1133 3434 
Q 928 4138 513 4856 
z
" transform="scale(0.015625)"/>
      </defs>
      <use xlink:href="#DejaVuSans-Oblique-66" transform="translate(0 0.015625)"/>
      <use xlink:href="#DejaVuSans-28" transform="translate(35.205078 0.015625)"/>
      <use xlink:href="#DejaVuSans-Oblique-78" transform="translate(74.21875 0.015625)"/>
      <use xlink:href="#DejaVuSans-29" transform="translate(133.398438 0.015625)"/>
     </g>
    </g>
   </g>
   <g id="line2d_29">
    <path d="M 86.108548 273.012045 
L 87.960569 259.810929 
L 89.812591 248.9979 
L 91.664612 239.839885 
L 93.516633 231.896868 
L 95.368654 224.883896 
L 97.220675 218.605825 
L 99.072697 212.923135 
L 100.924718 207.732618 
L 102.776739 202.955775 
L 104.62876 198.531507 
L 108.332803 190.556105 
L 112.036845 183.51791 
L 115.740887 177.219636 
L 119.44493 171.520402 
L 123.148972 166.316088 
L 126.853014 161.527563 
L 130.557057 157.093276 
L 134.261099 152.964408 
L 137.965142 149.101583 
L 141.669184 145.472583 
L 147.225247 140.410308 
L 152.781311 135.742284 
L 158.337375 131.411515 
L 163.893438 127.372535 
L 169.449502 123.588495 
L 175.005565 120.029113 
L 182.41365 115.5898 
L 189.821735 111.456574 
L 197.22982 107.589936 
L 204.637904 103.957571 
L 213.89801 99.706198 
L 223.158116 95.736358 
L 232.418222 92.013069 
L 241.678328 88.507487 
L 252.790455 84.554564 
L 263.902582 80.846158 
L 275.014709 77.353773 
L 287.978858 73.520829 
L 300.943006 69.918214 
L 315.759175 66.049666 
L 330.575345 62.415616 
L 347.243536 58.574398 
L 363.911726 54.964475 
L 382.431938 51.192904 
L 400.95215 47.644557 
L 421.324383 43.969539 
L 443.548637 40.201678 
L 454.660764 38.402955 
L 454.660764 38.402955 
" clip-path="url(#p217a6af5dc)" style="fill: none; stroke: #0000ff; stroke-width: 2.5; stroke-linecap: square"/>
   </g>
   <g id="line2d_30">
    <path d="M 116.194444 176.491967 
L 379.446026 51.785163 
" clip-path="url(#p217a6af5dc)" style="fill: none; stroke-dasharray: 7.4,3.2; stroke-dashoffset: 0; stroke: #ff0000; stroke-width: 2"/>
   </g>
   <g id="line2d_31">
    <path d="M 67.680937 134.923033 
L 473.088375 134.923033 
" clip-path="url(#p217a6af5dc)" style="fill: none; stroke: #000000; stroke-width: 0.5; stroke-linecap: square"/>
   </g>
   <g id="line2d_32">
    <path d="M 78.587075 284.7425 
L 78.587075 26.6725 
" clip-path="url(#p217a6af5dc)" style="fill: none; stroke: #000000; stroke-width: 0.5; stroke-linecap: square"/>
   </g>
   <g id="patch_3">
    <path d="M 67.680937 284.7425 
L 67.680937 26.6725 
" style="fill: none; stroke: #000000; stroke-width: 0.8; stroke-linejoin: miter; stroke-linecap: square"/>
   </g>
   <g id="patch_4">
    <path d="M 473.088375 284.7425 
L 473.088375 26.6725 
" style="fill: none; stroke: #000000; stroke-width: 0.8; stroke-linejoin: miter; stroke-linecap: square"/>
   </g>
   <g id="patch_5">
    <path d="M 67.680937 284.7425 
L 473.088375 284.7425 
" style="fill: none; stroke: #000000; stroke-width: 0.8; stroke-linejoin: miter; stroke-linecap: square"/>
   </g>
   <g id="patch_6">
    <path d="M 67.680937 26.6725 
L 473.088375 26.6725 
" style="fill: none; stroke: #000000; stroke-width: 0.8; stroke-linejoin: miter; stroke-linecap: square"/>
   </g>
   <g id="text_17">
    <!-- $(x_1, f(x_1))$ -->
    <g transform="translate(126.194444 186.491967) scale(0.18 -0.18)">
     <defs>
      <path id="DejaVuSans-2c" d="M 750 794 
L 1409 794 
L 1409 256 
L 897 -744 
L 494 -744 
L 750 256 
L 750 794 
z
" transform="scale(0.015625)"/>
     </defs>
     <use xlink:href="#DejaVuSans-28" transform="translate(0 0.015625)"/>
     <use xlink:href="#DejaVuSans-Oblique-78" transform="translate(39.013672 0.015625)"/>
     <use xlink:href="#DejaVuSans-31" transform="translate(98.193359 -16.390625) scale(0.7)"/>
     <use xlink:href="#DejaVuSans-2c" transform="translate(145.463867 0.015625)"/>
     <use xlink:href="#DejaVuSans-Oblique-66" transform="translate(196.733398 0.015625)"/>
     <use xlink:href="#DejaVuSans-28" transform="translate(231.938477 0.015625)"/>
     <use xlink:href="#DejaVuSans-Oblique-78" transform="translate(270.952148 0.015625)"/>
     <use xlink:href="#DejaVuSans-31" transform="translate(330.131836 -16.390625) scale(0.7)"/>
     <use xlink:href="#DejaVuSans-29" transform="translate(377.402344 0.015625)"/>
     <use xlink:href="#DejaVuSans-29" transform="translate(416.416016 0.015625)"/>
    </g>
   </g>
   <g id="text_18">
    <!-- $(x_2, f(x_2))$ -->
    <g transform="translate(384.446026 66.785163) scale(0.18 -0.18)">
     <use xlink:href="#DejaVuSans-28" transform="translate(0 0.015625)"/>
     <use xlink:href="#DejaVuSans-Oblique-78" transform="translate(39.013672 0.015625)"/>
     <use xlink:href="#DejaVuSans-32" transform="translate(98.193359 -16.390625) scale(0.7)"/>
     <use xlink:href="#DejaVuSans-2c" transform="translate(145.463867 0.015625)"/>
     <use xlink:href="#DejaVuSans-Oblique-66" transform="translate(196.733398 0.015625)"/>
     <use xlink:href="#DejaVuSans-28" transform="translate(231.938477 0.015625)"/>
     <use xlink:href="#DejaVuSans-Oblique-78" transform="translate(270.952148 0.015625)"/>
     <use xlink:href="#DejaVuSans-32" transform="translate(330.131836 -16.390625) scale(0.7)"/>
     <use xlink:href="#DejaVuSans-29" transform="translate(377.402344 0.015625)"/>
     <use xlink:href="#DejaVuSans-29" transform="translate(416.416016 0.015625)"/>
    </g>
   </g>
   <g id="text_19">
    <!-- $\lambda_1 f(x_1) + \lambda_2 f(x_2)$ -->
    <g style="fill: #ffa500" transform="translate(262.820235 126.138565) scale(0.18 -0.18)">
     <defs>
      <path id="DejaVuSans-Oblique-3bb" d="M 2350 4316 
L 3125 0 
L 2516 0 
L 2038 2588 
L 328 0 
L -281 0 
L 1903 3356 
L 1794 3975 
Q 1725 4369 1391 4369 
L 1091 4369 
L 1184 4863 
L 1550 4856 
Q 2253 4847 2350 4316 
z
" transform="scale(0.015625)"/>
      <path id="DejaVuSans-2b" d="M 2944 4013 
L 2944 2272 
L 4684 2272 
L 4684 1741 
L 2944 1741 
L 2944 0 
L 2419 0 
L 2419 1741 
L 678 1741 
L 678 2272 
L 2419 2272 
L 2419 4013 
L 2944 4013 
z
" transform="scale(0.015625)"/>
     </defs>
     <use xlink:href="#DejaVuSans-Oblique-3bb" transform="translate(0 0.015625)"/>
     <use xlink:href="#DejaVuSans-31" transform="translate(59.179688 -16.390625) scale(0.7)"/>
     <use xlink:href="#DejaVuSans-Oblique-66" transform="translate(106.450195 0.015625)"/>
     <use xlink:href="#DejaVuSans-28" transform="translate(141.655273 0.015625)"/>
     <use xlink:href="#DejaVuSans-Oblique-78" transform="translate(180.668945 0.015625)"/>
     <use xlink:href="#DejaVuSans-31" transform="translate(239.848633 -16.390625) scale(0.7)"/>
     <use xlink:href="#DejaVuSans-29" transform="translate(287.119141 0.015625)"/>
     <use xlink:href="#DejaVuSans-2b" transform="translate(345.615234 0.015625)"/>
     <use xlink:href="#DejaVuSans-Oblique-3bb" transform="translate(448.886719 0.015625)"/>
     <use xlink:href="#DejaVuSans-32" transform="translate(508.066406 -16.390625) scale(0.7)"/>
     <use xlink:href="#DejaVuSans-Oblique-66" transform="translate(555.336914 0.015625)"/>
     <use xlink:href="#DejaVuSans-28" transform="translate(590.541992 0.015625)"/>
     <use xlink:href="#DejaVuSans-Oblique-78" transform="translate(629.555664 0.015625)"/>
     <use xlink:href="#DejaVuSans-32" transform="translate(688.735352 -16.390625) scale(0.7)"/>
     <use xlink:href="#DejaVuSans-29" transform="translate(736.005859 0.015625)"/>
    </g>
   </g>
   <g id="text_20">
    <!-- $f(\lambda_1 x_1 + \lambda_2 x_2)$ -->
    <g style="fill: #008000" transform="translate(137.820235 74.290496) scale(0.18 -0.18)">
     <use xlink:href="#DejaVuSans-Oblique-66" transform="translate(0 0.015625)"/>
     <use xlink:href="#DejaVuSans-28" transform="translate(35.205078 0.015625)"/>
     <use xlink:href="#DejaVuSans-Oblique-3bb" transform="translate(74.21875 0.015625)"/>
     <use xlink:href="#DejaVuSans-31" transform="translate(133.398438 -16.390625) scale(0.7)"/>
     <use xlink:href="#DejaVuSans-Oblique-78" transform="translate(180.668945 0.015625)"/>
     <use xlink:href="#DejaVuSans-31" transform="translate(239.848633 -16.390625) scale(0.7)"/>
     <use xlink:href="#DejaVuSans-2b" transform="translate(306.601562 0.015625)"/>
     <use xlink:href="#DejaVuSans-Oblique-3bb" transform="translate(409.873047 0.015625)"/>
     <use xlink:href="#DejaVuSans-32" transform="translate(469.052734 -16.390625) scale(0.7)"/>
     <use xlink:href="#DejaVuSans-Oblique-78" transform="translate(516.323242 0.015625)"/>
     <use xlink:href="#DejaVuSans-32" transform="translate(575.50293 -16.390625) scale(0.7)"/>
     <use xlink:href="#DejaVuSans-29" transform="translate(622.773438 0.015625)"/>
    </g>
   </g>
   <g id="text_21">
    <!-- Cóncava: $f(x) = \log(x)$ → $\mathbb{E}[f(X)] \leq f(\mathbb{E}[X])$ -->
    <g transform="translate(110.464656 20.6725) scale(0.16 -0.16)">
     <defs>
      <path id="DejaVuSans-43" d="M 4122 4306 
L 4122 3641 
Q 3803 3938 3442 4084 
Q 3081 4231 2675 4231 
Q 1875 4231 1450 3742 
Q 1025 3253 1025 2328 
Q 1025 1406 1450 917 
Q 1875 428 2675 428 
Q 3081 428 3442 575 
Q 3803 722 4122 1019 
L 4122 359 
Q 3791 134 3420 21 
Q 3050 -91 2638 -91 
Q 1578 -91 968 557 
Q 359 1206 359 2328 
Q 359 3453 968 4101 
Q 1578 4750 2638 4750 
Q 3056 4750 3426 4639 
Q 3797 4528 4122 4306 
z
" transform="scale(0.015625)"/>
      <path id="DejaVuSans-f3" d="M 1959 3097 
Q 1497 3097 1228 2736 
Q 959 2375 959 1747 
Q 959 1119 1226 758 
Q 1494 397 1959 397 
Q 2419 397 2687 759 
Q 2956 1122 2956 1747 
Q 2956 2369 2687 2733 
Q 2419 3097 1959 3097 
z
M 1959 3584 
Q 2709 3584 3137 3096 
Q 3566 2609 3566 1747 
Q 3566 888 3137 398 
Q 2709 -91 1959 -91 
Q 1206 -91 779 398 
Q 353 888 353 1747 
Q 353 2609 779 3096 
Q 1206 3584 1959 3584 
z
M 2394 5119 
L 3016 5119 
L 1998 3944 
L 1519 3944 
L 2394 5119 
z
" transform="scale(0.015625)"/>
      <path id="DejaVuSans-6e" d="M 3513 2113 
L 3513 0 
L 2938 0 
L 2938 2094 
Q 2938 2591 2744 2837 
Q 2550 3084 2163 3084 
Q 1697 3084 1428 2787 
Q 1159 2491 1159 1978 
L 1159 0 
L 581 0 
L 581 3500 
L 1159 3500 
L 1159 2956 
Q 1366 3272 1645 3428 
Q 1925 3584 2291 3584 
Q 2894 3584 3203 3211 
Q 3513 2838 3513 2113 
z
" transform="scale(0.015625)"/>
      <path id="DejaVuSans-63" d="M 3122 3366 
L 3122 2828 
Q 2878 2963 2633 3030 
Q 2388 3097 2138 3097 
Q 1578 3097 1268 2742 
Q 959 2388 959 1747 
Q 959 1106 1268 751 
Q 1578 397 2138 397 
Q 2388 397 2633 464 
Q 2878 531 3122 666 
L 3122 134 
Q 2881 22 2623 -34 
Q 2366 -91 2075 -91 
Q 1284 -91 818 406 
Q 353 903 353 1747 
Q 353 2603 823 3093 
Q 1294 3584 2113 3584 
Q 2378 3584 2631 3529 
Q 2884 3475 3122 3366 
z
" transform="scale(0.015625)"/>
      <path id="DejaVuSans-61" d="M 2194 1759 
Q 1497 1759 1228 1600 
Q 959 1441 959 1056 
Q 959 750 1161 570 
Q 1363 391 1709 391 
Q 2188 391 2477 730 
Q 2766 1069 2766 1631 
L 2766 1759 
L 2194 1759 
z
M 3341 1997 
L 3341 0 
L 2766 0 
L 2766 531 
Q 2569 213 2275 61 
Q 1981 -91 1556 -91 
Q 1019 -91 701 211 
Q 384 513 384 1019 
Q 384 1609 779 1909 
Q 1175 2209 1959 2209 
L 2766 2209 
L 2766 2266 
Q 2766 2663 2505 2880 
Q 2244 3097 1772 3097 
Q 1472 3097 1187 3025 
Q 903 2953 641 2809 
L 641 3341 
Q 956 3463 1253 3523 
Q 1550 3584 1831 3584 
Q 2591 3584 2966 3190 
Q 3341 2797 3341 1997 
z
" transform="scale(0.015625)"/>
      <path id="DejaVuSans-76" d="M 191 3500 
L 800 3500 
L 1894 563 
L 2988 3500 
L 3597 3500 
L 2284 0 
L 1503 0 
L 191 3500 
z
" transform="scale(0.015625)"/>
      <path id="DejaVuSans-3a" d="M 750 794 
L 1409 794 
L 1409 0 
L 750 0 
L 750 794 
z
M 750 3309 
L 1409 3309 
L 1409 2516 
L 750 2516 
L 750 3309 
z
" transform="scale(0.015625)"/>
      <path id="DejaVuSans-20" transform="scale(0.015625)"/>
      <path id="DejaVuSans-3d" d="M 678 2906 
L 4684 2906 
L 4684 2381 
L 678 2381 
L 678 2906 
z
M 678 1631 
L 4684 1631 
L 4684 1100 
L 678 1100 
L 678 1631 
z
" transform="scale(0.015625)"/>
      <path id="DejaVuSans-6c" d="M 603 4863 
L 1178 4863 
L 1178 0 
L 603 0 
L 603 4863 
z
" transform="scale(0.015625)"/>
      <path id="DejaVuSans-6f" d="M 1959 3097 
Q 1497 3097 1228 2736 
Q 959 2375 959 1747 
Q 959 1119 1226 758 
Q 1494 397 1959 397 
Q 2419 397 2687 759 
Q 2956 1122 2956 1747 
Q 2956 2369 2687 2733 
Q 2419 3097 1959 3097 
z
M 1959 3584 
Q 2709 3584 3137 3096 
Q 3566 2609 3566 1747 
Q 3566 888 3137 398 
Q 2709 -91 1959 -91 
Q 1206 -91 779 398 
Q 353 888 353 1747 
Q 353 2609 779 3096 
Q 1206 3584 1959 3584 
z
" transform="scale(0.015625)"/>
      <path id="DejaVuSans-67" d="M 2906 1791 
Q 2906 2416 2648 2759 
Q 2391 3103 1925 3103 
Q 1463 3103 1205 2759 
Q 947 2416 947 1791 
Q 947 1169 1205 825 
Q 1463 481 1925 481 
Q 2391 481 2648 825 
Q 2906 1169 2906 1791 
z
M 3481 434 
Q 3481 -459 3084 -895 
Q 2688 -1331 1869 -1331 
Q 1566 -1331 1297 -1286 
Q 1028 -1241 775 -1147 
L 775 -588 
Q 1028 -725 1275 -790 
Q 1522 -856 1778 -856 
Q 2344 -856 2625 -561 
Q 2906 -266 2906 331 
L 2906 616 
Q 2728 306 2450 153 
Q 2172 0 1784 0 
Q 1141 0 747 490 
Q 353 981 353 1791 
Q 353 2603 747 3093 
Q 1141 3584 1784 3584 
Q 2172 3584 2450 3431 
Q 2728 3278 2906 2969 
L 2906 3500 
L 3481 3500 
L 3481 434 
z
" transform="scale(0.015625)"/>
      <path id="DejaVuSans-2192" d="M 5050 2147 
L 5050 1866 
L 3822 638 
L 3447 1013 
L 4175 1741 
L 366 1741 
L 366 2272 
L 4175 2272 
L 3447 3000 
L 3822 3375 
L 5050 2147 
z
" transform="scale(0.015625)"/>
      <path id="STIXNonUnicode-Italic-e156" d="M 4250 4179 
L 4192 3942 
L 2150 3942 
L 1709 2266 
L 3514 2266 
L 3443 2029 
L 1645 2029 
L 1165 237 
L 3443 237 
L 3392 0 
L 109 0 
L 1229 4179 
L 4250 4179 
z
M 1914 3942 
L 1414 3942 
L 416 237 
L 928 237 
L 1914 3942 
z
" transform="scale(0.015625)"/>
      <path id="DejaVuSans-5b" d="M 550 4863 
L 1875 4863 
L 1875 4416 
L 1125 4416 
L 1125 -397 
L 1875 -397 
L 1875 -844 
L 550 -844 
L 550 4863 
z
" transform="scale(0.015625)"/>
      <path id="DejaVuSans-Oblique-58" d="M 878 4666 
L 1516 4666 
L 2316 2981 
L 3763 4666 
L 4500 4666 
L 2578 2438 
L 3738 0 
L 3103 0 
L 2163 1966 
L 459 0 
L -275 0 
L 1906 2509 
L 878 4666 
z
" transform="scale(0.015625)"/>
      <path id="DejaVuSans-5d" d="M 1947 4863 
L 1947 -844 
L 622 -844 
L 622 -397 
L 1369 -397 
L 1369 4416 
L 622 4416 
L 622 4863 
L 1947 4863 
z
" transform="scale(0.015625)"/>
      <path id="DejaVuSans-2264" d="M 4684 3175 
L 1684 2309 
L 4684 1453 
L 4684 897 
L 678 2047 
L 678 2578 
L 4684 3725 
L 4684 3175 
z
M 678 531 
L 4684 531 
L 4684 0 
L 678 0 
L 678 531 
z
" transform="scale(0.015625)"/>
     </defs>
     <use xlink:href="#DejaVuSans-43" transform="translate(0 0.015625)"/>
     <use xlink:href="#DejaVuSans-f3" transform="translate(69.824219 0.015625)"/>
     <use xlink:href="#DejaVuSans-6e" transform="translate(131.005859 0.015625)"/>
     <use xlink:href="#DejaVuSans-63" transform="translate(194.384766 0.015625)"/>
     <use xlink:href="#DejaVuSans-61" transform="translate(249.365234 0.015625)"/>
     <use xlink:href="#DejaVuSans-76" transform="translate(310.644531 0.015625)"/>
     <use xlink:href="#DejaVuSans-61" transform="translate(369.824219 0.015625)"/>
     <use xlink:href="#DejaVuSans-3a" transform="translate(431.103516 0.015625)"/>
     <use xlink:href="#DejaVuSans-20" transform="translate(464.794922 0.015625)"/>
     <use xlink:href="#DejaVuSans-Oblique-66" transform="translate(496.582031 0.015625)"/>
     <use xlink:href="#DejaVuSans-28" transform="translate(531.787109 0.015625)"/>
     <use xlink:href="#DejaVuSans-Oblique-78" transform="translate(570.800781 0.015625)"/>
     <use xlink:href="#DejaVuSans-29" transform="translate(629.980469 0.015625)"/>
     <use xlink:href="#DejaVuSans-3d" transform="translate(688.476562 0.015625)"/>
     <use xlink:href="#DejaVuSans-6c" transform="translate(791.748047 0.015625)"/>
     <use xlink:href="#DejaVuSans-6f" transform="translate(819.53125 0.015625)"/>
     <use xlink:href="#DejaVuSans-67" transform="translate(880.712891 0.015625)"/>
     <use xlink:href="#DejaVuSans-28" transform="translate(944.189453 0.015625)"/>
     <use xlink:href="#DejaVuSans-Oblique-78" transform="translate(983.203125 0.015625)"/>
     <use xlink:href="#DejaVuSans-29" transform="translate(1042.382812 0.015625)"/>
     <use xlink:href="#DejaVuSans-20" transform="translate(1081.396484 0.015625)"/>
     <use xlink:href="#DejaVuSans-2192" transform="translate(1113.183594 0.015625)"/>
     <use xlink:href="#DejaVuSans-20" transform="translate(1196.972656 0.015625)"/>
     <use xlink:href="#STIXNonUnicode-Italic-e156" transform="translate(1228.759766 0.015625)"/>
     <use xlink:href="#DejaVuSans-5b" transform="translate(1292.65976 0.015625)"/>
     <use xlink:href="#DejaVuSans-Oblique-66" transform="translate(1331.673431 0.015625)"/>
     <use xlink:href="#DejaVuSans-28" transform="translate(1366.87851 0.015625)"/>
     <use xlink:href="#DejaVuSans-Oblique-58" transform="translate(1405.892181 0.015625)"/>
     <use xlink:href="#DejaVuSans-29" transform="translate(1474.398041 0.015625)"/>
     <use xlink:href="#DejaVuSans-5d" transform="translate(1513.411713 0.015625)"/>
     <use xlink:href="#DejaVuSans-2264" transform="translate(1571.907806 0.015625)"/>
     <use xlink:href="#DejaVuSans-Oblique-66" transform="translate(1675.179291 0.015625)"/>
     <use xlink:href="#DejaVuSans-28" transform="translate(1710.384369 0.015625)"/>
     <use xlink:href="#STIXNonUnicode-Italic-e156" transform="translate(1749.398041 0.015625)"/>
     <use xlink:href="#DejaVuSans-5b" transform="translate(1813.298035 0.015625)"/>
     <use xlink:href="#DejaVuSans-Oblique-58" transform="translate(1852.311707 0.015625)"/>
     <use xlink:href="#DejaVuSans-5d" transform="translate(1920.817566 0.015625)"/>
     <use xlink:href="#DejaVuSans-29" transform="translate(1959.831238 0.015625)"/>
    </g>
   </g>
   <g id="PathCollection_1">
    <defs>
     <path id="m6649c510f6" d="M 0 4.472136 
C 1.186024 4.472136 2.323632 4.000923 3.162278 3.162278 
C 4.000923 2.323632 4.472136 1.186024 4.472136 0 
C 4.472136 -1.186024 4.000923 -2.323632 3.162278 -3.162278 
C 2.323632 -4.000923 1.186024 -4.472136 0 -4.472136 
C -1.186024 -4.472136 -2.323632 -4.000923 -3.162278 -3.162278 
C -4.000923 -2.323632 -4.472136 -1.186024 -4.472136 0 
C -4.472136 1.186024 -4.000923 2.323632 -3.162278 3.162278 
C -2.323632 4.000923 -1.186024 4.472136 0 4.472136 
z
" style="stroke: #ff0000"/>
    </defs>
    <g clip-path="url(#p217a6af5dc)">
     <use xlink:href="#m6649c510f6" x="116.194444" y="176.491967" style="fill: #ff0000; stroke: #ff0000"/>
     <use xlink:href="#m6649c510f6" x="379.446026" y="51.785163" style="fill: #ff0000; stroke: #ff0000"/>
    </g>
   </g>
   <g id="PathCollection_2">
    <defs>
     <path id="m8cf0b52aad" d="M 0 5 
C 1.326016 5 2.597899 4.473168 3.535534 3.535534 
C 4.473168 2.597899 5 1.326016 5 0 
C 5 -1.326016 4.473168 -2.597899 3.535534 -3.535534 
C 2.597899 -4.473168 1.326016 -5 0 -5 
C -1.326016 -5 -2.597899 -4.473168 -3.535534 -3.535534 
C -4.473168 -2.597899 -5 -1.326016 -5 0 
C -5 1.326016 -4.473168 2.597899 -3.535534 3.535534 
C -2.597899 4.473168 -1.326016 5 0 5 
z
" style="stroke: #008000"/>
    </defs>
    <g clip-path="url(#p217a6af5dc)">
     <use xlink:href="#m8cf0b52aad" x="247.820235" y="86.290496" style="fill: #008000; stroke: #008000"/>
    </g>
   </g>
   <g id="PathCollection_3">
    <defs>
     <path id="m1f284ad074" d="M 0 5 
C 1.326016 5 2.597899 4.473168 3.535534 3.535534 
C 4.473168 2.597899 5 1.326016 5 0 
C 5 -1.326016 4.473168 -2.597899 3.535534 -3.535534 
C 2.597899 -4.473168 1.326016 -5 0 -5 
C -1.326016 -5 -2.597899 -4.473168 -3.535534 -3.535534 
C -4.473168 -2.597899 -5 -1.326016 -5 0 
C -5 1.326016 -4.473168 2.597899 -3.535534 3.535534 
C -2.597899 4.473168 -1.326016 5 0 5 
z
" style="stroke: #ffa500"/>
    </defs>
    <g clip-path="url(#p217a6af5dc)">
     <use xlink:href="#m1f284ad074" x="247.820235" y="114.138565" style="fill: #ffa500; stroke: #ffa500"/>
    </g>
   </g>
   <g id="legend_1">
    <g id="patch_7">
     <path d="M 358.848375 276.7425 
L 461.888375 276.7425 
Q 465.088375 276.7425 465.088375 273.5425 
L 465.088375 204.6525 
Q 465.088375 201.4525 461.888375 201.4525 
L 358.848375 201.4525 
Q 355.648375 201.4525 355.648375 204.6525 
L 355.648375 273.5425 
Q 355.648375 276.7425 358.848375 276.7425 
z
" style="fill: #ffffff; opacity: 0.8; stroke: #cccccc; stroke-linejoin: miter"/>
    </g>
    <g id="line2d_33">
     <path d="M 362.048375 214.4125 
L 378.048375 214.4125 
L 394.048375 214.4125 
" style="fill: none; stroke: #0000ff; stroke-width: 2.5; stroke-linecap: square"/>
    </g>
    <g id="text_22">
     <!-- $\log(x)$ -->
     <g transform="translate(406.848375 220.0125) scale(0.16 -0.16)">
      <use xlink:href="#DejaVuSans-6c" transform="translate(0 0.015625)"/>
      <use xlink:href="#DejaVuSans-6f" transform="translate(27.783203 0.015625)"/>
      <use xlink:href="#DejaVuSans-67" transform="translate(88.964844 0.015625)"/>
      <use xlink:href="#DejaVuSans-28" transform="translate(152.441406 0.015625)"/>
      <use xlink:href="#DejaVuSans-Oblique-78" transform="translate(191.455078 0.015625)"/>
      <use xlink:href="#DejaVuSans-29" transform="translate(250.634766 0.015625)"/>
     </g>
    </g>
    <g id="PathCollection_4">
     <g>
      <use xlink:href="#m8cf0b52aad" x="378.048375" y="239.33" style="fill: #008000; stroke: #008000"/>
     </g>
    </g>
    <g id="text_23">
     <!-- $f(\mathbb{E}[X])$ -->
     <g transform="translate(406.848375 243.53) scale(0.16 -0.16)">
      <use xlink:href="#DejaVuSans-Oblique-66" transform="translate(0 0.015625)"/>
      <use xlink:href="#DejaVuSans-28" transform="translate(35.205078 0.015625)"/>
      <use xlink:href="#STIXNonUnicode-Italic-e156" transform="translate(74.21875 0.015625)"/>
      <use xlink:href="#DejaVuSans-5b" transform="translate(138.118744 0.015625)"/>
      <use xlink:href="#DejaVuSans-Oblique-58" transform="translate(177.132416 0.015625)"/>
      <use xlink:href="#DejaVuSans-5d" transform="translate(245.638275 0.015625)"/>
      <use xlink:href="#DejaVuSans-29" transform="translate(284.651947 0.015625)"/>
     </g>
    </g>
    <g id="PathCollection_5">
     <g>
      <use xlink:href="#m1f284ad074" x="378.048375" y="262.815" style="fill: #ffa500; stroke: #ffa500"/>
     </g>
    </g>
    <g id="text_24">
     <!-- $\mathbb{E}[f(X)]$ -->
     <g transform="translate(406.848375 267.015) scale(0.16 -0.16)">
      <use xlink:href="#STIXNonUnicode-Italic-e156" transform="translate(0 0.015625)"/>
      <use xlink:href="#DejaVuSans-5b" transform="translate(63.899994 0.015625)"/>
      <use xlink:href="#DejaVuSans-Oblique-66" transform="translate(102.913666 0.015625)"/>
      <use xlink:href="#DejaVuSans-28" transform="translate(138.118744 0.015625)"/>
      <use xlink:href="#DejaVuSans-Oblique-58" transform="translate(177.132416 0.015625)"/>
      <use xlink:href="#DejaVuSans-29" transform="translate(245.638275 0.015625)"/>
      <use xlink:href="#DejaVuSans-5d" transform="translate(284.651947 0.015625)"/>
     </g>
    </g>
   </g>
  </g>
  <g id="axes_2">
   <g id="patch_8">
    <path d="M 569.206 284.7425 
L 974.613437 284.7425 
L 974.613437 26.6725 
L 569.206 26.6725 
z
" style="fill: #ffffff"/>
   </g>
   <g id="matplotlib.axis_3">
    <g id="xtick_7">
     <g id="line2d_34">
      <path d="M 587.633611 284.7425 
L 587.633611 26.6725 
" clip-path="url(#p6ed595e434)" style="fill: none; stroke: #b0b0b0; stroke-opacity: 0.3; stroke-width: 0.8; stroke-linecap: square"/>
     </g>
     <g id="line2d_35">
      <g>
       <use xlink:href="#mcfcbe63c1d" x="587.633611" y="284.7425" style="stroke: #000000; stroke-width: 0.8"/>
      </g>
     </g>
     <g id="text_25">
      <!-- −2 -->
      <g transform="translate(577.314079 302.380312) scale(0.14 -0.14)">
       <use xlink:href="#DejaVuSans-2212"/>
       <use xlink:href="#DejaVuSans-32" transform="translate(83.789062 0)"/>
      </g>
     </g>
    </g>
    <g id="xtick_8">
     <g id="line2d_36">
      <path d="M 661.344054 284.7425 
L 661.344054 26.6725 
" clip-path="url(#p6ed595e434)" style="fill: none; stroke: #b0b0b0; stroke-opacity: 0.3; stroke-width: 0.8; stroke-linecap: square"/>
     </g>
     <g id="line2d_37">
      <g>
       <use xlink:href="#mcfcbe63c1d" x="661.344054" y="284.7425" style="stroke: #000000; stroke-width: 0.8"/>
      </g>
     </g>
     <g id="text_26">
      <!-- −1 -->
      <g transform="translate(651.024523 302.380312) scale(0.14 -0.14)">
       <use xlink:href="#DejaVuSans-2212"/>
       <use xlink:href="#DejaVuSans-31" transform="translate(83.789062 0)"/>
      </g>
     </g>
    </g>
    <g id="xtick_9">
     <g id="line2d_38">
      <path d="M 735.054497 284.7425 
L 735.054497 26.6725 
" clip-path="url(#p6ed595e434)" style="fill: none; stroke: #b0b0b0; stroke-opacity: 0.3; stroke-width: 0.8; stroke-linecap: square"/>
     </g>
     <g id="line2d_39">
      <g>
       <use xlink:href="#mcfcbe63c1d" x="735.054497" y="284.7425" style="stroke: #000000; stroke-width: 0.8"/>
      </g>
     </g>
     <g id="text_27">
      <!-- 0 -->
      <g transform="translate(730.600747 302.380312) scale(0.14 -0.14)">
       <use xlink:href="#DejaVuSans-30"/>
      </g>
     </g>
    </g>
    <g id="xtick_10">
     <g id="line2d_40">
      <path d="M 808.76494 284.7425 
L 808.76494 26.6725 
" clip-path="url(#p6ed595e434)" style="fill: none; stroke: #b0b0b0; stroke-opacity: 0.3; stroke-width: 0.8; stroke-linecap: square"/>
     </g>
     <g id="line2d_41">
      <g>
       <use xlink:href="#mcfcbe63c1d" x="808.76494" y="284.7425" style="stroke: #000000; stroke-width: 0.8"/>
      </g>
     </g>
     <g id="text_28">
      <!-- 1 -->
      <g transform="translate(804.31119 302.380312) scale(0.14 -0.14)">
       <use xlink:href="#DejaVuSans-31"/>
      </g>
     </g>
    </g>
    <g id="xtick_11">
     <g id="line2d_42">
      <path d="M 882.475383 284.7425 
L 882.475383 26.6725 
" clip-path="url(#p6ed595e434)" style="fill: none; stroke: #b0b0b0; stroke-opacity: 0.3; stroke-width: 0.8; stroke-linecap: square"/>
     </g>
     <g id="line2d_43">
      <g>
       <use xlink:href="#mcfcbe63c1d" x="882.475383" y="284.7425" style="stroke: #000000; stroke-width: 0.8"/>
      </g>
     </g>
     <g id="text_29">
      <!-- 2 -->
      <g transform="translate(878.021633 302.380312) scale(0.14 -0.14)">
       <use xlink:href="#DejaVuSans-32"/>
      </g>
     </g>
    </g>
    <g id="xtick_12">
     <g id="line2d_44">
      <path d="M 956.185827 284.7425 
L 956.185827 26.6725 
" clip-path="url(#p6ed595e434)" style="fill: none; stroke: #b0b0b0; stroke-opacity: 0.3; stroke-width: 0.8; stroke-linecap: square"/>
     </g>
     <g id="line2d_45">
      <g>
       <use xlink:href="#mcfcbe63c1d" x="956.185827" y="284.7425" style="stroke: #000000; stroke-width: 0.8"/>
      </g>
     </g>
     <g id="text_30">
      <!-- 3 -->
      <g transform="translate(951.732077 302.380312) scale(0.14 -0.14)">
       <use xlink:href="#DejaVuSans-33"/>
      </g>
     </g>
    </g>
    <g id="text_31">
     <!-- x -->
     <g transform="translate(767.174719 321.449375) scale(0.16 -0.16)">
      <use xlink:href="#DejaVuSans-78"/>
     </g>
    </g>
   </g>
   <g id="matplotlib.axis_4">
    <g id="ytick_9">
     <g id="line2d_46">
      <path d="M 569.206 273.014679 
L 974.613437 273.014679 
" clip-path="url(#p6ed595e434)" style="fill: none; stroke: #b0b0b0; stroke-opacity: 0.3; stroke-width: 0.8; stroke-linecap: square"/>
     </g>
     <g id="line2d_47">
      <g>
       <use xlink:href="#me86e3d8e63" x="569.206" y="273.014679" style="stroke: #000000; stroke-width: 0.8"/>
      </g>
     </g>
     <g id="text_32">
      <!-- 0 -->
      <g transform="translate(553.2985 278.333585) scale(0.14 -0.14)">
       <use xlink:href="#DejaVuSans-30"/>
      </g>
     </g>
    </g>
    <g id="ytick_10">
     <g id="line2d_48">
      <path d="M 569.206 220.87874 
L 974.613437 220.87874 
" clip-path="url(#p6ed595e434)" style="fill: none; stroke: #b0b0b0; stroke-opacity: 0.3; stroke-width: 0.8; stroke-linecap: square"/>
     </g>
     <g id="line2d_49">
      <g>
       <use xlink:href="#me86e3d8e63" x="569.206" y="220.87874" style="stroke: #000000; stroke-width: 0.8"/>
      </g>
     </g>
     <g id="text_33">
      <!-- 2 -->
      <g transform="translate(553.2985 226.197646) scale(0.14 -0.14)">
       <use xlink:href="#DejaVuSans-32"/>
      </g>
     </g>
    </g>
    <g id="ytick_11">
     <g id="line2d_50">
      <path d="M 569.206 168.742801 
L 974.613437 168.742801 
" clip-path="url(#p6ed595e434)" style="fill: none; stroke: #b0b0b0; stroke-opacity: 0.3; stroke-width: 0.8; stroke-linecap: square"/>
     </g>
     <g id="line2d_51">
      <g>
       <use xlink:href="#me86e3d8e63" x="569.206" y="168.742801" style="stroke: #000000; stroke-width: 0.8"/>
      </g>
     </g>
     <g id="text_34">
      <!-- 4 -->
      <g transform="translate(553.2985 174.061707) scale(0.14 -0.14)">
       <use xlink:href="#DejaVuSans-34"/>
      </g>
     </g>
    </g>
    <g id="ytick_12">
     <g id="line2d_52">
      <path d="M 569.206 116.606863 
L 974.613437 116.606863 
" clip-path="url(#p6ed595e434)" style="fill: none; stroke: #b0b0b0; stroke-opacity: 0.3; stroke-width: 0.8; stroke-linecap: square"/>
     </g>
     <g id="line2d_53">
      <g>
       <use xlink:href="#me86e3d8e63" x="569.206" y="116.606863" style="stroke: #000000; stroke-width: 0.8"/>
      </g>
     </g>
     <g id="text_35">
      <!-- 6 -->
      <g transform="translate(553.2985 121.925769) scale(0.14 -0.14)">
       <defs>
        <path id="DejaVuSans-36" d="M 2113 2584 
Q 1688 2584 1439 2293 
Q 1191 2003 1191 1497 
Q 1191 994 1439 701 
Q 1688 409 2113 409 
Q 2538 409 2786 701 
Q 3034 994 3034 1497 
Q 3034 2003 2786 2293 
Q 2538 2584 2113 2584 
z
M 3366 4563 
L 3366 3988 
Q 3128 4100 2886 4159 
Q 2644 4219 2406 4219 
Q 1781 4219 1451 3797 
Q 1122 3375 1075 2522 
Q 1259 2794 1537 2939 
Q 1816 3084 2150 3084 
Q 2853 3084 3261 2657 
Q 3669 2231 3669 1497 
Q 3669 778 3244 343 
Q 2819 -91 2113 -91 
Q 1303 -91 875 529 
Q 447 1150 447 2328 
Q 447 3434 972 4092 
Q 1497 4750 2381 4750 
Q 2619 4750 2861 4703 
Q 3103 4656 3366 4563 
z
" transform="scale(0.015625)"/>
       </defs>
       <use xlink:href="#DejaVuSans-36"/>
      </g>
     </g>
    </g>
    <g id="ytick_13">
     <g id="line2d_54">
      <path d="M 569.206 64.470924 
L 974.613437 64.470924 
" clip-path="url(#p6ed595e434)" style="fill: none; stroke: #b0b0b0; stroke-opacity: 0.3; stroke-width: 0.8; stroke-linecap: square"/>
     </g>
     <g id="line2d_55">
      <g>
       <use xlink:href="#me86e3d8e63" x="569.206" y="64.470924" style="stroke: #000000; stroke-width: 0.8"/>
      </g>
     </g>
     <g id="text_36">
      <!-- 8 -->
      <g transform="translate(553.2985 69.78983) scale(0.14 -0.14)">
       <defs>
        <path id="DejaVuSans-38" d="M 2034 2216 
Q 1584 2216 1326 1975 
Q 1069 1734 1069 1313 
Q 1069 891 1326 650 
Q 1584 409 2034 409 
Q 2484 409 2743 651 
Q 3003 894 3003 1313 
Q 3003 1734 2745 1975 
Q 2488 2216 2034 2216 
z
M 1403 2484 
Q 997 2584 770 2862 
Q 544 3141 544 3541 
Q 544 4100 942 4425 
Q 1341 4750 2034 4750 
Q 2731 4750 3128 4425 
Q 3525 4100 3525 3541 
Q 3525 3141 3298 2862 
Q 3072 2584 2669 2484 
Q 3125 2378 3379 2068 
Q 3634 1759 3634 1313 
Q 3634 634 3220 271 
Q 2806 -91 2034 -91 
Q 1263 -91 848 271 
Q 434 634 434 1313 
Q 434 1759 690 2068 
Q 947 2378 1403 2484 
z
M 1172 3481 
Q 1172 3119 1398 2916 
Q 1625 2713 2034 2713 
Q 2441 2713 2670 2916 
Q 2900 3119 2900 3481 
Q 2900 3844 2670 4047 
Q 2441 4250 2034 4250 
Q 1625 4250 1398 4047 
Q 1172 3844 1172 3481 
z
" transform="scale(0.015625)"/>
       </defs>
       <use xlink:href="#DejaVuSans-38"/>
      </g>
     </g>
    </g>
    <g id="text_37">
     <!-- $f(x)$ -->
     <g transform="translate(545.971 169.5475) rotate(-90) scale(0.16 -0.16)">
      <use xlink:href="#DejaVuSans-Oblique-66" transform="translate(0 0.015625)"/>
      <use xlink:href="#DejaVuSans-28" transform="translate(35.205078 0.015625)"/>
      <use xlink:href="#DejaVuSans-Oblique-78" transform="translate(74.21875 0.015625)"/>
      <use xlink:href="#DejaVuSans-29" transform="translate(133.398438 0.015625)"/>
     </g>
    </g>
   </g>
   <g id="line2d_56">
    <path d="M 587.633611 168.742801 
L 593.189674 176.454381 
L 598.745738 183.869741 
L 604.301801 190.988881 
L 609.857865 197.811803 
L 615.413928 204.338504 
L 620.969992 210.568987 
L 626.526055 216.50325 
L 632.082119 222.141293 
L 637.638183 227.483117 
L 643.194246 232.528721 
L 648.75031 237.278107 
L 654.306373 241.731272 
L 659.862437 245.888218 
L 665.4185 249.748945 
L 670.974564 253.313452 
L 676.530628 256.58174 
L 682.086691 259.553809 
L 687.642755 262.229658 
L 693.198818 264.609287 
L 698.754882 266.692697 
L 704.310945 268.479888 
L 709.867009 269.970859 
L 715.423072 271.165611 
L 720.979136 272.064143 
L 726.5352 272.666456 
L 732.091263 272.97255 
L 737.647327 272.982424 
L 743.20339 272.696078 
L 748.759454 272.113513 
L 754.315517 271.234729 
L 759.871581 270.059725 
L 765.427644 268.588502 
L 770.983708 266.821059 
L 776.539772 264.757397 
L 782.095835 262.397515 
L 787.651899 259.741414 
L 793.207962 256.789094 
L 798.764026 253.540554 
L 804.320089 249.995795 
L 809.876153 246.154816 
L 815.432217 242.017618 
L 820.98828 237.5842 
L 826.544344 232.854563 
L 832.100407 227.828706 
L 837.656471 222.50663 
L 843.212534 216.888335 
L 848.768598 210.97382 
L 854.324661 204.763086 
L 859.880725 198.256132 
L 865.436789 191.452959 
L 870.992852 184.353566 
L 876.548916 176.957954 
L 882.104979 169.266122 
L 887.661043 161.278071 
L 895.069128 150.166551 
L 902.477212 138.528418 
L 909.885297 126.363673 
L 917.293382 113.672315 
L 924.701467 100.454345 
L 932.109551 86.709763 
L 939.517636 72.438569 
L 946.925721 57.640762 
L 954.333806 42.316343 
L 956.185827 38.402955 
L 956.185827 38.402955 
" clip-path="url(#p6ed595e434)" style="fill: none; stroke: #0000ff; stroke-width: 2.5; stroke-linecap: square"/>
   </g>
   <g id="line2d_57">
    <path d="M 661.344054 246.946709 
L 919.330605 110.08987 
" clip-path="url(#p6ed595e434)" style="fill: none; stroke-dasharray: 7.4,3.2; stroke-dashoffset: 0; stroke: #ff0000; stroke-width: 2"/>
   </g>
   <g id="line2d_58">
    <path d="M 569.206 273.014679 
L 974.613437 273.014679 
" clip-path="url(#p6ed595e434)" style="fill: none; stroke: #000000; stroke-width: 0.5; stroke-linecap: square"/>
   </g>
   <g id="line2d_59">
    <path d="M 735.054497 284.7425 
L 735.054497 26.6725 
" clip-path="url(#p6ed595e434)" style="fill: none; stroke: #000000; stroke-width: 0.5; stroke-linecap: square"/>
   </g>
   <g id="patch_9">
    <path d="M 569.206 284.7425 
L 569.206 26.6725 
" style="fill: none; stroke: #000000; stroke-width: 0.8; stroke-linejoin: miter; stroke-linecap: square"/>
   </g>
   <g id="patch_10">
    <path d="M 974.613437 284.7425 
L 974.613437 26.6725 
" style="fill: none; stroke: #000000; stroke-width: 0.8; stroke-linejoin: miter; stroke-linecap: square"/>
   </g>
   <g id="patch_11">
    <path d="M 569.206 284.7425 
L 974.613437 284.7425 
" style="fill: none; stroke: #000000; stroke-width: 0.8; stroke-linejoin: miter; stroke-linecap: square"/>
   </g>
   <g id="patch_12">
    <path d="M 569.206 26.6725 
L 974.613437 26.6725 
" style="fill: none; stroke: #000000; stroke-width: 0.8; stroke-linejoin: miter; stroke-linecap: square"/>
   </g>
   <g id="text_38">
    <!-- $(x_1, f(x_1))$ -->
    <g transform="translate(576.344054 251.946709) scale(0.18 -0.18)">
     <use xlink:href="#DejaVuSans-28" transform="translate(0 0.015625)"/>
     <use xlink:href="#DejaVuSans-Oblique-78" transform="translate(39.013672 0.015625)"/>
     <use xlink:href="#DejaVuSans-31" transform="translate(98.193359 -16.390625) scale(0.7)"/>
     <use xlink:href="#DejaVuSans-2c" transform="translate(145.463867 0.015625)"/>
     <use xlink:href="#DejaVuSans-Oblique-66" transform="translate(196.733398 0.015625)"/>
     <use xlink:href="#DejaVuSans-28" transform="translate(231.938477 0.015625)"/>
     <use xlink:href="#DejaVuSans-Oblique-78" transform="translate(270.952148 0.015625)"/>
     <use xlink:href="#DejaVuSans-31" transform="translate(330.131836 -16.390625) scale(0.7)"/>
     <use xlink:href="#DejaVuSans-29" transform="translate(377.402344 0.015625)"/>
     <use xlink:href="#DejaVuSans-29" transform="translate(416.416016 0.015625)"/>
    </g>
   </g>
   <g id="text_39">
    <!-- $(x_2, f(x_2))$ -->
    <g transform="translate(834.330605 110.08987) scale(0.18 -0.18)">
     <use xlink:href="#DejaVuSans-28" transform="translate(0 0.015625)"/>
     <use xlink:href="#DejaVuSans-Oblique-78" transform="translate(39.013672 0.015625)"/>
     <use xlink:href="#DejaVuSans-32" transform="translate(98.193359 -16.390625) scale(0.7)"/>
     <use xlink:href="#DejaVuSans-2c" transform="translate(145.463867 0.015625)"/>
     <use xlink:href="#DejaVuSans-Oblique-66" transform="translate(196.733398 0.015625)"/>
     <use xlink:href="#DejaVuSans-28" transform="translate(231.938477 0.015625)"/>
     <use xlink:href="#DejaVuSans-Oblique-78" transform="translate(270.952148 0.015625)"/>
     <use xlink:href="#DejaVuSans-32" transform="translate(330.131836 -16.390625) scale(0.7)"/>
     <use xlink:href="#DejaVuSans-29" transform="translate(377.402344 0.015625)"/>
     <use xlink:href="#DejaVuSans-29" transform="translate(416.416016 0.015625)"/>
    </g>
   </g>
   <g id="text_40">
    <!-- $\lambda_1 f(x_1) + \lambda_2 f(x_2)$ -->
    <g style="fill: #ffa500" transform="translate(645.337329 176.51829) scale(0.18 -0.18)">
     <use xlink:href="#DejaVuSans-Oblique-3bb" transform="translate(0 0.015625)"/>
     <use xlink:href="#DejaVuSans-31" transform="translate(59.179688 -16.390625) scale(0.7)"/>
     <use xlink:href="#DejaVuSans-Oblique-66" transform="translate(106.450195 0.015625)"/>
     <use xlink:href="#DejaVuSans-28" transform="translate(141.655273 0.015625)"/>
     <use xlink:href="#DejaVuSans-Oblique-78" transform="translate(180.668945 0.015625)"/>
     <use xlink:href="#DejaVuSans-31" transform="translate(239.848633 -16.390625) scale(0.7)"/>
     <use xlink:href="#DejaVuSans-29" transform="translate(287.119141 0.015625)"/>
     <use xlink:href="#DejaVuSans-2b" transform="translate(345.615234 0.015625)"/>
     <use xlink:href="#DejaVuSans-Oblique-3bb" transform="translate(448.886719 0.015625)"/>
     <use xlink:href="#DejaVuSans-32" transform="translate(508.066406 -16.390625) scale(0.7)"/>
     <use xlink:href="#DejaVuSans-Oblique-66" transform="translate(555.336914 0.015625)"/>
     <use xlink:href="#DejaVuSans-28" transform="translate(590.541992 0.015625)"/>
     <use xlink:href="#DejaVuSans-Oblique-78" transform="translate(629.555664 0.015625)"/>
     <use xlink:href="#DejaVuSans-32" transform="translate(688.735352 -16.390625) scale(0.7)"/>
     <use xlink:href="#DejaVuSans-29" transform="translate(736.005859 0.015625)"/>
    </g>
   </g>
   <g id="text_41">
    <!-- $f(\lambda_1 x_1 + \lambda_2 x_2)$ -->
    <g style="fill: #008000" transform="translate(805.337329 260.351446) scale(0.18 -0.18)">
     <use xlink:href="#DejaVuSans-Oblique-66" transform="translate(0 0.015625)"/>
     <use xlink:href="#DejaVuSans-28" transform="translate(35.205078 0.015625)"/>
     <use xlink:href="#DejaVuSans-Oblique-3bb" transform="translate(74.21875 0.015625)"/>
     <use xlink:href="#DejaVuSans-31" transform="translate(133.398438 -16.390625) scale(0.7)"/>
     <use xlink:href="#DejaVuSans-Oblique-78" transform="translate(180.668945 0.015625)"/>
     <use xlink:href="#DejaVuSans-31" transform="translate(239.848633 -16.390625) scale(0.7)"/>
     <use xlink:href="#DejaVuSans-2b" transform="translate(306.601562 0.015625)"/>
     <use xlink:href="#DejaVuSans-Oblique-3bb" transform="translate(409.873047 0.015625)"/>
     <use xlink:href="#DejaVuSans-32" transform="translate(469.052734 -16.390625) scale(0.7)"/>
     <use xlink:href="#DejaVuSans-Oblique-78" transform="translate(516.323242 0.015625)"/>
     <use xlink:href="#DejaVuSans-32" transform="translate(575.50293 -16.390625) scale(0.7)"/>
     <use xlink:href="#DejaVuSans-29" transform="translate(622.773438 0.015625)"/>
    </g>
   </g>
   <g id="text_42">
    <!-- Convexa: $f(x) = x^2$ → $\mathbb{E}[f(X)] \geq f(\mathbb{E}[X])$ -->
    <g transform="translate(625.909719 20.6725) scale(0.16 -0.16)">
     <defs>
      <path id="DejaVuSans-65" d="M 3597 1894 
L 3597 1613 
L 953 1613 
Q 991 1019 1311 708 
Q 1631 397 2203 397 
Q 2534 397 2845 478 
Q 3156 559 3463 722 
L 3463 178 
Q 3153 47 2828 -22 
Q 2503 -91 2169 -91 
Q 1331 -91 842 396 
Q 353 884 353 1716 
Q 353 2575 817 3079 
Q 1281 3584 2069 3584 
Q 2775 3584 3186 3129 
Q 3597 2675 3597 1894 
z
M 3022 2063 
Q 3016 2534 2758 2815 
Q 2500 3097 2075 3097 
Q 1594 3097 1305 2825 
Q 1016 2553 972 2059 
L 3022 2063 
z
" transform="scale(0.015625)"/>
      <path id="DejaVuSans-2265" d="M 678 3175 
L 678 3725 
L 4684 2578 
L 4684 2047 
L 678 897 
L 678 1453 
L 3681 2309 
L 678 3175 
z
M 4684 531 
L 4684 0 
L 678 0 
L 678 531 
L 4684 531 
z
" transform="scale(0.015625)"/>
     </defs>
     <use xlink:href="#DejaVuSans-43" transform="translate(0 0.765625)"/>
     <use xlink:href="#DejaVuSans-6f" transform="translate(69.824219 0.765625)"/>
     <use xlink:href="#DejaVuSans-6e" transform="translate(131.005859 0.765625)"/>
     <use xlink:href="#DejaVuSans-76" transform="translate(194.384766 0.765625)"/>
     <use xlink:href="#DejaVuSans-65" transform="translate(253.564453 0.765625)"/>
     <use xlink:href="#DejaVuSans-78" transform="translate(315.087891 0.765625)"/>
     <use xlink:href="#DejaVuSans-61" transform="translate(374.267578 0.765625)"/>
     <use xlink:href="#DejaVuSans-3a" transform="translate(435.546875 0.765625)"/>
     <use xlink:href="#DejaVuSans-20" transform="translate(469.238281 0.765625)"/>
     <use xlink:href="#DejaVuSans-Oblique-66" transform="translate(501.025391 0.765625)"/>
     <use xlink:href="#DejaVuSans-28" transform="translate(536.230469 0.765625)"/>
     <use xlink:href="#DejaVuSans-Oblique-78" transform="translate(575.244141 0.765625)"/>
     <use xlink:href="#DejaVuSans-29" transform="translate(634.423828 0.765625)"/>
     <use xlink:href="#DejaVuSans-3d" transform="translate(692.919922 0.765625)"/>
     <use xlink:href="#DejaVuSans-Oblique-78" transform="translate(796.191406 0.765625)"/>
     <use xlink:href="#DejaVuSans-32" transform="translate(859.83724 39.046875) scale(0.7)"/>
     <use xlink:href="#DejaVuSans-20" transform="translate(907.107747 0.765625)"/>
     <use xlink:href="#DejaVuSans-2192" transform="translate(938.894857 0.765625)"/>
     <use xlink:href="#DejaVuSans-20" transform="translate(1022.683919 0.765625)"/>
     <use xlink:href="#STIXNonUnicode-Italic-e156" transform="translate(1054.471029 0.765625)"/>
     <use xlink:href="#DejaVuSans-5b" transform="translate(1118.371023 0.765625)"/>
     <use xlink:href="#DejaVuSans-Oblique-66" transform="translate(1157.384694 0.765625)"/>
     <use xlink:href="#DejaVuSans-28" transform="translate(1192.589773 0.765625)"/>
     <use xlink:href="#DejaVuSans-Oblique-58" transform="translate(1231.603444 0.765625)"/>
     <use xlink:href="#DejaVuSans-29" transform="translate(1300.109304 0.765625)"/>
     <use xlink:href="#DejaVuSans-5d" transform="translate(1339.122976 0.765625)"/>
     <use xlink:href="#DejaVuSans-2265" transform="translate(1397.619069 0.765625)"/>
     <use xlink:href="#DejaVuSans-Oblique-66" transform="translate(1500.890554 0.765625)"/>
     <use xlink:href="#DejaVuSans-28" transform="translate(1536.095632 0.765625)"/>
     <use xlink:href="#STIXNonUnicode-Italic-e156" transform="translate(1575.109304 0.765625)"/>
     <use xlink:href="#DejaVuSans-5b" transform="translate(1639.009298 0.765625)"/>
     <use xlink:href="#DejaVuSans-Oblique-58" transform="translate(1678.02297 0.765625)"/>
     <use xlink:href="#DejaVuSans-5d" transform="translate(1746.528829 0.765625)"/>
     <use xlink:href="#DejaVuSans-29" transform="translate(1785.542501 0.765625)"/>
    </g>
   </g>
   <g id="PathCollection_6">
    <g clip-path="url(#p6ed595e434)">
     <use xlink:href="#m6649c510f6" x="661.344054" y="246.946709" style="fill: #ff0000; stroke: #ff0000"/>
     <use xlink:href="#m6649c510f6" x="919.330605" y="110.08987" style="fill: #ff0000; stroke: #ff0000"/>
    </g>
   </g>
   <g id="PathCollection_7">
    <g clip-path="url(#p6ed595e434)">
     <use xlink:href="#m8cf0b52aad" x="790.337329" y="258.351446" style="fill: #008000; stroke: #008000"/>
    </g>
   </g>
   <g id="PathCollection_8">
    <g clip-path="url(#p6ed595e434)">
     <use xlink:href="#m1f284ad074" x="790.337329" y="178.51829" style="fill: #ffa500; stroke: #ffa500"/>
    </g>
   </g>
   <g id="legend_2">
    <g id="patch_13">
     <path d="M 580.406 109.9275 
L 683.446 109.9275 
Q 686.646 109.9275 686.646 106.7275 
L 686.646 37.8725 
Q 686.646 34.6725 683.446 34.6725 
L 580.406 34.6725 
Q 577.206 34.6725 577.206 37.8725 
L 577.206 106.7275 
Q 577.206 109.9275 580.406 109.9275 
z
" style="fill: #ffffff; stroke: #cccccc; stroke-linejoin: miter"/>
    </g>
    <g id="line2d_60">
     <path d="M 583.606 47.63 
L 599.606 47.63 
L 615.606 47.63 
" style="fill: none; stroke: #0000ff; stroke-width: 2.5; stroke-linecap: square"/>
    </g>
    <g id="text_43">
     <!-- $x^2$ -->
     <g transform="translate(628.406 53.23) scale(0.16 -0.16)">
      <use xlink:href="#DejaVuSans-Oblique-78" transform="translate(0 0.765625)"/>
      <use xlink:href="#DejaVuSans-32" transform="translate(63.645833 39.046875) scale(0.7)"/>
     </g>
    </g>
    <g id="PathCollection_9">
     <g>
      <use xlink:href="#m8cf0b52aad" x="599.606" y="72.515" style="fill: #008000; stroke: #008000"/>
     </g>
    </g>
    <g id="text_44">
     <!-- $f(\mathbb{E}[X])$ -->
     <g transform="translate(628.406 76.715) scale(0.16 -0.16)">
      <use xlink:href="#DejaVuSans-Oblique-66" transform="translate(0 0.015625)"/>
      <use xlink:href="#DejaVuSans-28" transform="translate(35.205078 0.015625)"/>
      <use xlink:href="#STIXNonUnicode-Italic-e156" transform="translate(74.21875 0.015625)"/>
      <use xlink:href="#DejaVuSans-5b" transform="translate(138.118744 0.015625)"/>
      <use xlink:href="#DejaVuSans-Oblique-58" transform="translate(177.132416 0.015625)"/>
      <use xlink:href="#DejaVuSans-5d" transform="translate(245.638275 0.015625)"/>
      <use xlink:href="#DejaVuSans-29" transform="translate(284.651947 0.015625)"/>
     </g>
    </g>
    <g id="PathCollection_10">
     <g>
      <use xlink:href="#m1f284ad074" x="599.606" y="96" style="fill: #ffa500; stroke: #ffa500"/>
     </g>
    </g>
    <g id="text_45">
     <!-- $\mathbb{E}[f(X)]$ -->
     <g transform="translate(628.406 100.2) scale(0.16 -0.16)">
      <use xlink:href="#STIXNonUnicode-Italic-e156" transform="translate(0 0.015625)"/>
      <use xlink:href="#DejaVuSans-5b" transform="translate(63.899994 0.015625)"/>
      <use xlink:href="#DejaVuSans-Oblique-66" transform="translate(102.913666 0.015625)"/>
      <use xlink:href="#DejaVuSans-28" transform="translate(138.118744 0.015625)"/>
      <use xlink:href="#DejaVuSans-Oblique-58" transform="translate(177.132416 0.015625)"/>
      <use xlink:href="#DejaVuSans-29" transform="translate(245.638275 0.015625)"/>
      <use xlink:href="#DejaVuSans-5d" transform="translate(284.651947 0.015625)"/>
     </g>
    </g>
   </g>
  </g>
 </g>
 <defs>
  <clipPath id="p217a6af5dc">
   <rect x="67.680937" y="26.6725" width="405.407438" height="258.07"/>
  </clipPath>
  <clipPath id="p6ed595e434">
   <rect x="569.206" y="26.6725" width="405.407438" height="258.07"/>
  </clipPath>
 </defs>
</svg>
