<?xml version="1.0" encoding="UTF-8" standalone="no"?>
<!-- Created with Inkscape (http://www.inkscape.org/) -->

<svg
   version="1.1"
   id="svg1"
   width="497.38281"
   height="170.67969"
   viewBox="0 0 497.38281 170.67969"
   xmlns="http://www.w3.org/2000/svg"
   xmlns:svg="http://www.w3.org/2000/svg">
  <defs
     id="defs1" />
  <g
     id="g1"
     transform="translate(-6.4140625,-5.7343752)">
    <path
       id="path1"
       d="M -51.59108,0 H 51.59108"
       style="fill:none;stroke:#000000;stroke-width:0.79701;stroke-linecap:butt;stroke-linejoin:miter;stroke-miterlimit:10;stroke-dasharray:none;stroke-opacity:1"
       transform="matrix(1.3333333,0,0,-1.3333333,299.14133,88.708)" />
    <g
       id="g2"
       aria-label="P(B|A)·P(A)"
       transform="matrix(1.7333333,0,0,1.7333333,233.66133,68.866667)">
      <path
         id="path2"
         d="m 3.5329748,-3.8037861 h 2.0102163 c 1.6496394,0 3.2992789,-1.2169471 3.2992789,-2.578125 0,-0.9375 -0.7842549,-1.7848557 -2.2896635,-1.7848557 H 2.856893 c -0.2253605,0 -0.3335336,0 -0.3335336,0.234375 0,0.1171875 0.1081731,0.1171875 0.2884615,0.1171875 0.7211539,0 0.7211539,0.090144 0.7211539,0.2253605 0,0.027043 0,0.099159 -0.045072,0.2704327 L 1.8743209,-0.88311298 C 1.7661478,-0.46844952 1.748119,-0.3422476 0.90977764,-0.3422476 c -0.22536057,0 -0.3515625,0 -0.3515625,0.20733173 0,0.13521635077 0.10817308,0.13521635077 0.18028847,0.13521635077 0.22536057,0 0.46874999,-0.0270432708 0.69411059,-0.0270432708 h 1.3972356 c 0.2253605,0 0.4777644,0.0270432708 0.703125,0.0270432708 0.099159,0 0.234375,0 0.234375,-0.22536058077 0,-0.1171875 -0.1081731,-0.1171875 -0.2884616,-0.1171875 -0.7211538,0 -0.7301682,-0.0901442 -0.7301682,-0.20733173 0,-0.063101 0.00901,-0.14423077 0.027043,-0.20733173 z m 0.8653846,-3.5426682 c 0.1081731,-0.4507212 0.1532452,-0.46875 0.6219952,-0.46875 H 6.201244 c 0.9014423,0 1.640625,0.2884615 1.640625,1.1808894 0,0.3155048 -0.1532452,1.3251202 -0.703125,1.875 -0.2073317,0.2163461 -0.7842548,0.6760817 -1.8659856,0.6760817 H 3.5870613 Z m 0,0"
         style="fill:#000000;fill-opacity:1;fill-rule:nonzero;stroke:none" />
      <path
         id="path3"
         d="m 13.056713,2.9029447 c 0,-0.036058 0,-0.054086 -0.207332,-0.2614183 -1.189904,-1.2079327 -1.856971,-3.1820913 -1.856971,-5.6159855 0,-2.3167068 0.558894,-4.3179087 1.947115,-5.7241587 0.117188,-0.1081731 0.117188,-0.1352163 0.117188,-0.171274 0,-0.072115 -0.0631,-0.099159 -0.108173,-0.099159 -0.153246,0 -1.135818,0.8653846 -1.721755,2.0372596 -0.612981,1.2079327 -0.883414,2.4879808 -0.883414,3.9573318 0,1.0637019 0.171274,2.48798073 0.784255,3.76802881 0.71214,1.43329329 1.685697,2.20853369 1.820914,2.20853369 0.04507,0 0.108173,-0.027043 0.108173,-0.099158 z m 0,0"
         style="fill:#000000;fill-opacity:1;fill-rule:nonzero;stroke:none" />
      <path
         id="path4"
         d="m 18.095775,-7.3464543 c 0.108173,-0.4507212 0.16226,-0.46875 0.621995,-0.46875 h 1.559496 c 1.343149,0 1.343149,1.1448317 1.343149,1.2530048 0,0.9645432 -0.964544,2.1995192 -2.542068,2.1995192 h -1.721754 z m 2.019231,3.0829327 c 1.307091,-0.2433895 2.487981,-1.1538462 2.487981,-2.2536058 0,-0.9284856 -0.820313,-1.6496394 -2.172476,-1.6496394 h -3.840144 c -0.225361,0 -0.333534,0 -0.333534,0.234375 0,0.1171875 0.108173,0.1171875 0.288461,0.1171875 0.730169,0 0.730169,0.090144 0.730169,0.2253605 0,0.027043 0,0.099159 -0.04507,0.2704327 l -1.613582,6.43629812 c -0.108173,0.41466346 -0.135216,0.54086538 -0.973558,0.54086538 -0.22536,0 -0.342548,0 -0.342548,0.20733173 0,0.13521635077 0.07212,0.13521635077 0.306491,0.13521635077 h 4.101562 c 1.829928,0 3.236178,-1.38822118077 3.236178,-2.59615388077 0,-0.9735577 -0.85637,-1.577524 -1.829928,-1.6676682 z m -1.694712,3.921274 h -1.613581 c -0.16226,0 -0.189303,0 -0.261419,-0.0180288 -0.135216,-0.009014 -0.14423,-0.0360577 -0.14423,-0.12620193 0,-0.0901442 0.02704,-0.16225961 0.04507,-0.27043269 l 0.838341,-3.36237988 h 2.244592 c 1.415264,0 1.415264,1.3070914 1.415264,1.40625 0,1.1448318 -1.036659,2.37079334 -2.524039,2.37079334 z m 0,0"
         style="fill:#000000;fill-opacity:1;fill-rule:nonzero;stroke:none" />
      <path
         id="path5"
         d="m 25.115757,-8.5363582 c 0,-0.2163461 0,-0.4326923 -0.243389,-0.4326923 -0.234375,0 -0.234375,0.2163462 -0.234375,0.4326923 V 2.5603966 c 0,0.2163462 0,0.4326923 0.234375,0.4326923 0.243389,0 0.243389,-0.2163461 0.243389,-0.4326923 z m 0,0"
         style="fill:#000000;fill-opacity:1;fill-rule:nonzero;stroke:none" />
      <path
         id="path6"
         d="m 28.563774,-1.3248197 c -0.414663,0.70312499 -0.820312,0.94651441 -1.397236,0.9825721 -0.126201,0.009014 -0.22536,0.009014 -0.22536,0.22536058 0,0.07211539 0.0631,0.11718750077 0.144231,0.11718750077 0.216346,0 0.757211,-0.0270432708 0.964543,-0.0270432708 0.351562,0 0.730168,0.0270432708 1.063702,0.0270432708 0.07212,0 0.216346,0 0.216346,-0.22536058077 0,-0.10817307 -0.09014,-0.1171875 -0.16226,-0.1171875 -0.279447,-0.0270433 -0.504807,-0.12620192 -0.504807,-0.41466346 0,-0.16225961 0.07212,-0.29747594 0.22536,-0.55889424 l 0.910457,-1.5054086 h 3.046875 c 0.009,0.108173 0.009,0.2073317 0.02704,0.3155048 0.03606,0.3064903 0.180289,1.55048073 0.180289,1.77584131 0,0.36057692 -0.612981,0.38762019 -0.802284,0.38762019 -0.135216,0 -0.261418,0 -0.261418,0.20733173 0,0.13521635077 0.108173,0.13521635077 0.180288,0.13521635077 0.198318,0 0.441707,-0.0270432708 0.640024,-0.0270432708 h 0.685096 c 0.730169,0 1.253005,0.0270432708 1.26202,0.0270432708 0.09014,0 0.216346,0 0.216346,-0.22536058077 0,-0.1171875 -0.108173,-0.1171875 -0.288462,-0.1171875 -0.658053,0 -0.667067,-0.10817307 -0.703125,-0.46875 l -0.730168,-7.4639423 c -0.01803,-0.234375 -0.07212,-0.2614183 -0.198317,-0.2614183 -0.126202,0 -0.198318,0.027043 -0.297476,0.2073318 z m 1.442308,-1.8389423 2.397836,-4.0204327 0.405649,4.0204327 z m 0,0"
         style="fill:#000000;fill-opacity:1;fill-rule:nonzero;stroke:none" />
      <path
         id="path7"
         d="m 38.682464,-2.9744591 c 0,-0.9104568 -0.117188,-2.3888222 -0.793269,-3.7770433 -0.703125,-1.4332933 -1.685697,-2.2175481 -1.811899,-2.2175481 -0.04507,0 -0.108173,0.027043 -0.108173,0.099159 0,0.036058 0,0.063101 0.198317,0.2614182 1.198918,1.2079327 1.865985,3.1820914 1.865985,5.6159856 0,2.32572117 -0.558894,4.3179087 -1.947115,5.7331731 -0.117187,0.1081731 -0.117187,0.1262019 -0.117187,0.1622596 0,0.072115 0.0631,0.099159 0.108173,0.099159 0.153245,0 1.135817,-0.8653847 1.721754,-2.03725965 0.603967,-1.21694712 0.883414,-2.50600965 0.883414,-3.93930345 z m 0,0"
         style="fill:#000000;fill-opacity:1;fill-rule:nonzero;stroke:none" />
      <path
         id="path8"
         d="m 44.828047,-2.992488 c 0,-0.3425481 -0.288462,-0.6310096 -0.640024,-0.6310096 -0.342548,0 -0.63101,0.2884615 -0.63101,0.6310096 0,0.3515625 0.288462,0.6400241 0.63101,0.6400241 0.351562,0 0.640024,-0.2884616 0.640024,-0.6400241 z m 0,0"
         style="fill:#000000;fill-opacity:1;fill-rule:nonzero;stroke:none" />
      <path
         id="path9"
         d="m 52.037332,-3.8037861 h 2.010216 c 1.649639,0 3.299279,-1.2169471 3.299279,-2.578125 0,-0.9375 -0.784255,-1.7848557 -2.289664,-1.7848557 H 51.36125 c -0.225361,0 -0.333534,0 -0.333534,0.234375 0,0.1171875 0.108173,0.1171875 0.288462,0.1171875 0.721154,0 0.721154,0.090144 0.721154,0.2253605 0,0.027043 0,0.099159 -0.04507,0.2704327 l -1.613582,6.43629812 c -0.108173,0.41466346 -0.126202,0.54086538 -0.964543,0.54086538 -0.225361,0 -0.351563,0 -0.351563,0.20733173 0,0.13521635077 0.108173,0.13521635077 0.180289,0.13521635077 0.22536,0 0.46875,-0.0270432708 0.69411,-0.0270432708 h 1.397236 c 0.22536,0 0.477764,0.0270432708 0.703125,0.0270432708 0.09916,0 0.234375,0 0.234375,-0.22536058077 0,-0.1171875 -0.108173,-0.1171875 -0.288462,-0.1171875 -0.721154,0 -0.730168,-0.0901442 -0.730168,-0.20733173 0,-0.063101 0.009,-0.14423077 0.02704,-0.20733173 z m 0.865384,-3.5426682 c 0.108173,-0.4507212 0.153246,-0.46875 0.621996,-0.46875 h 1.180889 c 0.901442,0 1.640625,0.2884615 1.640625,1.1808894 0,0.3155048 -0.153245,1.3251202 -0.703125,1.875 -0.207332,0.2163461 -0.784255,0.6760817 -1.865986,0.6760817 h -1.685697 z m 0,0"
         style="fill:#000000;fill-opacity:1;fill-rule:nonzero;stroke:none" />
      <path
         id="path10"
         d="m 61.56107,2.9029447 c 0,-0.036058 0,-0.054086 -0.207332,-0.2614183 -1.189904,-1.2079327 -1.856971,-3.1820913 -1.856971,-5.6159855 0,-2.3167068 0.558894,-4.3179087 1.947115,-5.7241587 0.117188,-0.1081731 0.117188,-0.1352163 0.117188,-0.171274 0,-0.072115 -0.0631,-0.099159 -0.108173,-0.099159 -0.153246,0 -1.135818,0.8653846 -1.721755,2.0372596 -0.612981,1.2079327 -0.883414,2.4879808 -0.883414,3.9573318 0,1.0637019 0.171274,2.48798073 0.784255,3.76802881 0.71214,1.43329329 1.685697,2.20853369 1.820914,2.20853369 0.04507,0 0.108173,-0.027043 0.108173,-0.099158 z m 0,0"
         style="fill:#000000;fill-opacity:1;fill-rule:nonzero;stroke:none" />
      <path
         id="path11"
         d="m 64.256382,-1.3248197 c -0.414663,0.70312499 -0.820312,0.94651441 -1.397235,0.9825721 -0.126202,0.009014 -0.225361,0.009014 -0.225361,0.22536058 0,0.07211539 0.0631,0.11718750077 0.144231,0.11718750077 0.216346,0 0.757211,-0.0270432708 0.964543,-0.0270432708 0.351563,0 0.730168,0.0270432708 1.063702,0.0270432708 0.07211,0 0.216346,0 0.216346,-0.22536058077 0,-0.10817307 -0.09014,-0.1171875 -0.162259,-0.1171875 -0.279448,-0.0270433 -0.504808,-0.12620192 -0.504808,-0.41466346 0,-0.16225961 0.07211,-0.29747594 0.22536,-0.55889424 l 0.910457,-1.5054086 h 3.046875 c 0.009,0.108173 0.009,0.2073317 0.02704,0.3155048 0.03606,0.3064903 0.180289,1.55048073 0.180289,1.77584131 0,0.36057692 -0.612981,0.38762019 -0.802284,0.38762019 -0.135216,0 -0.261418,0 -0.261418,0.20733173 0,0.13521635077 0.108173,0.13521635077 0.180288,0.13521635077 0.198318,0 0.441707,-0.0270432708 0.640024,-0.0270432708 h 0.685097 c 0.730168,0 1.253004,0.0270432708 1.262019,0.0270432708 0.09014,0 0.216346,0 0.216346,-0.22536058077 0,-0.1171875 -0.108173,-0.1171875 -0.288462,-0.1171875 -0.658052,0 -0.667067,-0.10817307 -0.703125,-0.46875 l -0.730168,-7.4639423 c -0.01803,-0.234375 -0.07211,-0.2614183 -0.198317,-0.2614183 -0.126202,0 -0.198317,0.027043 -0.297476,0.2073318 z m 1.442308,-1.8389423 2.397836,-4.0204327 0.405649,4.0204327 z m 0,0"
         style="fill:#000000;fill-opacity:1;fill-rule:nonzero;stroke:none" />
      <path
         id="path12"
         d="m 74.375072,-2.9744591 c 0,-0.9104568 -0.117187,-2.3888222 -0.793269,-3.7770433 -0.703125,-1.4332933 -1.685697,-2.2175481 -1.811899,-2.2175481 -0.04507,0 -0.108173,0.027043 -0.108173,0.099159 0,0.036058 0,0.063101 0.198317,0.2614182 1.198918,1.2079327 1.865986,3.1820914 1.865986,5.6159856 0,2.32572117 -0.558895,4.3179087 -1.947116,5.7331731 -0.117187,0.1081731 -0.117187,0.1262019 -0.117187,0.1622596 0,0.072115 0.0631,0.099159 0.108173,0.099159 0.153245,0 1.135817,-0.8653847 1.721755,-2.03725965 0.603966,-1.21694712 0.883413,-2.50600965 0.883413,-3.93930345 z m 0,0"
         style="fill:#000000;fill-opacity:1;fill-rule:nonzero;stroke:none" />
    </g>
    <g
       id="g12"
       aria-label="P(B)"
       transform="matrix(1.7333333,0,0,1.7333333,275.07333,118.90933)">
      <path
         id="path13"
         d="M 3.5341647,-3.8036118 H 5.544381 c 1.6496394,0 3.2992789,-1.2169471 3.2992789,-2.578125 0,-0.9375 -0.7842549,-1.7848557 -2.2896635,-1.7848557 H 2.8580829 c -0.2253605,0 -0.3335336,0 -0.3335336,0.234375 0,0.1171875 0.1081731,0.1171875 0.2884615,0.1171875 0.7211539,0 0.7211539,0.090144 0.7211539,0.2253605 0,0.027043 0,0.099159 -0.045072,0.2704327 L 1.875511,-0.8829387 c -0.1081731,0.41466346 -0.1262019,0.54086538 -0.96454325,0.54086538 -0.22536058,0 -0.3515625,0 -0.3515625,0.20733173 0,0.13521634962 0.10817307,0.13521634962 0.18028846,0.13521634962 0.22536058,0 0.46874999,-0.0270432696 0.69411059,-0.0270432696 h 1.3972356 c 0.2253605,0 0.4777644,0.0270432696 0.703125,0.0270432696 0.099159,0 0.234375,0 0.234375,-0.22536057962 0,-0.1171875 -0.1081731,-0.1171875 -0.2884616,-0.1171875 -0.7211538,0 -0.7301682,-0.0901442 -0.7301682,-0.20733173 0,-0.063101 0.00901,-0.14423077 0.027043,-0.20733173 z M 4.3995493,-7.34628 c 0.1081731,-0.4507212 0.1532452,-0.46875 0.6219952,-0.46875 h 1.1808894 c 0.9014423,0 1.640625,0.2884615 1.640625,1.1808894 0,0.3155048 -0.1532452,1.3251202 -0.703125,1.875 -0.2073317,0.2163461 -0.7842548,0.6760817 -1.8659856,0.6760817 H 3.5882512 Z m 0,0"
         style="fill:#000000;fill-opacity:1;fill-rule:nonzero;stroke:none" />
      <path
         id="path14"
         d="m 13.055649,2.903119 c 0,-0.036058 0,-0.054086 -0.207332,-0.2614183 -1.189904,-1.2079327 -1.856971,-3.18209133 -1.856971,-5.6159856 0,-2.3167067 0.558894,-4.3179086 1.947116,-5.7241586 0.117187,-0.1081731 0.117187,-0.1352164 0.117187,-0.171274 0,-0.072115 -0.0631,-0.099159 -0.108173,-0.099159 -0.153245,0 -1.135817,0.8653846 -1.721755,2.0372596 -0.612981,1.2079327 -0.883413,2.4879808 -0.883413,3.9573317 0,1.063702 0.171274,2.48798081 0.784254,3.76802889 0.71214,1.43329331 1.685698,2.20853361 1.820914,2.20853361 0.04507,0 0.108173,-0.027043 0.108173,-0.099158 z m 0,0"
         style="fill:#000000;fill-opacity:1;fill-rule:nonzero;stroke:none" />
      <path
         id="path15"
         d="m 18.094712,-7.34628 c 0.108173,-0.4507212 0.162259,-0.46875 0.621995,-0.46875 h 1.559495 c 1.343149,0 1.343149,1.1448317 1.343149,1.2530048 0,0.9645432 -0.964543,2.1995192 -2.542067,2.1995192 h -1.721755 z m 2.01923,3.0829326 c 1.307092,-0.2433894 2.487981,-1.1538461 2.487981,-2.2536057 0,-0.9284856 -0.820312,-1.6496394 -2.172476,-1.6496394 h -3.840144 c -0.225361,0 -0.333534,0 -0.333534,0.234375 0,0.1171875 0.108173,0.1171875 0.288462,0.1171875 0.730168,0 0.730168,0.090144 0.730168,0.2253605 0,0.027043 0,0.099159 -0.04507,0.2704327 l -1.613582,6.4362981 c -0.108173,0.41466346 -0.135216,0.54086538 -0.973558,0.54086538 -0.22536,0 -0.342548,0 -0.342548,0.20733173 0,0.13521634962 0.07212,0.13521634962 0.306491,0.13521634962 h 4.101562 c 1.829928,0 3.236178,-1.38822115962 3.236178,-2.59615385962 0,-0.9735577 -0.85637,-1.577524 -1.829928,-1.6676683 z m -1.694711,3.92127408 h -1.613582 c -0.16226,0 -0.189303,0 -0.261418,-0.0180288 C 16.409014,-0.36911659 16.4,-0.39615986 16.4,-0.48630409 c 0,-0.0901442 0.02704,-0.16225961 0.04507,-0.27043269 l 0.838341,-3.36237982 h 2.244592 c 1.415264,0 1.415264,1.3070914 1.415264,1.40625 0,1.1448317 -1.036658,2.37079328 -2.524038,2.37079328 z m 0,0"
         style="fill:#000000;fill-opacity:1;fill-rule:nonzero;stroke:none" />
      <path
         id="path16"
         d="m 26.586298,-2.9742849 c 0,-0.9104567 -0.117187,-2.3888221 -0.793269,-3.7770432 -0.703125,-1.4332933 -1.685697,-2.2175481 -1.811899,-2.2175481 -0.04507,0 -0.108173,0.027043 -0.108173,0.099159 0,0.036058 0,0.063101 0.198317,0.2614182 1.198918,1.2079327 1.865986,3.1820914 1.865986,5.6159856 0,2.32572115 -0.558895,4.3179087 -1.947116,5.7331731 -0.117187,0.1081731 -0.117187,0.1262019 -0.117187,0.1622596 0,0.072115 0.0631,0.099159 0.108173,0.099159 0.153245,0 1.135817,-0.8653846 1.721755,-2.03725957 0.603966,-1.21694712 0.883413,-2.50600963 0.883413,-3.93930363 z m 0,0"
         style="fill:#000000;fill-opacity:1;fill-rule:nonzero;stroke:none" />
    </g>
    <path
       id="path17"
       d="m 8.0680829,-3.8769832 c 0.1712741,0 0.3786058,0 0.3786058,-0.2073317 0,-0.234375 -0.1983173,-0.234375 -0.3786058,-0.234375 H 1.0278185 c -0.17127403,0 -0.37860576,0 -0.37860576,0.2163462 0,0.2253605 0.19831731,0.2253605 0.37860576,0.2253605 z m 0,2.2265625 c 0.1712741,0 0.3786058,0 0.3786058,-0.2163461 0,-0.2253606 -0.1983173,-0.2253606 -0.3786058,-0.2253606 H 1.0278185 c -0.17127403,0 -0.37860576,0 -0.37860576,0.2163462 0,0.2253605 0.19831731,0.2253605 0.37860576,0.2253605 z m 0,0"
       style="fill:#000000;fill-opacity:1;fill-rule:nonzero;stroke:none"
       aria-label="="
       transform="matrix(1.7333333,0,0,1.7333333,192.54267,92.446667)" />
    <g
       id="g17"
       aria-label="P(A|B)"
       transform="matrix(1.7333333,0,0,1.7333333,106.3,93.888)">
      <path
         id="path18"
         d="m 3.5341046,-3.8048257 h 2.0102163 c 1.6496394,0 3.2992789,-1.2169471 3.2992789,-2.578125 0,-0.9375 -0.7842548,-1.7848558 -2.2896635,-1.7848558 H 2.8580228 c -0.2253605,0 -0.3335336,0 -0.3335336,0.234375 0,0.1171875 0.1081731,0.1171875 0.2884615,0.1171875 0.7211539,0 0.7211539,0.090144 0.7211539,0.2253606 0,0.027043 0,0.099159 -0.045072,0.2704327 l -1.6135818,6.43629806 c -0.1081731,0.41466346 -0.1262019,0.54086538 -0.96454325,0.54086538 -0.22536058,0 -0.3515625,0 -0.3515625,0.20733173 0,0.13521634731 0.10817308,0.13521634731 0.18028846,0.13521634731 0.22536058,0 0.46874999,-0.0270432673 0.69411059,-0.0270432673 h 1.3972356 c 0.2253605,0 0.4777644,0.0270432673 0.703125,0.0270432673 0.099159,0 0.234375,0 0.234375,-0.22536057731 0,-0.1171875 -0.1081731,-0.1171875 -0.2884616,-0.1171875 -0.7211538,0 -0.7301682,-0.0901442 -0.7301682,-0.20733173 0,-0.063101 0.00901,-0.14423077 0.027043,-0.20733173 z M 4.3994892,-7.347494 c 0.1081731,-0.4507211 0.1532452,-0.46875 0.6219952,-0.46875 h 1.1808894 c 0.9014423,0 1.640625,0.2884615 1.640625,1.1808894 0,0.3155048 -0.1532452,1.3251202 -0.703125,1.875 -0.2073317,0.2163462 -0.7842548,0.6760818 -1.8659856,0.6760818 H 3.5881911 Z m 0,0"
         style="fill:#000000;fill-opacity:1;fill-rule:nonzero;stroke:none" />
      <path
         id="path19"
         d="m 13.055589,2.901905 c 0,-0.036058 0,-0.054087 -0.207332,-0.2614182 -1.189904,-1.2079327 -1.856971,-3.18209137 -1.856971,-5.6159856 0,-2.3167067 0.558894,-4.3179087 1.947115,-5.7241587 0.117188,-0.108173 0.117188,-0.1352163 0.117188,-0.171274 0,-0.072115 -0.0631,-0.099159 -0.108173,-0.099159 -0.153245,0 -1.135817,0.8653846 -1.721755,2.0372596 -0.612981,1.2079327 -0.883413,2.4879807 -0.883413,3.9573317 0,1.0637019 0.171274,2.48798077 0.784254,3.76802885 0.71214,1.43329325 1.685698,2.20853365 1.820914,2.20853365 0.04507,0 0.108173,-0.027043 0.108173,-0.099158 z m 0,0"
         style="fill:#000000;fill-opacity:1;fill-rule:nonzero;stroke:none" />
      <path
         id="path20"
         d="m 15.750901,-1.3258594 c -0.414663,0.70312502 -0.820312,0.94651445 -1.397235,0.98257214 -0.126202,0.009014 -0.225361,0.009014 -0.225361,0.22536058 0,0.07211538 0.0631,0.11718749731 0.144231,0.11718749731 0.216346,0 0.757212,-0.0270432673 0.964543,-0.0270432673 0.351563,0 0.730169,0.0270432673 1.063702,0.0270432673 0.07212,0 0.216346,0 0.216346,-0.22536057731 0,-0.10817308 -0.09014,-0.1171875 -0.162259,-0.1171875 -0.279447,-0.0270433 -0.504808,-0.12620192 -0.504808,-0.41466346 0,-0.16225962 0.07212,-0.29747598 0.225361,-0.55889428 l 0.910456,-1.5054086 h 3.046875 c 0.009,0.1081731 0.009,0.2073317 0.02704,0.3155048 0.03606,0.3064904 0.180288,1.55048077 0.180288,1.77584135 0,0.36057692 -0.612981,0.38762019 -0.802284,0.38762019 -0.135216,0 -0.261418,0 -0.261418,0.20733173 0,0.13521634731 0.108173,0.13521634731 0.180289,0.13521634731 0.198317,0 0.441706,-0.0270432673 0.640024,-0.0270432673 h 0.685096 c 0.730168,0 1.253005,0.0270432673 1.262019,0.0270432673 0.09014,0 0.216346,0 0.216346,-0.22536057731 0,-0.1171875 -0.108173,-0.1171875 -0.288461,-0.1171875 -0.658053,0 -0.667068,-0.10817308 -0.703125,-0.46875 L 20.438401,-8.2759796 c -0.01803,-0.234375 -0.07212,-0.2614182 -0.198317,-0.2614182 -0.126202,0 -0.198317,0.027043 -0.297476,0.2073317 z m 1.442308,-1.8389423 2.397837,-4.0204327 0.405649,4.0204327 z m 0,0"
         style="fill:#000000;fill-opacity:1;fill-rule:nonzero;stroke:none" />
      <path
         id="path21"
         d="m 24.40024,-8.5373978 c 0,-0.2163462 0,-0.4326923 -0.243389,-0.4326923 -0.234375,0 -0.234375,0.2163461 -0.234375,0.4326923 V 2.559357 c 0,0.2163461 0,0.4326923 0.234375,0.4326923 0.243389,0 0.243389,-0.2163462 0.243389,-0.4326923 z m 0,0"
         style="fill:#000000;fill-opacity:1;fill-rule:nonzero;stroke:none" />
      <path
         id="path22"
         d="m 30.192007,-7.347494 c 0.108173,-0.4507211 0.16226,-0.46875 0.621995,-0.46875 h 1.559496 c 1.343149,0 1.343149,1.1448317 1.343149,1.2530048 0,0.9645433 -0.964544,2.1995192 -2.542068,2.1995192 h -1.721754 z m 2.019231,3.0829327 c 1.307091,-0.2433894 2.487981,-1.1538462 2.487981,-2.2536058 0,-0.9284855 -0.820313,-1.6496394 -2.172476,-1.6496394 h -3.840144 c -0.225361,0 -0.333534,0 -0.333534,0.234375 0,0.1171875 0.108173,0.1171875 0.288461,0.1171875 0.730169,0 0.730169,0.090144 0.730169,0.2253606 0,0.027043 0,0.099159 -0.04507,0.2704327 l -1.613582,6.43629806 c -0.108173,0.41466346 -0.135216,0.54086538 -0.973558,0.54086538 -0.22536,0 -0.342548,0 -0.342548,0.20733173 0,0.13521634731 0.07212,0.13521634731 0.30649,0.13521634731 h 4.101563 c 1.829928,0 3.236178,-1.38822111731 3.236178,-2.59615381731 0,-0.9735577 -0.85637,-1.5775241 -1.829928,-1.6676683 z m -1.694712,3.92127404 h -1.613581 c -0.16226,0 -0.189303,0 -0.261419,-0.0180289 -0.135216,-0.009014 -0.14423,-0.0360577 -0.14423,-0.12620192 0,-0.0901442 0.02704,-0.16225961 0.04507,-0.27043269 L 29.380709,-4.1203305 H 31.6253 c 1.415265,0 1.415265,1.3070913 1.415265,1.40625 0,1.1448317 -1.036659,2.37079324 -2.524039,2.37079324 z m 0,0"
         style="fill:#000000;fill-opacity:1;fill-rule:nonzero;stroke:none" />
      <path
         id="path23"
         d="m 38.68134,-2.9754988 c 0,-0.9104567 -0.117187,-2.3888221 -0.793269,-3.7770433 -0.703125,-1.4332932 -1.685697,-2.217548 -1.811899,-2.217548 -0.04507,0 -0.108173,0.027043 -0.108173,0.099159 0,0.036058 0,0.063101 0.198317,0.2614183 1.198918,1.2079327 1.865986,3.1820913 1.865986,5.6159856 0,2.32572111 -0.558895,4.3179086 -1.947116,5.733173 -0.117187,0.1081731 -0.117187,0.126202 -0.117187,0.1622596 0,0.072115 0.0631,0.099159 0.108173,0.099159 0.153245,0 1.135817,-0.8653846 1.721755,-2.03725961 0.603966,-1.21694712 0.883413,-2.50600959 0.883413,-3.93930359 z m 0,0"
         style="fill:#000000;fill-opacity:1;fill-rule:nonzero;stroke:none" />
    </g>
    <path
       id="path24"
       d="m 2.6512861,-2.6869471 h 1.6496394 c 1.2800481,0 2.34375,-0.6490385 2.34375,-1.7127404 0,-0.9825721 -0.9014423,-1.7578125 -2.4338943,-1.7578125 H 0.37965144 v 0.4417067 H 1.3441947 v 5.27343753 H 0.37965144 V -6.4903846e-4 C 0.69515625,-0.02769231 1.6236418,-0.02769231 1.9932332,-0.02769231 c 0.3695913,0 1.3070913,0 1.6225961,0.0270432715 V -0.44235577 H 2.6512861 Z m 1.2169471,-3.0288462 c 1.3701923,0 1.3701923,0.6850962 1.3701923,1.3161058 0,0.6310096 0,1.3251202 -1.3792068,1.3251202 H 2.5971995 v -2.641226 z m 8.0836838,3.7590145 c 0,-1.171875 -0.820312,-2.109375 -2.3437499,-2.109375 -1.5865385,0 -2.3617789,0.9825721 -2.3617789,2.109375 0,1.10877399 0.8022837,2.0102163 2.3527644,2.0102163 1.6045674,0 2.3527644,-0.94651442 2.3527644,-2.0102163 z m -2.3437499,1.62259611 c -1.171875,0 -1.171875,-0.93750001 -1.171875,-1.72175481 0,-0.7481971 0,-1.6496394 1.1628605,-1.6496394 1.1628604,0 1.1628604,0.9014423 1.1628604,1.6496394 0,0.7752404 0,1.72175481 -1.1538459,1.72175481 z M 15.814597,-3.8047356 c 0,-0.1622596 0,-0.2614182 -0.180288,-0.2614182 -0.09014,0 -0.234375,0.072115 -0.396635,0.1622596 -0.288461,-0.126202 -0.631009,-0.1622596 -0.928485,-0.1622596 -0.279447,0 -1.703726,0 -1.703726,1.1899038 0,0.9375 1.171875,1.1358173 1.48738,1.1899038 0.739182,0.126202 1.32512,0.2253606 1.32512,0.73918274 0,0.64002404 -0.838342,0.64002404 -1.036659,0.64002404 -0.459735,0 -1.045673,-0.1171875 -1.298077,-0.93749998 -0.04507,-0.1532452 -0.05409,-0.1802885 -0.243389,-0.1802885 -0.234375,0 -0.234375,0.054087 -0.234375,0.2704327 v 0.94651443 c 0,0.16225962 0,0.26141827 0.180288,0.26141827 0.0631,0 0.08113,0 0.279447,-0.12620192 l 0.234375,-0.1532452 c 0.423678,0.27944712 0.901443,0.27944712 1.081731,0.27944712 0.270433,0 1.703726,0 1.703726,-1.3070913 0,-0.4597356 -0.261418,-0.7481972 -0.423678,-0.8834135 -0.405649,-0.3425481 -0.69411,-0.3876202 -1.397235,-0.5048077 -0.432693,-0.063101 -1.000601,-0.1532452 -1.000601,-0.5588942 0,-0.5408654 0.838341,-0.5408654 1.036658,-0.5408654 1.000601,0 1.036659,0.5318509 1.054688,0.7752404 0.009,0.1262019 0.135216,0.1262019 0.22536,0.1262019 0.225361,0 0.234375,-0.045072 0.234375,-0.2614183 z m 2.625451,0.2614183 h 1.352164 V -3.985024 h -1.352164 v -1.7127404 h -0.459736 c -0.009,0.8473557 -0.432692,1.7668269 -1.343149,1.7938702 v 0.3605769 h 0.748198 v 2.4429086 c 0,1.01862985 0.892427,1.1538462 1.451322,1.1538462 0.69411,0 1.126803,-0.50480769 1.126803,-1.1538462 V -1.5781731 H 19.50375 v 0.4507212 c 0,0.63100959 -0.324519,0.79326921 -0.540865,0.79326921 -0.522837,0 -0.522837,-0.54086539 -0.522837,-0.74819711 z m 6.397987,1.6135817 c 0.189303,0 0.288461,0 0.288461,-0.2524038 0,-0.1983173 -0.01803,-0.9825721 -0.594952,-1.469351 -0.405649,-0.3335336 -0.946514,-0.4146634 -1.379206,-0.4146634 -1.541467,0 -2.289664,0.9735576 -2.289664,2.046274 0,1.17187499 0.883414,2.0733173 2.406851,2.0733173 1.48738,0 1.856971,-0.94651442 1.856971,-1.0907452 0,-0.1802885 -0.171274,-0.1802885 -0.22536,-0.1802885 -0.16226,0 -0.180289,0.054087 -0.234375,0.1802885 -0.207332,0.45973558 -0.757212,0.70312501 -1.32512,0.70312501 -1.271034,0 -1.289063,-1.15384611 -1.289063,-1.59555291 z m -2.785457,-0.3245192 c 0.01803,-0.4146635 0.0631,-1.4513221 1.09976,-1.4513221 1.045673,0 1.081731,1.0907452 1.099759,1.4513221 z m 5.356821,0.297476 c 0,-0.6580529 0.243389,-1.6947116 1.108774,-1.7217549 -0.09916,0.099159 -0.144231,0.2524039 -0.144231,0.3966347 0,0.3966346 0.315505,0.576923 0.567909,0.576923 0.288461,0 0.576923,-0.1983173 0.576923,-0.576923 0,-0.4597356 -0.46875,-0.7572116 -1.000601,-0.7572116 -0.621995,0 -1.009615,0.4597356 -1.207933,0.9825721 h -0.009 v -0.9825721 l -1.496394,0.072115 v 0.4417067 c 0.531851,0 0.603966,0 0.603966,0.3515625 v 2.73137023 h -0.60398 V -6.4903846e-4 C 26.462885,-0.02769231 26.516971,-0.02769231 26.949663,-0.02769231 c 0.225361,0 0.748198,0 1.216948,0.0270432715 V -0.44235577 h -0.757212 z m 4.556791,-3.5697116 c 0,-0.46875 -0.378606,-0.7121394 -0.703125,-0.7121394 -0.414664,0 -0.703125,0.3515625 -0.703125,0.703125 0,0.3786058 0.297476,0.7121394 0.703125,0.7121394 0.342548,0 0.703125,-0.2704327 0.703125,-0.703125 z m -1.658654,1.5594952 v 0.4417067 c 0.513822,0 0.576923,0 0.576923,0.3515625 v 2.73137023 H 30.280493 V -6.4903846e-4 C 30.875445,-0.01867788 30.992632,-0.02769231 31.371238,-0.02769231 c 0.441707,0 0.558894,0.0090144 1.063702,0.0270432715 V -0.44235577 H 31.88506 V -4.0391106 Z m 7.454928,2.0102164 c 0,-1.171875 -0.820313,-2.109375 -2.34375,-2.109375 -1.586539,0 -2.361779,0.9825721 -2.361779,2.109375 0,1.10877399 0.802284,2.0102163 2.352765,2.0102163 1.604567,0 2.352764,-0.94651442 2.352764,-2.0102163 z m -2.34375,1.62259611 c -1.171875,0 -1.171875,-0.93750001 -1.171875,-1.72175481 0,-0.7481971 0,-1.6496394 1.162861,-1.6496394 1.16286,0 1.16286,0.9014423 1.16286,1.6496394 0,0.7752404 0,1.72175481 -1.153846,1.72175481 z m 4.619892,-1.62259611 c 0,-0.6580529 0.243389,-1.6947116 1.108774,-1.7217549 -0.09916,0.099159 -0.144231,0.2524039 -0.144231,0.3966347 0,0.3966346 0.315505,0.576923 0.567909,0.576923 0.288461,0 0.576923,-0.1983173 0.576923,-0.576923 0,-0.4597356 -0.46875,-0.7572116 -1.000601,-0.7572116 -0.621995,0 -1.009616,0.4597356 -1.207933,0.9825721 h -0.009 v -0.9825721 l -1.496395,0.072115 v 0.4417067 c 0.531851,0 0.603967,0 0.603967,0.3515625 v 2.73137023 H 38.434038 V -6.4903846e-4 C 39.092091,-0.02769231 39.146178,-0.02769231 39.57887,-0.02769231 c 0.225361,0 0.748197,0 1.216947,0.0270432715 V -0.44235577 h -0.757211 z m 0,0"
       style="fill:#0000ff;fill-opacity:1;fill-rule:nonzero;stroke:none"
       aria-label="Posterior"
       transform="matrix(1.7333333,0,0,1.7333333,5.756,151.548)" />
    <path
       id="path25"
       d="m -180.3646,-34.46658 26.09174,18.53984"
       style="fill:none;stroke:#0000b3;stroke-width:0.79701;stroke-linecap:butt;stroke-linejoin:miter;stroke-miterlimit:10;stroke-dasharray:none;stroke-opacity:1"
       transform="matrix(1.3333333,0,0,-1.3333333,299.14133,88.708)" />
    <path
       id="path26"
       d="M 4.53381,0 C 3.97704,0.13808 1.52963,0.92049 0,1.77196 V -1.77196 C 1.52963,-0.92049 3.97704,-0.13808 4.53381,0 Z"
       style="fill:#0000b3;fill-opacity:1;fill-rule:nonzero;stroke:#0000b3;stroke-width:0.79701;stroke-linecap:butt;stroke-linejoin:miter;stroke-miterlimit:10;stroke-dasharray:none;stroke-opacity:1"
       transform="matrix(1.0868267,-0.77226667,-0.77226667,-1.0868267,93.444173,109.94368)" />
    <path
       id="path27"
       d="M 5.9313882,-2.4796154 H 5.4716526 c -0.072115,0.6219952 -0.2253605,2.03725963 -1.8659855,2.03725963 H 2.6501382 V -5.7157933 H 3.8580709 V -6.1575 c -0.3695913,0.027043 -1.3792067,0.027043 -1.8028846,0.027043 -0.3786058,0 -1.36117789,0 -1.67668269,-0.027043 v 0.4417067 H 1.3430469 v 5.27343753 H 0.37850361 V -6.4903846e-4 H 5.6519411 Z m 2.5961539,-3.046875 c 0,-0.46875 -0.3786058,-0.7121394 -0.703125,-0.7121394 -0.4146635,0 -0.703125,0.3515625 -0.703125,0.703125 0,0.3786058 0.2974759,0.7121394 0.703125,0.7121394 0.342548,0 0.703125,-0.2704327 0.703125,-0.703125 z m -1.6586539,1.5594952 v 0.4417067 c 0.5138221,0 0.5769231,0 0.5769231,0.3515625 v 2.73137023 H 6.841845 V -6.4903846e-4 C 7.4367969,-0.01867788 7.5539844,-0.02769231 7.9325901,-0.02769231 c 0.4417068,0 0.5588943,0.0090144 1.063702,0.0270432715 V -0.44235577 H 8.4464123 V -4.0391106 Z m 5.6249998,1.4873798 1.225962,-0.9104567 c 0.108173,-0.08113 0.198317,-0.1532452 0.784255,-0.1532452 V -3.985024 c -0.288462,0.027043 -0.54988,0.027043 -0.730169,0.027043 -0.234375,0 -0.585937,-0.00901 -1.009615,-0.027043 v 0.4417067 c 0.171274,0 0.198317,0.027043 0.252404,0.099159 l -1.721755,1.307091 V -6.2296154 L 9.6904026,-6.1575 v 0.4417067 c 0.5318514,0 0.6039664,0 0.6039664,0.3515625 v 4.92187503 H 9.6904026 V -6.4903846e-4 C 10.249297,-0.01867788 10.384513,-0.02769231 10.763119,-0.02769231 c 0.38762,0 0.486779,0 1.090745,0.0270432715 V -0.44235577 H 11.240883 V -1.5240865 l 0.54988,-0.4056491 c 0.02704,0.036058 1.171875,1.36117791 1.171875,1.40625002 0,0.0811298 -0.144231,0.0811298 -0.243389,0.0811298 V -6.4903846e-4 C 13.2511,-0.01867788 13.494489,-0.02769231 13.80098,-0.02769231 c 0.342548,0 0.585937,0 0.946514,0.0270432715 V -0.44235577 c -0.144231,0 -0.324519,0 -0.423678,-0.009014 -0.135216,-0.0270433 -0.171274,-0.063101 -0.252404,-0.16225962 z m 6.402494,0.5498798 c 0.189303,0 0.288462,0 0.288462,-0.2524038 0,-0.1983173 -0.01803,-0.9825721 -0.594952,-1.469351 -0.405649,-0.3335336 -0.946515,-0.4146634 -1.379207,-0.4146634 -1.541466,0 -2.289663,0.9735576 -2.289663,2.046274 0,1.17187499 0.883413,2.0733173 2.406851,2.0733173 1.487379,0 1.856971,-0.94651442 1.856971,-1.0907452 0,-0.1802885 -0.171274,-0.1802885 -0.225361,-0.1802885 -0.162259,0 -0.180288,0.054087 -0.234375,0.1802885 -0.207332,0.45973558 -0.757211,0.70312501 -1.32512,0.70312501 -1.271034,0 -1.289063,-1.15384611 -1.289063,-1.59555291 z m -2.785457,-0.3245192 c 0.01803,-0.4146635 0.0631,-1.4513221 1.09976,-1.4513221 1.045673,0 1.081731,1.0907452 1.09976,1.4513221 z m 5.45598,-3.9753606 -1.604567,0.072115 v 0.4417067 c 0.531851,0 0.603966,0 0.603966,0.3515625 v 4.92187503 H 19.962338 V -6.4903846e-4 C 20.566304,-0.02769231 20.674477,-0.02769231 21.062097,-0.02769231 c 0.396635,0 0.63101,0.0090144 1.117789,0.0270432715 V -0.44235577 h -0.612981 z m 3.028846,0.703125 c 0,-0.46875 -0.378606,-0.7121394 -0.703125,-0.7121394 -0.414663,0 -0.703125,0.3515625 -0.703125,0.703125 0,0.3786058 0.297476,0.7121394 0.703125,0.7121394 0.342548,0 0.703125,-0.2704327 0.703125,-0.703125 z m -1.658654,1.5594952 v 0.4417067 c 0.513822,0 0.576923,0 0.576923,0.3515625 v 2.73137023 h -0.603966 v 0.44170673154 c 0.594952,-0.0180288415 0.71214,-0.0270432715 1.090745,-0.0270432715 0.441707,0 0.558895,0.0090144 1.063702,0.0270432715 V -0.44235577 h -0.54988 V -4.0391106 Z m 7.488732,1.234976 c 0,-1.0727164 -0.640024,-1.3070914 -1.424279,-1.3070914 -0.85637,0 -1.32512,0.4867789 -1.559495,0.8563702 v -3.046875 L 25.837488,-6.1575 v 0.4417067 c 0.531851,0 0.603966,0 0.603966,0.3515625 v 4.92187503 H 25.837488 V -6.4903846e-4 C 26.495541,-0.02769231 26.603714,-0.02769231 26.964291,-0.02769231 c 0.369591,0 0.459735,0 1.135817,0.0270432715 V -0.44235577 H 27.496142 V -2.2812981 c 0,-1.0006009 0.820312,-1.3972356 1.361178,-1.3972356 0.342548,0 0.522836,0.1893029 0.522836,0.8653847 v 2.37079323 H 28.767175 V -6.4903846e-4 C 29.434243,-0.02769231 29.542416,-0.02769231 29.893978,-0.02769231 c 0.369592,0 0.459736,0 1.144832,0.0270432715 V -0.44235577 h -0.612981 z m 5.859375,0.7752404 c 0,-1.171875 -0.820312,-2.109375 -2.34375,-2.109375 -1.586538,0 -2.361779,0.9825721 -2.361779,2.109375 0,1.10877399 0.802284,2.0102163 2.352765,2.0102163 1.604567,0 2.352764,-0.94651442 2.352764,-2.0102163 z m -2.34375,1.62259611 c -1.171875,0 -1.171875,-0.93750001 -1.171875,-1.72175481 0,-0.7481971 0,-1.6496394 1.162861,-1.6496394 1.16286,0 1.16286,0.9014423 1.16286,1.6496394 0,0.7752404 0,1.72175481 -1.153846,1.72175481 z m 7.943961,-1.62259611 c 0,-1.171875 -0.820313,-2.109375 -2.34375,-2.109375 -1.586539,0 -2.361779,0.9825721 -2.361779,2.109375 0,1.10877399 0.802283,2.0102163 2.352764,2.0102163 1.604568,0 2.352765,-0.94651442 2.352765,-2.0102163 z m -2.34375,1.62259611 c -1.171875,0 -1.171875,-0.93750001 -1.171875,-1.72175481 0,-0.7481971 0,-1.6496394 1.16286,-1.6496394 1.162861,0 1.162861,0.9014423 1.162861,1.6496394 0,0.7752404 0,1.72175481 -1.153846,1.72175481 z M 45.784153,-6.1575 v 0.4417067 c 0.540865,0 0.61298,0 0.61298,0.3515625 v 1.7307693 c -0.396634,-0.2884616 -0.820312,-0.4056491 -1.24399,-0.4056491 -1.469351,0 -2.316707,0.8924279 -2.316707,2.0462741 0,1.18990381 0.838342,2.046274 2.208534,2.046274 0.558894,0 1.009615,-0.21634615 1.298077,-0.45072115 V 0.0534375 L 48.001701,-6.490385e-4 V -0.44235577 c -0.540866,0 -0.612981,0 -0.612981,-0.3515625 V -6.2296154 Z m 0.558894,5.18329327 c -0.198317,0.30649038 -0.63101,0.66706731 -1.198918,0.66706731 -1.117789,0 -1.117789,-1.07271638 -1.117789,-1.66766828 0,-0.5228365 0.009,-0.9014423 0.24339,-1.234976 0.234375,-0.3605769 0.667067,-0.46875 0.973557,-0.46875 0.450721,0 0.820313,0.1983174 1.09976,0.5498799 z m 0,0"
       style="fill:#b30000;fill-opacity:1;fill-rule:nonzero;stroke:none"
       aria-label="Likelihood"
       transform="matrix(1.7333333,0,0,1.7333333,98.285333,16.548)" />
    <path
       id="path28"
       d="M -88.26656,49.55386 -28.06075,32.77669"
       style="fill:none;stroke:#b30000;stroke-width:0.79701;stroke-linecap:butt;stroke-linejoin:miter;stroke-miterlimit:10;stroke-dasharray:none;stroke-opacity:1"
       transform="matrix(1.3333333,0,0,-1.3333333,299.14133,88.708)" />
    <path
       id="path29"
       d="M 4.53381,0 C 3.97704,0.13808 1.52963,0.92049 0,1.77196 V -1.77196 C 1.52963,-0.92049 3.97704,-0.13808 4.53381,0 Z"
       style="fill:#b30000;fill-opacity:1;fill-rule:nonzero;stroke:#b30000;stroke-width:0.79701;stroke-linecap:butt;stroke-linejoin:miter;stroke-miterlimit:10;stroke-dasharray:none;stroke-opacity:1"
       transform="matrix(1.2843467,0.35786667,0.35786667,-1.2843467,261.72699,45.005733)" />
    <path
       id="path30"
       d="m 2.6511899,-2.6869471 h 1.6496394 c 1.2800481,0 2.34375,-0.6490385 2.34375,-1.7127404 0,-0.9825721 -0.9014423,-1.7578125 -2.4338942,-1.7578125 H 0.37955529 v 0.4417067 H 1.3440986 v 5.27343753 H 0.37955529 V -6.4903846e-4 C 0.6950601,-0.02769231 1.6235457,-0.02769231 1.993137,-0.02769231 c 0.3695914,0 1.3070914,0 1.6225962,0.0270432715 V -0.44235577 H 2.6511899 Z M 3.868137,-5.7157933 c 1.3701923,0 1.3701923,0.6850962 1.3701923,1.3161058 0,0.6310096 0,1.3251202 -1.3792067,1.3251202 H 2.5971034 v -2.641226 z m 5.3500601,3.7590145 c 0,-0.6580529 0.2433894,-1.6947116 1.1087739,-1.7217549 -0.09916,0.099159 -0.144231,0.2524039 -0.144231,0.3966347 0,0.3966346 0.315505,0.576923 0.567909,0.576923 0.288462,0 0.576923,-0.1983173 0.576923,-0.576923 0,-0.4597356 -0.46875,-0.7572116 -1.000601,-0.7572116 -0.621995,0 -1.0096152,0.4597356 -1.2079325,0.9825721 h -0.00901 v -0.9825721 l -1.4963942,0.072115 v 0.4417067 c 0.531851,0 0.6039664,0 0.6039664,0.3515625 v 2.73137023 H 7.6136298 V -6.4903846e-4 C 8.2716827,-0.02769231 8.3257692,-0.02769231 8.7584615,-0.02769231 c 0.2253606,0 0.7481972,0 1.2169472,0.0270432715 V -0.44235577 H 9.2181971 Z m 4.5567909,-3.5697116 c 0,-0.46875 -0.378606,-0.7121394 -0.703125,-0.7121394 -0.414663,0 -0.703125,0.3515625 -0.703125,0.703125 0,0.3786058 0.297476,0.7121394 0.703125,0.7121394 0.342548,0 0.703125,-0.2704327 0.703125,-0.703125 z m -1.658654,1.5594952 v 0.4417067 c 0.513822,0 0.576923,0 0.576923,0.3515625 v 2.73137023 H 12.089291 V -6.4903846e-4 C 12.684243,-0.01867788 12.80143,-0.02769231 13.180036,-0.02769231 c 0.441707,0 0.558894,0.0090144 1.063702,0.0270432715 V -0.44235577 h -0.54988 V -4.0391106 Z m 7.454928,2.0102164 c 0,-1.171875 -0.820312,-2.109375 -2.34375,-2.109375 -1.586538,0 -2.361779,0.9825721 -2.361779,2.109375 0,1.10877399 0.802284,2.0102163 2.352765,2.0102163 1.604567,0 2.352764,-0.94651442 2.352764,-2.0102163 z m -2.34375,1.62259611 c -1.171875,0 -1.171875,-0.93750001 -1.171875,-1.72175481 0,-0.7481971 0,-1.6496394 1.162861,-1.6496394 1.16286,0 1.16286,0.9014423 1.16286,1.6496394 0,0.7752404 0,1.72175481 -1.153846,1.72175481 z m 4.619892,-1.62259611 c 0,-0.6580529 0.243389,-1.6947116 1.108774,-1.7217549 -0.09916,0.099159 -0.144231,0.2524039 -0.144231,0.3966347 0,0.3966346 0.315505,0.576923 0.567909,0.576923 0.288461,0 0.576923,-0.1983173 0.576923,-0.576923 0,-0.4597356 -0.46875,-0.7572116 -1.000601,-0.7572116 -0.621995,0 -1.009616,0.4597356 -1.207933,0.9825721 h -0.009 v -0.9825721 l -1.496394,0.072115 v 0.4417067 c 0.53185,0 0.603966,0 0.603966,0.3515625 v 2.73137023 h -0.60398 V -6.4903846e-4 C 20.900889,-0.02769231 20.954976,-0.02769231 21.387668,-0.02769231 c 0.225361,0 0.748197,0 1.216947,0.0270432715 V -0.44235577 h -0.757211 z m 0,0"
       style="fill:#008000;fill-opacity:1;fill-rule:nonzero;stroke:none"
       aria-label="Prior"
       transform="matrix(1.7333333,0,0,1.7333333,406.31867,16.548)" />
    <path
       id="path31"
       d="M 75.82228,50.74852 27.9123,33.2389"
       style="fill:none;stroke:#008000;stroke-width:0.79701;stroke-linecap:butt;stroke-linejoin:miter;stroke-miterlimit:10;stroke-dasharray:none;stroke-opacity:1"
       transform="matrix(1.3333333,0,0,-1.3333333,299.14133,88.708)" />
    <path
       id="path32"
       d="M 4.53381,0 C 3.97704,0.13808 1.52963,0.92049 0,1.77196 V -1.77196 C 1.52963,-0.92049 3.97704,-0.13808 4.53381,0 Z"
       style="fill:#008000;fill-opacity:1;fill-rule:nonzero;stroke:#008000;stroke-width:0.79701;stroke-linecap:butt;stroke-linejoin:miter;stroke-miterlimit:10;stroke-dasharray:none;stroke-opacity:1"
       transform="matrix(-1.2522933,0.45764,0.45764,1.2522933,336.35775,44.389467)" />
    <path
       id="path33"
       d="M 6.662518,-2.4785216 H 6.2117969 C 6.0134796,-1.3246755 5.8151623,-0.44126202 4.0753786,-0.44126202 H 2.6510998 V -2.9382572 h 0.5138221 c 0.8834134,0 0.9735577,0.3876202 0.9735577,1.0456731 H 4.5892007 V -4.4346514 H 4.1384796 c 0,0.6580528 -0.08113,1.0546875 -0.9735577,1.0546875 H 2.6510998 V -5.660613 h 1.4152644 c 1.4242788,0 1.7037259,0.6219952 1.8479567,1.7397837 H 6.3650421 L 6.0946094,-6.1023197 H 0.37946514 V -5.660613 H 1.3440084 v 5.21935098 H 0.37946514 V 4.4471154e-4 H 6.2478546 Z m 4.98723,-0.8743991 c 0.0631,-0.1262019 0.09014,-0.1893029 0.658052,-0.1893029 v -0.4417067 c -0.252403,0.027043 -0.477764,0.027043 -0.730168,0.027043 -0.252404,0 -0.540865,0 -0.802283,-0.027043 v 0.4417067 c 0.252403,0 0.333533,0.045072 0.414663,0.08113 -0.009,0.036058 -0.009,0.054087 -0.05409,0.1262019 l -1.08173,2.2355769 -1.1718753,-2.4429087 h 0.46875 v -0.4417067 c -0.5949519,0.018029 -0.7752404,0.027043 -1.108774,0.027043 -0.3245193,0 -0.4957933,0 -1.0276443,-0.027043 v 0.4417067 h 0.5679087 l 1.6045673,3.33533658 c 0.08113,0.17127404 0.1532452,0.25240385 0.3695913,0.25240385 0.2253606,0 0.2974763,-0.08112981 0.3786063,-0.25240385 z m 3.067157,-2.1724759 c 0,-0.46875 -0.378606,-0.7121395 -0.703125,-0.7121395 -0.414663,0 -0.703125,0.3515625 -0.703125,0.703125 0,0.3786058 0.297476,0.7121395 0.703125,0.7121395 0.342548,0 0.703125,-0.2704327 0.703125,-0.703125 z m -1.658654,1.5594952 v 0.4417067 c 0.513822,0 0.576923,0 0.576923,0.3515625 v 2.73137018 H 13.031208 V 4.4471154e-4 C 13.62616,-0.01758413 13.743347,-0.02659856 14.121953,-0.02659856 c 0.441707,0 0.558894,0.0090144 1.063702,0.0270432715 V -0.44126202 h -0.54988 V -4.0380168 Z m 5.751202,-2.1905048 v 0.4417067 c 0.540866,0 0.612981,0 0.612981,0.3515625 v 1.7307692 c -0.396635,-0.2884615 -0.820313,-0.405649 -1.24399,-0.405649 -1.469351,0 -2.316707,0.8924279 -2.316707,2.046274 0,1.18990386 0.838341,2.04627405 2.208533,2.04627405 0.558895,0 1.009616,-0.21634615 1.298077,-0.45072115 V 0.05453125 L 21.027001,4.4471154e-4 V -0.44126202 c -0.540865,0 -0.612981,0 -0.612981,-0.3515625 V -6.2285216 Z m 0.558894,5.18329322 c -0.198317,0.30649038 -0.631009,0.66706731 -1.198918,0.66706731 -1.117788,0 -1.117788,-1.07271633 -1.117788,-1.66766823 0,-0.5228366 0.009,-0.9014423 0.243389,-1.234976 0.234375,-0.3605769 0.667067,-0.46875 0.973558,-0.46875 0.450721,0 0.820312,0.1983173 1.099759,0.5498798 z M 25.67619,-1.9286418 c 0.189303,0 0.288461,0 0.288461,-0.2524039 0,-0.1983173 -0.01803,-0.9825721 -0.594951,-1.4693509 -0.40565,-0.3335337 -0.946515,-0.4146635 -1.379207,-0.4146635 -1.541467,0 -2.289664,0.9735577 -2.289664,2.046274 0,1.17187504 0.883414,2.07331735 2.406851,2.07331735 1.48738,0 1.856971,-0.94651442 1.856971,-1.09074515 0,-0.1802885 -0.171274,-0.1802885 -0.22536,-0.1802885 -0.16226,0 -0.180289,0.054086 -0.234375,0.1802885 -0.207332,0.45973553 -0.757212,0.70312496 -1.32512,0.70312496 -1.271034,0 -1.289063,-1.15384616 -1.289063,-1.59555286 z m -2.785457,-0.3245193 c 0.01803,-0.4146634 0.0631,-1.4513221 1.09976,-1.4513221 1.045673,0 1.081731,1.0907452 1.099759,1.4513221 z m 8.421725,-0.4777644 c 0,-1.0727163 -0.640024,-1.3070913 -1.424279,-1.3070913 -1.09976,0 -1.541466,0.8112981 -1.604567,0.9465144 h -0.009 v -0.9465144 l -1.55048,0.072115 v 0.4417067 c 0.531851,0 0.603966,0 0.603966,0.3515625 v 2.73137018 H 26.724117 V 4.4471154e-4 C 27.382169,-0.02659856 27.490343,-0.02659856 27.850919,-0.02659856 c 0.369592,0 0.459736,0 1.135818,0.0270432715 V -0.44126202 H 28.38277 V -2.2802043 c 0,-1.000601 0.820313,-1.3972356 1.361178,-1.3972356 0.342548,0 0.522837,0.1893029 0.522837,0.8653846 v 2.37079328 H 29.653804 V 4.4471154e-4 c 0.667067,-0.0270432715 0.77524,-0.0270432715 1.126803,-0.0270432715 0.369591,0 0.459736,0 1.144832,0.0270432715 V -0.44126202 h -0.612981 z m 5.271184,1.6947116 c 0,-0.1442308 -0.135217,-0.1442308 -0.234375,-0.1442308 -0.180289,0 -0.180289,0.00901 -0.252404,0.171274 -0.180288,0.42367791 -0.585938,0.67608176 -1.117788,0.67608176 -1.271034,0 -1.271034,-1.28906246 -1.271034,-1.69471156 0,-0.5408654 0.009,-1.6496394 1.180889,-1.6496394 0.0631,0 0.54988,0.00901 0.54988,0.054086 0,0.00901 -0.01803,0.036058 -0.02704,0.045072 -0.08113,0.099159 -0.117188,0.2433894 -0.117188,0.3695913 0,0.3695913 0.279447,0.5769231 0.585938,0.5769231 0.279447,0 0.585937,-0.1802885 0.585937,-0.5859375 0,-0.8473558 -1.262019,-0.8473558 -1.613581,-0.8473558 -1.721755,0 -2.334736,1.0997596 -2.334736,2.0733173 0,1.1268029 0.802284,2.04627405 2.298678,2.04627405 0.324519,0 0.766226,-0.0540865385 1.144832,-0.28846154 0.513822,-0.31550481 0.621995,-0.77524041 0.621995,-0.80228361 z m 4.572566,-0.8924279 c 0.189303,0 0.288461,0 0.288461,-0.2524039 0,-0.1983173 -0.01803,-0.9825721 -0.594951,-1.4693509 -0.405649,-0.3335337 -0.946515,-0.4146635 -1.379207,-0.4146635 -1.541467,0 -2.289664,0.9735577 -2.289664,2.046274 0,1.17187504 0.883414,2.07331735 2.406851,2.07331735 1.48738,0 1.856971,-0.94651442 1.856971,-1.09074515 0,-0.1802885 -0.171274,-0.1802885 -0.22536,-0.1802885 -0.16226,0 -0.180289,0.054086 -0.234375,0.1802885 -0.207332,0.45973553 -0.757212,0.70312496 -1.32512,0.70312496 -1.271034,0 -1.289063,-1.15384616 -1.289063,-1.59555286 z m -2.785457,-0.3245193 c 0.01803,-0.4146634 0.0631,-1.4513221 1.09976,-1.4513221 1.045673,0 1.081731,1.0907452 1.099759,1.4513221 z m 8.031851,-3.9933894 c 0.05409,-0.1171875 0.05409,-0.171274 0.05409,-0.1893029 0,-0.171274 -0.135217,-0.2884615 -0.279447,-0.2884615 -0.189303,0 -0.24339,0.1262019 -0.297476,0.2614183 l -3.479568,8.2211538 c -0.05409,0.1262019 -0.05409,0.1802885 -0.05409,0.1983173 0,0.1712741 0.135216,0.2884616 0.288461,0.2884616 0.180289,0 0.234375,-0.126202 0.288462,-0.2614183 z m 5.683594,5.0751202 -2.199519,-4.7506009 c -0.108173,-0.234375 -0.225361,-0.234375 -0.414664,-0.234375 h -2.010216 v 0.4417067 h 0.964543 v 5.01201921 c 0,0.19831731 -0.009,0.20733173 -0.261418,0.234375 -0.216346,0.0270433 -0.225361,0.0270433 -0.46875,0.0270433 H 47.461797 V 4.4471154e-4 C 48.03872,-0.02659856 48.291124,-0.02659856 48.678744,-0.02659856 c 0.396635,0 0.640024,0 1.225962,0.0270432715 V -0.44126202 h -0.225361 c -0.243389,0 -0.261418,0 -0.477764,-0.0270433 -0.252404,-0.0270433 -0.261419,-0.0360577 -0.261419,-0.234375 V -5.5884976 h 0.009 l 2.48798,5.35456731 c 0.03606,0.0811298 0.09916,0.23437500154 0.297476,0.23437500154 0.207332,0 0.270433,-0.14423077154 0.315505,-0.23437500154 l 2.542068,-5.47175481 h 0.009 v 5.26442308 H 53.627662 V 4.4471154e-4 c 0.315505,-0.0270432715 1.18089,-0.0270432715 1.532452,-0.0270432715 0.360577,0 1.234976,0 1.550481,0.0270432715 V -0.44126202 H 55.737037 V -5.7146995 h 0.973558 v -0.4417067 h -2.001202 c -0.189303,0 -0.30649,0 -0.414663,0.2253605 z m 9.372746,-1.5054086 c 0,-0.7842548 -0.649038,-1.3882212 -2.028245,-1.3882212 -0.513822,0 -1.658654,0.018029 -1.658654,0.8473558 0,0.405649 0.297476,0.5859375 0.576923,0.5859375 0.306491,0 0.585938,-0.2073318 0.585938,-0.5769231 0,-0.2614183 -0.153245,-0.4146635 -0.180289,-0.4417067 0.09014,-0.018029 0.306491,-0.054087 0.640024,-0.054087 0.640024,0 1.009616,0.3245193 1.009616,1.0276443 v 0.2884615 c -1.48738,0 -2.992789,0.3876202 -2.992789,1.3882212 0,0.88341341 1.117789,1.05468745 1.766827,1.05468745 0.676082,0 1.144832,-0.29747596 1.388221,-0.72115385 0,0.234375 0,0.66706731154 0.964544,0.66706731154 h 0.432692 c 0.171274,0 0.297476,0 0.297476,-0.22536058154 0,-0.21634615 -0.144231,-0.21634615 -0.234375,-0.21634615 -0.567909,-0.009014 -0.567909,-0.0991587 -0.567909,-0.31550481 z m -1.054687,1.4332932 c 0,0.93750003 -1.036659,0.93750003 -1.072717,0.93750003 -0.459735,0 -0.838341,-0.29747596 -0.838341,-0.69411053 0,-0.297476 0.16226,-1.000601 1.911058,-1.0817308 z m 3.840144,-0.7121394 c 0,-0.6580529 0.243389,-1.6947115 1.108774,-1.7217548 -0.09916,0.099159 -0.144231,0.2524038 -0.144231,0.3966346 0,0.3966346 0.315505,0.5769231 0.567909,0.5769231 0.288461,0 0.576923,-0.1983173 0.576923,-0.5769231 0,-0.4597356 -0.46875,-0.7572115 -1.000601,-0.7572115 -0.621995,0 -1.009615,0.4597356 -1.207933,0.9825721 h -0.009 v -0.9825721 l -1.496394,0.072115 v 0.4417067 c 0.531851,0 0.603966,0 0.603966,0.3515625 v 2.73137018 h -0.60398 V 4.4471154e-4 C 63.297885,-0.02659856 63.351971,-0.02659856 63.784663,-0.02659856 c 0.225361,0 0.748198,0 1.216948,0.0270432715 V -0.44126202 h -0.757212 z m 4.340445,1.18990385 c -0.288462,0 -0.414664,0 -0.567909,-0.1171875 -0.135216,-0.10817308 -0.207332,-0.26141825 -0.207332,-0.44170675 0,-0.1802884 0.0631,-0.2704327 0.07212,-0.2794471 0.333533,0.171274 0.730168,0.234375 1.126803,0.234375 1.370192,0 1.838942,-0.7481971 1.838942,-1.3251202 0,-0.3695913 -0.171274,-0.6670673 -0.360577,-0.8563702 0.243389,-0.1262019 0.423678,-0.1442307 0.540865,-0.1622596 -0.009,0.036058 -0.02704,0.090144 -0.02704,0.1802885 0,0.2433894 0.180289,0.405649 0.396635,0.405649 0.198317,0 0.405649,-0.1442308 0.405649,-0.4146635 0,-0.234375 -0.180289,-0.5498798 -0.594952,-0.5498798 -0.432692,0 -0.811298,0.2163462 -0.982572,0.3425481 -0.378606,-0.2253606 -0.793269,-0.2884615 -1.216947,-0.2884615 -1.379207,0 -1.838943,0.7481971 -1.838943,1.3341346 0,0.4867788 0.306491,0.8112981 0.459736,0.9465144 -0.180289,0.2073317 -0.288462,0.5138221 -0.288462,0.78425482 0,0.37860577 0.189303,0.68509615 0.369592,0.85637019 -0.676082,0.18930289 -0.766226,0.57692308 -0.766226,0.77524039 0,0.531851 0.612981,1.1448317 2.352764,1.1448317 1.56851,0 2.352765,-0.4957932 2.352765,-1.17187497 0,-0.31550481 -0.117188,-0.87439904 -0.730169,-1.16286058 -0.522836,-0.234375 -1.000601,-0.234375 -1.884014,-0.234375 z m 0.423678,-0.96454325 c -0.811298,0 -0.811298,-0.5769231 -0.811298,-0.9645433 0,-0.405649 0,-0.9825721 0.811298,-0.9825721 0.802283,0 0.802283,0.5769231 0.802283,0.9735577 0,0.3966346 0,0.9735577 -0.802283,0.9735577 z m 0.522836,1.85697113 c 0.279447,0 1.32512,0 1.32512,0.54086539 0,0.27944711 -0.333533,0.77524038 -1.55048,0.77524038 -1.189904,0 -1.56851,-0.45072115 -1.56851,-0.79326923 0,-0.52283654 0.576923,-0.52283654 0.712139,-0.52283654 z m 4.57482,-5.65204323 c 0,-0.46875 -0.378606,-0.7121395 -0.703125,-0.7121395 -0.414664,0 -0.703125,0.3515625 -0.703125,0.703125 0,0.3786058 0.297476,0.7121395 0.703125,0.7121395 0.342548,0 0.703125,-0.2704327 0.703125,-0.703125 z m -1.658654,1.5594952 v 0.4417067 c 0.513822,0 0.576923,0 0.576923,0.3515625 v 2.73137018 H 72.420481 V 4.4471154e-4 C 73.015433,-0.01758413 73.13262,-0.02659856 73.511226,-0.02659856 c 0.441707,0 0.558894,0.0090144 1.063702,0.0270432715 V -0.44126202 h -0.54988 V -4.0380168 Z m 7.490986,1.2349759 c 0,-1.0727163 -0.640024,-1.3070913 -1.424279,-1.3070913 -1.09976,0 -1.541467,0.8112981 -1.604568,0.9465144 h -0.009 v -0.9465144 l -1.550481,0.072115 v 0.4417067 c 0.531851,0 0.603967,0 0.603967,0.3515625 v 2.73137018 H 75.350168 V 4.4471154e-4 C 76.008221,-0.02659856 76.116394,-0.02659856 76.476971,-0.02659856 c 0.369591,0 0.459736,0 1.135817,0.0270432715 V -0.44126202 H 77.008822 V -2.2802043 c 0,-1.000601 0.820313,-1.3972356 1.361178,-1.3972356 0.342548,0 0.522837,0.1893029 0.522837,0.8653846 v 2.37079328 H 78.279856 V 4.4471154e-4 c 0.667067,-0.0270432715 0.77524,-0.0270432715 1.126803,-0.0270432715 0.369591,0 0.459735,0 1.144831,0.0270432715 V -0.44126202 h -0.61298 z m 5.201322,0.054087 c 0,-0.7842548 -0.649039,-1.3882212 -2.028245,-1.3882212 -0.513823,0 -1.658654,0.018029 -1.658654,0.8473558 0,0.405649 0.297476,0.5859375 0.576923,0.5859375 0.30649,0 0.585937,-0.2073318 0.585937,-0.5769231 0,-0.2614183 -0.153245,-0.4146635 -0.180288,-0.4417067 0.09014,-0.018029 0.30649,-0.054087 0.640024,-0.054087 0.640024,0 1.009615,0.3245193 1.009615,1.0276443 v 0.2884615 c -1.48738,0 -2.992788,0.3876202 -2.992788,1.3882212 0,0.88341341 1.117788,1.05468745 1.766827,1.05468745 0.676081,0 1.144831,-0.29747596 1.388221,-0.72115385 0,0.234375 0,0.66706731154 0.964543,0.66706731154 h 0.432692 c 0.171274,0 0.297476,0 0.297476,-0.22536058154 0,-0.21634615 -0.14423,-0.21634615 -0.234375,-0.21634615 -0.567908,-0.009014 -0.567908,-0.0991587 -0.567908,-0.31550481 z m -1.054688,1.4332932 c 0,0.93750003 -1.036658,0.93750003 -1.072716,0.93750003 -0.459736,0 -0.838341,-0.29747596 -0.838341,-0.69411053 0,-0.297476 0.162259,-1.000601 1.911057,-1.0817308 z m 3.939303,-4.9849759 -1.604567,0.072115 v 0.4417067 c 0.531851,0 0.603966,0 0.603966,0.3515625 v 4.92187498 H 86.41988 V 4.4471154e-4 C 87.023846,-0.02659856 87.132019,-0.02659856 87.519639,-0.02659856 c 0.396635,0 0.63101,0.0090144 1.117789,0.0270432715 V -0.44126202 h -0.612981 z m 0,0"
       style="fill:#cc6600;fill-opacity:1;fill-rule:nonzero;stroke:none"
       aria-label="Evidence/Marginal"
       transform="matrix(1.7333333,0,0,1.7333333,350.15867,172.52267)" />
    <path
       id="path34"
       d="M 69.57729,-49.55386 28.38133,-33.3764"
       style="fill:none;stroke:#cc6600;stroke-width:0.79701;stroke-linecap:butt;stroke-linejoin:miter;stroke-miterlimit:10;stroke-dasharray:none;stroke-opacity:1"
       transform="matrix(1.3333333,0,0,-1.3333333,299.14133,88.708)" />
    <path
       id="path35"
       d="M 4.53381,0 C 3.97704,0.13808 1.52963,0.92049 0,1.77196 V -1.77196 C 1.52963,-0.92049 3.97704,-0.13808 4.53381,0 Z"
       style="fill:#cc6600;fill-opacity:1;fill-rule:nonzero;stroke:#cc6600;stroke-width:0.79701;stroke-linecap:butt;stroke-linejoin:miter;stroke-miterlimit:10;stroke-dasharray:none;stroke-opacity:1"
       transform="matrix(-1.2409867,-0.48733333,-0.48733333,1.2409867,336.98311,133.20987)" />
  </g>
</svg>
