<?xml version="1.0" encoding="UTF-8" standalone="no"?>
<!-- Created with Inkscape (http://www.inkscape.org/) -->

<svg
   version="1.1"
   id="svg1"
   width="457.48828"
   height="73.966415"
   viewBox="0 0 457.48828 73.966415"
   xmlns="http://www.w3.org/2000/svg"
   xmlns:svg="http://www.w3.org/2000/svg">
  <defs
     id="defs1" />
  <g
     id="g1"
     transform="translate(-5.78125,0.05626044)">
    <path
       id="path1"
       d="m 5.6652669,-4.8718294 c -0.3808593,0.068359 -0.5273437,0.3515625 -0.5273437,0.5859375 0,0.2832031 0.234375,0.3808593 0.4003906,0.3808593 0.3515625,0 0.6054688,-0.3125 0.6054688,-0.6347656 0,-0.5078125 -0.5761719,-0.7324219 -1.0742188,-0.7324219 -0.7324219,0 -1.1328125,0.7226563 -1.2402344,0.9472657 -0.2734375,-0.8984375 -1.015625,-0.9472657 -1.2304687,-0.9472657 -1.2207031,0 -1.8652344,1.5722657 -1.8652344,1.8261719 0,0.048828 0.0488281,0.1171875 0.12695313,0.1171875 0.0976563,0 0.1171875,-0.078125 0.14648437,-0.1269531 0.4003906,-1.328125 1.2011719,-1.5722656 1.5527344,-1.5722656 0.5371094,0 0.6445312,0.4980468 0.6445312,0.78125 0,0.2636718 -0.068359,0.546875 -0.2148437,1.1132812 l -0.4101563,1.640625 c -0.1757812,0.71289065 -0.5175781,1.37695315 -1.1523437,1.37695315 -0.058594,0 -0.3613281,0 -0.6152344,-0.15625 0.4296875,-0.0878906 0.5273438,-0.43945313 0.5273438,-0.5859375 0,-0.24414065 -0.1757813,-0.38085935 -0.4101563,-0.38085935 -0.28320312,0 -0.59570312,0.2441406 -0.59570312,0.6347656 0,0.49804687 0.56640625,0.72265625 1.07421872,0.72265625 0.5761719,0 0.9863282,-0.44921875 1.2402344,-0.9375 0.1855469,0.703125 0.78125,0.9375 1.2304688,0.9375 1.2109375,0 1.8652343,-1.56250005 1.8652343,-1.82617185 0,-0.058594 -0.048828,-0.1074219 -0.1269531,-0.1074219 -0.1074219,0 -0.1171875,0.058594 -0.15625,0.15625 -0.3222656,1.0546875 -1.015625,1.54296875 -1.5527344,1.54296875 -0.4199218,0 -0.6445312,-0.3125 -0.6445312,-0.80078125 0,-0.2636719 0.048828,-0.4589844 0.2441406,-1.25 l 0.4101563,-1.6210938 c 0.1855468,-0.7128906 0.5859375,-1.2402343 1.1425781,-1.2402343 0.019531,0 0.3515625,0 0.6054687,0.15625 z m 0,0"
       style="fill:#000000;fill-opacity:1;fill-rule:nonzero;stroke:none"
       aria-label="x"
       transform="matrix(1.6,0,0,1.6,17.806667,31.861333)" />
    <path
       id="path2"
       d="m 2.060026,-5.4103776 c 0,-0.3320313 0.019531,-0.4394531 0.7324219,-0.4394531 h 0.2246094 v -0.2734375 c -0.3613281,0.029297 -0.9765625,0.029297 -1.3574219,0.029297 -0.390625,0 -0.99609373,0 -1.36718748,-0.029297 v 0.2734375 h 0.22460937 c 0.72265621,0 0.74218751,0.1074218 0.74218751,0.4394531 v 4.69726562 c 0,0.33203125 -0.019531,0.43945313 -0.74218751,0.43945313 H 0.29244792 V -2.2135417e-4 C 0.66354167,-0.02951823 1.2690104,-0.02951823 1.6596354,-0.02951823 c 0.3808594,0 0.9960938,0 1.3574219,0.0292968758 V -0.27365885 H 2.7924479 c -0.7128906,0 -0.7324219,-0.10742188 -0.7324219,-0.43945313 z m 2.9370118,3.0859375 c 0,-0.9472656 0.6738281,-1.4160156 1.2304687,-1.4160156 0.5371094,0 0.6542969,0.4394531 0.6542969,0.9765625 v 2.07031247 c 0,0.41992188 -0.1074219,0.41992188 -0.6933594,0.41992188 V -2.2135417e-4 C 6.6083659,-0.0197526 6.7743815,-0.02951823 7.204069,-0.02951823 c 0.4394531,0 0.546875,0.0097656 1.0253906,0.0292968758 V -0.27365885 c -0.4589843,0 -0.6835937,0 -0.6933593,-0.28320313 V -2.275612 c 0,-0.7421875 0,-1.0058594 -0.2441407,-1.3183594 -0.2050781,-0.2539062 -0.546875,-0.3710937 -0.9960937,-0.3710937 -0.8398438,0 -1.2207031,0.625 -1.3476563,0.8691406 h -0.00977 v -0.8691406 l -1.2988281,0.097656 v 0.2832032 c 0.6152344,0 0.6933594,0.058594 0.6933594,0.4980468 v 2.39257817 c 0,0.41992188 -0.097656,0.41992188 -0.6933594,0.41992188 V -2.2135417e-4 C 4.0595378,-0.0197526 4.235319,-0.02951823 4.6650065,-0.02951823 c 0.4296875,0 0.546875,0.0097656 1.015625,0.0292968758 V -0.27365885 c -0.5859375,0 -0.6835937,0 -0.6835937,-0.41992188 z m 5.0708012,-0.6835938 c 0.302734,-0.5273437 0.800781,-0.703125 1.171875,-0.703125 0.703125,0 1.240234,0.8105469 1.240234,1.7773438 0,1.015625 -0.605469,1.80664062 -1.337891,1.80664062 -0.40039,0 -0.742187,-0.234375 -0.957031,-0.546875 -0.117187,-0.17578125 -0.117187,-0.1953125 -0.117187,-0.36132812 z m 0,2.57812505 c 0.234375,0.234375 0.537109,0.52734375 1.132812,0.52734375 1.064453,0 2.050781,-0.859375 2.050781,-2.03125 0,-1.1328125 -0.878906,-2.03125 -1.933593,-2.03125 -0.488282,0 -0.9375,0.1953125 -1.279297,0.5664062 v -0.5664062 l -1.3183597,0.097656 v 0.2832032 c 0.6347656,0 0.6835937,0.048828 0.6835937,0.4394531 v 4.1894531 c 0,0.4199219 -0.097656,0.4199219 -0.6835937,0.4199219 v 0.2734375 c 0.4199219,-0.019531 0.5859375,-0.029297 1.015625,-0.029297 0.4296877,0 0.5468747,0.00977 1.0253907,0.029297 V 1.4646224 c -0.595703,0 -0.693359,0 -0.693359,-0.4199219 z M 17.121061,-1.494362 c 0,0.79101565 -0.449219,1.36718752 -1.09375,1.36718752 -0.751953,0 -0.791015,-0.38085937 -0.791015,-0.86914062 v -2.96875 l -1.357422,0.097656 v 0.2832032 c 0.693359,0 0.693359,0.029297 0.693359,0.8203125 v 1.3476562 c 0,0.58593752 0,0.95703127 0.410156,1.26953127 0.263672,0.18554688 0.625,0.24414063 0.986328,0.24414063 0.46875,0 0.908204,-0.20507813 1.16211,-0.7421875 h 0.0098 V 0.0974347 L 18.468752,-2.215542e-4 V -0.27365885 c -0.605468,0 -0.693359,-0.0683594 -0.693359,-0.5078125 V -3.9650651 l -1.347656,0.097656 v 0.2832032 c 0.605469,0 0.693359,0.058594 0.693359,0.4980468 z m 4.475098,-2.0898437 V -3.8674089 H 20.297331 V -5.5177995 H 20.05319 c -0.0098,0.7617188 -0.332031,1.6796875 -1.201172,1.7089844 v 0.2246094 h 0.78125 v 2.4707031 c 0,1.00585937 0.732422,1.2109375 1.201172,1.2109375 0.605469,0 0.917969,-0.57617188 0.917969,-1.2109375 v -0.5078125 h -0.253906 v 0.4785156 c 0,0.66406252 -0.273438,0.98632815 -0.595704,0.98632815 -0.605468,0 -0.605468,-0.78125 -0.605468,-0.94726565 v -2.4804687 z m 0,0"
       style="fill:#000000;fill-opacity:1;fill-rule:nonzero;stroke:none"
       aria-label="Input"
       transform="matrix(1.6,0,0,1.6,5.3133333,71.070667)" />
    <path
       id="path3"
       d="M 39.66757,20.40985 107.69975,13.6062 V -13.6062 L 39.66757,-20.40985 Z"
       style="fill:none;stroke:#000000;stroke-width:0.79701;stroke-linecap:butt;stroke-linejoin:miter;stroke-miterlimit:10;stroke-dasharray:none;stroke-opacity:1"
       transform="matrix(1.3333333,0,0,-1.3333333,23.128,27.744)" />
    <path
       id="path4"
       d="M 8.437819,-3.2217904 H 7.9397721 C 7.6858659,-1.4444466 7.2464128,-0.51671224 5.1663346,-0.51671224 H 3.3011003 V -3.9639779 h 0.703125 c 1.1523437,0 1.2695312,0.4882813 1.2695312,1.3964844 H 5.7718034 V -5.8780404 H 5.2737565 c 0,0.8984375 -0.1171875,1.3964844 -1.2695312,1.3964844 h -0.703125 v -3.1445312 h 1.8652343 c 1.8261719,0 2.2167969,0.78125 2.4023438,2.3242187 H 8.0667253 L 7.7249284,-8.1436654 H 0.45930339 v 0.5175782 H 1.719069 v 7.10937496 H 0.45930339 V 8.6588542e-4 H 7.9300065 Z M 15.1761,-3.6612435 c 0,-1.1328125 -0.488281,-1.71875 -1.80664,-1.71875 -0.859375,0 -1.601563,0.4199219 -2.011719,1.3183594 h -0.0098 v -1.3183594 l -2.0214841,0.097656 v 0.5175781 c 0.7421871,0 0.8300781,0 0.8300781,0.4589844 v 3.78906246 H 9.3264909 V 8.6588542e-4 C 9.609694,-0.01866536 10.469069,-0.01866536 10.8011,-0.01866536 c 0.332032,0 1.210938,0 1.484375,0.0195312454 V -0.51671224 H 11.455397 V -3.0557747 c 0,-1.2988282 0.957031,-1.9238282 1.728516,-1.9238282 0.439453,0 0.693359,0.2832032 0.693359,1.1914063 v 3.27148436 H 13.047194 V 8.6588542e-4 C 13.320632,-0.01866536 14.180007,-0.01866536 14.521803,-0.01866536 c 0.332032,0 1.201172,0 1.47461,0.0195312454 V -0.51671224 H 15.1761 Z m 6.71875,2.265625 c 0,-0.1464844 -0.136718,-0.1464844 -0.253906,-0.1464844 -0.185547,0 -0.205078,0.00977 -0.263672,0.15625 -0.07813,0.2246094 -0.40039,1.02539066 -1.503906,1.02539066 -1.689453,0 -1.689453,-1.81640626 -1.689453,-2.35351566 0,-0.703125 0.01953,-2.265625 1.582031,-2.265625 0.08789,0 0.791016,0.019531 0.791016,0.078125 0,0.00977 -0.0098,0.029297 -0.03906,0.039063 -0.03906,0.039063 -0.195312,0.2148438 -0.195312,0.5078125 0,0.5078125 0.410156,0.7128907 0.71289,0.7128907 0.244141,0 0.703125,-0.15625 0.703125,-0.7226563 0,-0.9765625 -1.376953,-1.0449219 -2.021484,-1.0449219 -2.128906,0 -2.958984,1.3867188 -2.958984,2.7539063 0,1.6308594 1.132812,2.72460936 2.890625,2.72460936 1.875,0 2.246093,-1.38671876 2.246093,-1.46484376 z m 6.721192,-1.2207031 c 0,-1.6113281 -1.103516,-2.7929688 -2.978516,-2.7929688 -1.953125,0 -2.988281,1.2402344 -2.988281,2.7929688 0,1.5625 1.103515,2.68554686 2.978515,2.68554686 1.94336,0 2.988282,-1.18164066 2.988282,-2.68554686 z m -2.978516,2.25585936 c -1.552734,0 -1.552734,-1.39648436 -1.552734,-2.37304686 0,-0.5664063 0,-1.1621094 0.224609,-1.5917969 0.263672,-0.4785156 0.800781,-0.6933594 1.318359,-0.6933594 0.673829,0 1.113282,0.3222657 1.308594,0.6542969 0.244141,0.4296875 0.244141,1.0546875 0.244141,1.6308594 0,0.9863281 0,2.37304686 -1.542969,2.37304686 z m 7.885742,-7.84179686 v 0.5175781 c 0.742188,0 0.820313,0 0.820313,0.46875 v 2.4121094 c -0.263672,-0.2246094 -0.791016,-0.5761719 -1.611328,-0.5761719 -1.699219,0 -2.900391,1.0546875 -2.900391,2.7246094 0,1.70898436 1.181641,2.72460936 2.763672,2.72460936 0.664062,0 1.220703,-0.22460937 1.689453,-0.61523437 V 0.06922526 L 36.413893,8.6588542e-4 V -0.51671224 c -0.742187,0 -0.830078,0 -0.830078,-0.45898437 V -8.2901497 Z m 0.761719,6.9921875 c -0.498047,0.73242186 -1.113281,0.88867186 -1.542969,0.88867186 -1.484375,0 -1.484375,-1.51367186 -1.484375,-2.30468746 0,-0.5664063 0,-1.1621094 0.263672,-1.6210938 0.371094,-0.6640625 1.074219,-0.7324219 1.357422,-0.7324219 0.488281,0 1.015625,0.2148438 1.40625,0.7324219 z m 7.958984,-1.4355469 c 0.273438,0 0.351563,0 0.351563,-0.2929687 0,-0.3613282 -0.08789,-1.2597657 -0.634766,-1.8164063 -0.507812,-0.5078125 -1.171875,-0.6542969 -1.865234,-0.6542969 -1.865235,0 -2.88086,1.2109375 -2.88086,2.7246094 0,1.6699219 1.230469,2.75390626 3.03711,2.75390626 1.80664,0 2.34375,-1.25976566 2.34375,-1.46484376 0,-0.1855469 -0.185547,-0.1855469 -0.253906,-0.1855469 -0.195313,0 -0.205079,0.039063 -0.273438,0.1953125 -0.3125,0.78125004 -1.103516,1.02539066 -1.669922,1.02539066 -1.738281,0 -1.748047,-1.61132816 -1.748047,-2.28515626 z m -3.59375,-0.3417969 c 0.01953,-0.4882812 0.0293,-0.9570312 0.283203,-1.3867187 0.22461,-0.3808594 0.644532,-0.6445313 1.16211,-0.6445313 1.279297,0 1.386719,1.4355469 1.396484,2.03125 z m 6.821289,0.3027344 c 0,-0.4003906 0.07813,-2.2949219 1.47461,-2.2949219 -0.166016,0.1269532 -0.244141,0.3320313 -0.244141,0.546875 0,0.4882813 0.390625,0.6933594 0.69336,0.6933594 0.292968,0 0.693359,-0.2050781 0.693359,-0.6933594 0,-0.6152343 -0.625,-0.9472656 -1.201172,-0.9472656 -0.9375,0 -1.347656,0.8300781 -1.513672,1.328125 h -0.0098 v -1.328125 l -1.962891,0.097656 v 0.5175781 c 0.742187,0 0.820312,0 0.820312,0.4589844 v 3.78906246 H 43.401198 V 8.6588542e-4 C 43.674635,-0.01866536 44.573073,-0.01866536 44.905104,-0.01866536 c 0.351563,0 1.31836,0 1.601563,0.0195312454 V -0.51671224 H 45.47151 Z m 0,0"
       style="fill:#000000;fill-opacity:1;fill-rule:nonzero;stroke:none"
       aria-label="Encoder"
       transform="matrix(1.6,0,0,1.6,82.589333,34.385333)" />
    <path
       id="path5"
       d="m 1.513737,-0.96557943 c 0.5175781,-0.58593747 0.9375,-0.95703127 1.5332031,-1.49414067 0.7226563,-0.625 1.0253906,-0.9179687 1.2011719,-1.1035156 0.8300781,-0.8203125 1.25,-1.5136719 1.25,-1.6113281 0,-0.097656 -0.097656,-0.097656 -0.1171875,-0.097656 -0.087891,0 -0.1074219,0.048828 -0.1660156,0.1367188 -0.3027344,0.5078125 -0.5859375,0.7617187 -0.8984375,0.7617187 -0.2539063,0 -0.3808594,-0.1074218 -0.6152344,-0.390625 -0.2441406,-0.3027343 -0.4492188,-0.5078125 -0.8007813,-0.5078125 -0.8691406,0 -1.3964843,1.09375 -1.3964843,1.3378907 0,0.039063 0.00977,0.1074218 0.1171875,0.1074218 0.097656,0 0.1074218,-0.048828 0.1464843,-0.1269531 0.2050782,-0.4785156 0.78125,-0.5664062 1.0058594,-0.5664062 0.2539063,0 0.4882813,0.087891 0.7421875,0.1953125 0.4492188,0.1855468 0.6445313,0.1855468 0.7617188,0.1855468 0.087891,0 0.1367187,0 0.1953125,-0.00977 -0.4003907,0.46875 -1.0449219,1.0449219 -1.5820313,1.5332031 l -1.2011719,1.1132813 c -0.73242185,0.7421875 -1.17187497,1.4453125 -1.17187497,1.5234375 0,0.078125 0.0585938,0.09765625 0.12695312,0.09765625 0.0683594,0 0.0878906,-0.009766 0.16601563,-0.15625 0.19531252,-0.29296875 0.57617192,-0.7421875 1.01562502,-0.7421875 0.2539062,0 0.3710937,0.0878906 0.6152344,0.390625 0.2246093,0.26367187 0.4296875,0.5078125 0.8105468,0.5078125 1.171875,0 1.8359375,-1.51367185 1.8359375,-1.78710935 0,-0.048828 -0.00977,-0.1269532 -0.1269531,-0.1269532 -0.097656,0 -0.1074219,0.048828 -0.1464844,0.1757813 -0.2636718,0.703125 -0.9667968,0.98632812 -1.4355468,0.98632812 -0.2441407,0 -0.4882813,-0.078125 -0.7324219,-0.18554687 C 2.1680339,-1.0144076 2.0313151,-1.0144076 1.8750651,-1.0144076 c -0.1171875,0 -0.2539062,0 -0.3613281,0.0488282 z m 0,0"
       style="fill:#000000;fill-opacity:1;fill-rule:nonzero;stroke:none"
       aria-label="z"
       transform="matrix(1.6,0,0,1.6,214.27333,31.861333)" />
    <path
       id="path6"
       d="M 5.3613021,-2.3146745 H 5.1073958 c -0.097656,0.9082031 -0.2246093,2.04101565 -1.8261718,2.04101565 h -0.78125 c -0.4199219,0 -0.4394532,-0.0683594 -0.4394532,-0.37109375 v -4.765625 c 0,-0.3320313 0.039063,-0.4394531 0.8496094,-0.4394531 H 3.203099 v -0.2734375 c -0.3125,0.029297 -1.1328125,0.029297 -1.4941407,0.029297 -0.4101562,0 -0.96679684,0 -1.36718747,-0.029297 v 0.2734375 h 0.20507813 c 0.69335934,0 0.71289064,0.1074218 0.71289064,0.4394531 v 4.69726562 c 0,0.33203125 -0.019531,0.43945313 -0.71289064,0.43945313 H 0.34177083 V -2.2135417e-4 H 5.1073958 Z m 3.4643555,1.6699219 c 0.048828,0.37109375 0.3027343,0.703125 0.6933593,0.703125 0.2246094,0 0.7812501,-0.13671875 0.7812501,-0.859375 v -0.4980469 h -0.244141 v 0.48828127 c 0,0.0976563 0,0.546875 -0.3222653,0.546875 -0.3222656,0 -0.3222656,-0.4296875 -0.3222656,-0.56640625 V -2.4025651 c 0,-0.5078125 0,-0.8203125 -0.4101563,-1.1816406 -0.3320312,-0.2929688 -0.7617187,-0.4296875 -1.2109375,-0.4296875 -0.7519531,0 -1.3769531,0.3710937 -1.3769531,0.9472656 0,0.2832031 0.1855469,0.4296875 0.4199219,0.4296875 0.2441406,0 0.4101562,-0.1757813 0.4101562,-0.4101563 0,-0.390625 -0.390625,-0.4296875 -0.4003906,-0.4296875 0.2441406,-0.234375 0.6738281,-0.3125 0.9375,-0.3125 0.4492187,0 0.9667969,0.3417969 0.9667969,1.1230469 v 0.3027344 c -0.4882813,0.00977 -1.1621094,0.058594 -1.7578125,0.3417969 -0.6445313,0.3222656 -0.8496094,0.78125 -0.8496094,1.1425781 0,0.73242187 0.8789062,0.9765625 1.4746094,0.9765625 0.7421875,0 1.0839843,-0.48828125 1.2109375,-0.7421875 z M 8.7475326,-1.259987 c 0,0.86914065 -0.6738282,1.13281252 -1.0742188,1.13281252 -0.4199219,0 -0.8105469,-0.30273437 -0.8105469,-0.75195312 0,-0.5957031 0.5078125,-1.2207031 1.8847657,-1.2695313 z m 4.5288084,-2.3242187 v -0.2832032 h -1.298828 v -1.6503906 h -0.244141 c -0.0098,0.7617188 -0.332031,1.6796875 -1.201171,1.7089844 v 0.2246094 h 0.78125 v 2.4707031 c 0,1.00585937 0.732421,1.2109375 1.201171,1.2109375 0.605469,0 0.917969,-0.57617188 0.917969,-1.2109375 v -0.5078125 h -0.253906 v 0.4785156 c 0,0.66406252 -0.273438,0.98632815 -0.595703,0.98632815 -0.605469,0 -0.605469,-0.78125 -0.605469,-0.94726565 v -2.4804687 z m 4.257813,1.5332031 c 0.195312,0 0.24414,0 0.24414,-0.1855469 0,-0.9277344 -0.498047,-1.7773437 -1.65039,-1.7773437 -1.074219,0 -1.914063,0.9277343 -1.914063,2.0410156 0,1.171875 0.9375,2.0703125 2.03125,2.0703125 1.09375,0 1.533203,-0.95703125 1.533203,-1.1621094 0,-0.068359 -0.04883,-0.1171875 -0.126953,-0.1171875 -0.08789,0 -0.117187,0.058594 -0.126953,0.097656 -0.302734,0.91796872 -1.103516,0.92773435 -1.230469,0.92773435 -0.429687,0 -0.800781,-0.234375 -1.005859,-0.546875 C 14.985326,-1.1427995 14.985326,-1.6799089 14.985326,-2.0510026 Z m -2.548828,-0.2148438 c 0.08789,-1.3867187 0.888671,-1.5234375 1.142578,-1.5234375 0.498047,0 1.035156,0.3710938 1.044922,1.5234375 z m 4.733886,-0.058594 c 0,-0.9472656 0.673828,-1.4160156 1.230469,-1.4160156 0.537109,0 0.654297,0.4394531 0.654297,0.9765625 v 2.07031247 c 0,0.41992188 -0.107422,0.41992188 -0.69336,0.41992188 V -2.2135417e-4 C 21.33054,-0.0197526 21.496556,-0.02951823 21.926243,-0.02951823 c 0.439454,0 0.546875,0.0097656 1.025391,0.0292968758 V -0.27365885 c -0.458984,0 -0.683594,0 -0.693359,-0.28320313 V -2.275612 c 0,-0.7421875 0,-1.0058594 -0.244141,-1.3183594 -0.205078,-0.2539062 -0.546875,-0.3710937 -0.996094,-0.3710937 -0.839843,0 -1.220703,0.625 -1.347656,0.8691406 h -0.0098 v -0.8691406 l -1.298828,0.097656 v 0.2832032 c 0.615235,0 0.69336,0.058594 0.69336,0.4980468 v 2.39257817 c 0,0.41992188 -0.09766,0.41992188 -0.69336,0.41992188 V -2.2135417e-4 C 18.781712,-0.0197526 18.957493,-0.02951823 19.387181,-0.02951823 c 0.429687,0 0.546875,0.0097656 1.015625,0.0292968758 V -0.27365885 c -0.585938,0 -0.683594,0 -0.683594,-0.41992188 z m 6.101074,-1.2597656 v -0.2832032 h -1.298828 v -1.6503906 h -0.24414 c -0.0098,0.7617188 -0.332032,1.6796875 -1.201172,1.7089844 v 0.2246094 h 0.78125 v 2.4707031 c 0,1.00585937 0.732422,1.2109375 1.201172,1.2109375 0.605468,0 0.917968,-0.57617188 0.917968,-1.2109375 V -1.6213151 H 25.72263 v 0.4785156 c 0,0.66406252 -0.273437,0.98632815 -0.595703,0.98632815 -0.605469,0 -0.605469,-0.78125 -0.605469,-0.94726565 v -2.4804687 z m 0,0"
       style="fill:#000000;fill-opacity:1;fill-rule:nonzero;stroke:none"
       aria-label="Latent"
       transform="matrix(1.6,0,0,1.6,197.89067,71.070667)" />
    <path
       id="path7"
       d="m 186.25862,13.6062 68.03218,6.80365 v -40.8197 l -68.03218,6.80365 z"
       style="fill:none;stroke:#000000;stroke-width:0.79701;stroke-linecap:butt;stroke-linejoin:miter;stroke-miterlimit:10;stroke-dasharray:none;stroke-opacity:1"
       transform="matrix(1.3333333,0,0,-1.3333333,23.128,27.744)" />
    <path
       id="path8"
       d="M 0.45926432,-8.2022591 V -7.684681 H 1.7190299 v 7.16796876 H 0.45926432 V 8.6588542e-4 H 5.4885612 c 2.2949219,0 4.0625,-1.47460938542 4.0625,-4.02343748542 0,-2.7050781 -1.8164063,-4.1796875 -4.0625,-4.1796875 z M 3.2424674,-0.51671224 V -7.684681 h 1.7871094 c 1.0449219,0 1.875,0.4101563 2.3242188,1.0253906 0.3417968,0.4882813 0.5761718,1.0742188 0.5761718,2.6171875 0,1.3964844 -0.1855468,2.0214844 -0.6054687,2.5878907 -0.4199219,0.54687496 -1.2207031,0.93749996 -2.2949219,0.93749996 z M 15.708288,-2.6456185 c 0.273437,0 0.351562,0 0.351562,-0.2929687 0,-0.3613282 -0.08789,-1.2597657 -0.634765,-1.8164063 -0.507813,-0.5078125 -1.171875,-0.6542969 -1.865235,-0.6542969 -1.865234,0 -2.880859,1.2109375 -2.880859,2.7246094 0,1.6699219 1.230469,2.75390626 3.037109,2.75390626 1.806641,0 2.34375,-1.25976566 2.34375,-1.46484376 0,-0.1855469 -0.185547,-0.1855469 -0.253906,-0.1855469 -0.195312,0 -0.205078,0.039063 -0.273437,0.1953125 -0.3125,0.78125004 -1.103516,1.02539066 -1.669922,1.02539066 -1.738282,0 -1.748047,-1.61132816 -1.748047,-2.28515626 z m -3.59375,-0.3417969 c 0.01953,-0.4882812 0.0293,-0.9570312 0.283203,-1.3867187 0.224609,-0.3808594 0.644531,-0.6445313 1.162109,-0.6445313 1.279297,0 1.386719,1.4355469 1.396485,2.03125 z m 9.926758,1.5917969 c 0,-0.1464844 -0.136719,-0.1464844 -0.253907,-0.1464844 -0.185547,0 -0.205078,0.00977 -0.263672,0.15625 -0.07813,0.2246094 -0.40039,1.02539066 -1.503906,1.02539066 -1.689453,0 -1.689453,-1.81640626 -1.689453,-2.35351566 0,-0.703125 0.01953,-2.265625 1.582031,-2.265625 0.08789,0 0.791016,0.019531 0.791016,0.078125 0,0.00977 -0.0098,0.029297 -0.03906,0.039063 -0.03906,0.039063 -0.195312,0.2148438 -0.195312,0.5078125 0,0.5078125 0.410156,0.7128907 0.712891,0.7128907 0.24414,0 0.703125,-0.15625 0.703125,-0.7226563 0,-0.9765625 -1.376954,-1.0449219 -2.021485,-1.0449219 -2.128906,0 -2.958984,1.3867188 -2.958984,2.7539063 0,1.6308594 1.132812,2.72460936 2.890625,2.72460936 1.875,0 2.246094,-1.38671876 2.246094,-1.46484376 z m 6.71875,-1.2207031 c 0,-1.6113281 -1.103516,-2.7929688 -2.978516,-2.7929688 -1.953125,0 -2.988281,1.2402344 -2.988281,2.7929688 0,1.5625 1.103515,2.68554686 2.978515,2.68554686 1.94336,0 2.988282,-1.18164066 2.988282,-2.68554686 z m -2.978516,2.25585936 c -1.552734,0 -1.552734,-1.39648436 -1.552734,-2.37304686 0,-0.5664063 0,-1.1621094 0.224609,-1.5917969 0.263672,-0.4785156 0.800781,-0.6933594 1.318359,-0.6933594 0.673828,0 1.113282,0.3222657 1.308594,0.6542969 0.244141,0.4296875 0.244141,1.0546875 0.244141,1.6308594 0,0.9863281 0,2.37304686 -1.542969,2.37304686 z m 7.888184,-7.84179686 v 0.5175781 c 0.742187,0 0.820312,0 0.820312,0.46875 v 2.4121094 c -0.263672,-0.2246094 -0.791016,-0.5761719 -1.611328,-0.5761719 -1.699219,0 -2.900391,1.0546875 -2.900391,2.7246094 0,1.70898436 1.181641,2.72460936 2.763672,2.72460936 0.664063,0 1.220703,-0.22460937 1.689453,-0.61523437 V 0.06922526 L 36.560339,8.6588542e-4 V -0.51671224 c -0.742188,0 -0.830079,0 -0.830079,-0.45898437 V -8.2901497 Z m 0.761718,6.9921875 c -0.498047,0.73242186 -1.113281,0.88867186 -1.542968,0.88867186 -1.484375,0 -1.484375,-1.51367186 -1.484375,-2.30468746 0,-0.5664063 0,-1.1621094 0.263671,-1.6210938 0.371094,-0.6640625 1.074219,-0.7324219 1.357422,-0.7324219 0.488282,0 1.015625,0.2148438 1.40625,0.7324219 z m 7.958985,-1.4355469 c 0.273437,0 0.351562,0 0.351562,-0.2929687 0,-0.3613282 -0.08789,-1.2597657 -0.634765,-1.8164063 -0.507813,-0.5078125 -1.171875,-0.6542969 -1.865235,-0.6542969 -1.865234,0 -2.880859,1.2109375 -2.880859,2.7246094 0,1.6699219 1.230469,2.75390626 3.037109,2.75390626 1.806641,0 2.34375,-1.25976566 2.34375,-1.46484376 0,-0.1855469 -0.185547,-0.1855469 -0.253906,-0.1855469 -0.195313,0 -0.205078,0.039063 -0.273438,0.1953125 -0.3125,0.78125004 -1.103515,1.02539066 -1.669921,1.02539066 -1.738282,0 -1.748047,-1.61132816 -1.748047,-2.28515626 z m -3.59375,-0.3417969 c 0.01953,-0.4882812 0.0293,-0.9570312 0.283203,-1.3867187 0.224609,-0.3808594 0.644531,-0.6445313 1.162109,-0.6445313 1.279297,0 1.386719,1.4355469 1.396485,2.03125 z m 6.821289,0.3027344 c 0,-0.4003906 0.07813,-2.2949219 1.474609,-2.2949219 -0.166016,0.1269532 -0.244141,0.3320313 -0.244141,0.546875 0,0.4882813 0.390625,0.6933594 0.69336,0.6933594 0.292969,0 0.693359,-0.2050781 0.693359,-0.6933594 0,-0.6152343 -0.625,-0.9472656 -1.201172,-0.9472656 -0.9375,0 -1.347656,0.8300781 -1.513672,1.328125 h -0.0098 v -1.328125 l -1.962891,0.097656 v 0.5175781 c 0.742188,0 0.820313,0 0.820313,0.4589844 v 3.78906246 H 43.547643 V 8.6588542e-4 C 43.821081,-0.01866536 44.719518,-0.01866536 45.051549,-0.01866536 c 0.351563,0 1.31836,0 1.601563,0.0195312454 V -0.51671224 h -1.035156 z m 0,0"
       style="fill:#000000;fill-opacity:1;fill-rule:nonzero;stroke:none"
       aria-label="Decoder"
       transform="matrix(1.6,0,0,1.6,277.92533,34.385333)" />
    <g
       id="g8"
       aria-label="ˆx"
       transform="matrix(1.6,0,0,1.6,410.88533,34.385333)">
      <path
         id="path9"
         d="m 2.9305534,-8.2901497 -1.5625,1.6210937 0.1855469,0.1757813 1.3671875,-1.2304688 1.3671875,1.2304688 0.1953125,-0.1757813 z m 0,0"
         style="fill:#000000;fill-opacity:1;fill-rule:nonzero;stroke:none" />
      <path
         id="path10"
         d="m 4.9422721,-4.872181 c -0.3808593,0.068359 -0.5273437,0.3515625 -0.5273437,0.5859375 0,0.2832031 0.234375,0.3808594 0.4003906,0.3808594 0.3515625,0 0.6054688,-0.3125 0.6054688,-0.6347656 0,-0.5078125 -0.5761719,-0.7324219 -1.0742188,-0.7324219 -0.7324219,0 -1.1328125,0.7226562 -1.2402344,0.9472656 -0.2734375,-0.8984375 -1.015625,-0.9472656 -1.2304687,-0.9472656 -1.22070314,0 -1.86523439,1.5722656 -1.86523439,1.8261719 0,0.048828 0.04882813,0.1171875 0.12695313,0.1171875 0.0976563,0 0.1171875,-0.078125 0.14648437,-0.1269532 0.40039063,-1.328125 1.20117189,-1.5722656 1.55273439,-1.5722656 0.5371094,0 0.6445312,0.4980469 0.6445312,0.78125 0,0.2636719 -0.068359,0.546875 -0.2148437,1.1132813 l -0.4101563,1.640625 c -0.1757812,0.71289059 -0.5175781,1.37695309 -1.15234371,1.37695309 -0.0585938,0 -0.36132813,0 -0.61523438,-0.15625 0.4296875,-0.0878906 0.52734375,-0.43945313 0.52734375,-0.5859375 0,-0.24414059 -0.17578125,-0.38085939 -0.41015625,-0.38085939 -0.28320312,0 -0.59570312,0.24414064 -0.59570312,0.63476564 0,0.49804687 0.56640625,0.72265625 1.07421875,0.72265625 0.57617186,0 0.98632816,-0.44921875 1.24023436,-0.9375 0.1855469,0.703125 0.78125,0.9375 1.2304688,0.9375 1.2109375,0 1.8652343,-1.56249999 1.8652343,-1.82617189 0,-0.058594 -0.048828,-0.1074219 -0.1269531,-0.1074219 -0.1074219,0 -0.1171875,0.058594 -0.15625,0.15625 -0.3222656,1.05468754 -1.015625,1.54296879 -1.5527344,1.54296879 -0.4199218,0 -0.6445312,-0.3125 -0.6445312,-0.80078125 0,-0.26367184 0.048828,-0.45898434 0.2441406,-1.25000004 l 0.4101563,-1.6210937 c 0.1855468,-0.7128906 0.5859375,-1.2402344 1.1425781,-1.2402344 0.019531,0 0.3515625,0 0.6054687,0.15625 z m 0,0"
         style="fill:#000000;fill-opacity:1;fill-rule:nonzero;stroke:none" />
    </g>
    <path
       id="path11"
       d="m 2.0512891,-3.172793 v -2.3046875 c 0,-0.234375 0.019531,-0.3125 0.1855468,-0.3515625 0.087891,-0.019531 0.3710938,-0.019531 0.5566407,-0.019531 0.7714843,0 1.9140625,0 1.9140625,1.3378906 0,0.7714844 -0.390625,1.3378906 -1.6113282,1.3378906 z m 2.0214843,0.1367188 c 0.8496094,-0.2441406 1.5527344,-0.7714844 1.5527344,-1.4746094 0,-0.8886719 -1.0839844,-1.6113281 -2.4023437,-1.6113281 H 0.36183594 v 0.2734375 h 0.20507812 c 0.69335934,0 0.70312504,0.1074219 0.70312504,0.4394531 v 4.69726563 c 0,0.33203125 -0.00977,0.43945313 -0.70312504,0.43945313 H 0.36183594 v 0.2734375 c 0.41992187,-0.02929688 0.86914066,-0.02929688 1.29882816,-0.02929688 0.4296875,0 0.8789062,0 1.3085937,0.02929688 v -0.2734375 H 2.7641797 c -0.6933594,0 -0.7128906,-0.10742188 -0.7128906,-0.43945313 V -2.9481836 h 1.0742187 c 0.6445313,0 0.9375,0.3417969 0.9765625,0.3808594 0.2636719,0.3320312 0.2636719,0.4589844 0.2636719,1.09375 0,0.60546873 0,0.99609373 0.4296875,1.33789061 0.4199219,0.33203125 0.9570312,0.33203125 1.0546875,0.33203125 0.7617187,0 0.8886719,-0.78125 0.8886719,-0.99609375 0,-0.0488281 0,-0.15625 -0.1269532,-0.15625 -0.1074218,0 -0.1074218,0.078125 -0.1171875,0.14648437 -0.048828,0.56640625 -0.3222656,0.78125 -0.6054687,0.78125 -0.2832031,0 -0.3808594,-0.17578125 -0.4589844,-0.33203125 C 5.3520703,-0.55560547 5.2739453,-1.1610742 5.2153516,-1.5712305 5.1469922,-2.1278711 5.0688672,-2.7235742 4.0727734,-3.0360742 Z m 6.2939456,0.9863281 c 0.195312,0 0.24414,0 0.24414,-0.1855469 0,-0.9277343 -0.498046,-1.7773437 -1.6503902,-1.7773437 -1.0742188,0 -1.9140625,0.9277344 -1.9140625,2.0410156 0,1.17187501 0.9375,2.07031251 2.03125,2.07031251 1.0937497,0 1.5332027,-0.95703125 1.5332027,-1.16210941 0,-0.068359 -0.04883,-0.1171875 -0.126953,-0.1171875 -0.08789,0 -0.117187,0.058594 -0.126953,0.097656 -0.302734,0.91796873 -1.1035155,0.92773436 -1.2304686,0.92773436 -0.4296875,0 -0.8007813,-0.234375 -1.0058594,-0.546875 C 7.8178906,-1.141543 7.8178906,-1.6786523 7.8178906,-2.0497461 Z M 7.8178906,-2.2645898 c 0.087891,-1.3867188 0.8886719,-1.5234375 1.1425782,-1.5234375 0.4980468,0 1.0351562,0.3710937 1.0449222,1.5234375 z m 6.3256834,-1.2597657 c -0.185547,0.039063 -0.361328,0.1660157 -0.361328,0.4199219 0,0.234375 0.175781,0.4199219 0.410156,0.4199219 0.234375,0 0.419922,-0.15625 0.419922,-0.4296875 0,-0.5566406 -0.625,-0.8984375 -1.416015,-0.8984375 -1.152344,0 -2.011719,0.9570312 -2.011719,2.0800781 0,1.15234376 0.9375,2.03125001 1.992187,2.03125001 1.25,0 1.533203,-1.08398438 1.533203,-1.16210941 0,-0.1074218 -0.09766,-0.1074218 -0.126953,-0.1074218 -0.09766,0 -0.09766,0.019531 -0.146484,0.1660156 -0.214844,0.62499998 -0.712891,0.84960936 -1.171875,0.84960936 -0.576172,0 -1.308594,-0.45898438 -1.308594,-1.78710936 0,-1.3964844 0.722656,-1.8261719 1.259766,-1.8261719 0.117187,0 0.595703,0.019531 0.927734,0.2441406 z m 5.170899,1.6113282 c 0,-1.171875 -0.927735,-2.0996094 -2.03125,-2.0996094 -1.142578,0 -2.041016,0.9570312 -2.041016,2.0996094 0,1.12304683 0.927734,2.01171871 2.03125,2.01171871 1.142578,0 2.041016,-0.90820313 2.041016,-2.01171871 z m -2.03125,1.75781246 c -0.449219,0 -0.830078,-0.22460938 -1.035157,-0.56640625 -0.234375,-0.38085941 -0.234375,-0.85937501 -0.234375,-1.26953121 0,-0.3320313 0,-0.8398438 0.22461,-1.2109375 0.263672,-0.4589844 0.71289,-0.5859375 1.035156,-0.5859375 0.507813,0 0.878906,0.2832031 1.054688,0.5859375 0.205078,0.3808593 0.214843,0.8398437 0.214843,1.2109375 0,0.3320312 0,0.8496093 -0.224609,1.24999996 -0.244141,0.41015625 -0.664063,0.5859375 -1.035156,0.5859375 z m 3.972168,-2.16796876 c 0,-0.9472656 0.673828,-1.4160156 1.230468,-1.4160156 0.53711,0 0.654297,0.4394531 0.654297,0.9765625 v 2.07031248 c 0,0.41992188 -0.107422,0.41992188 -0.693359,0.41992188 v 0.2734375 c 0.419922,-0.01953125 0.585937,-0.02929688 1.015625,-0.02929688 0.439453,0 0.546875,0.0097656 1.025391,0.02929688 v -0.2734375 c -0.458985,0 -0.683594,0 -0.69336,-0.28320313 V -2.2743555 c 0,-0.7421875 0,-1.0058593 -0.24414,-1.3183593 -0.205079,-0.2539063 -0.546875,-0.3710938 -0.996094,-0.3710938 -0.839844,0 -1.220703,0.625 -1.347656,0.8691406 h -0.0098 v -0.8691406 l -1.298828,0.097656 v 0.2832031 c 0.615234,0 0.693359,0.058594 0.693359,0.4980469 v 2.39257808 c 0,0.41992188 -0.09766,0.41992188 -0.693359,0.41992188 v 0.2734375 c 0.419922,-0.01953125 0.595703,-0.02929688 1.02539,-0.02929688 0.429688,0 0.546875,0.0097656 1.015625,0.02929688 v -0.2734375 c -0.585937,0 -0.683593,0 -0.683593,-0.41992188 z m 6.535644,-1.4550781 c 0,-0.15625 0,-0.234375 -0.107422,-0.234375 -0.04883,0 -0.06836,0 -0.185547,0.1074219 -0.0098,0.019531 -0.09766,0.097656 -0.146484,0.1367187 -0.283203,-0.1953125 -0.556641,-0.2441406 -0.859375,-0.2441406 -1.181641,0 -1.484375,0.6542969 -1.484375,1.1132812 0,0.2832032 0.126953,0.5175782 0.332031,0.7128907 0.302735,0.2734375 0.644532,0.3417968 1.103516,0.4199218 0.458984,0.087891 0.615234,0.1171875 0.810547,0.2734375 0.08789,0.068359 0.3125,0.234375 0.3125,0.57617191 0,0.79101562 -0.908203,0.79101562 -1.035156,0.79101562 -0.908204,0 -1.142579,-0.76171875 -1.25,-1.24023433 -0.0293,-0.097656 -0.03906,-0.1464844 -0.146485,-0.1464844 -0.126953,0 -0.126953,0.068359 -0.126953,0.234375 v 1.14257811 c 0,0.15625 0,0.234375 0.107422,0.234375 0.05859,0 0.06836,-0.0097656 0.224609,-0.17578125 0.03906,-0.05859375 0.136719,-0.17578125 0.185547,-0.21484375 0.371094,0.36132812 0.78125,0.390625 1.00586,0.390625 1.103515,0 1.49414,-0.64453125 1.49414,-1.25000001 0,-0.4003906 -0.185547,-0.6445312 -0.380859,-0.8496094 -0.302735,-0.2929687 -0.625,-0.3515625 -1.289063,-0.4785156 -0.234375,-0.048828 -0.888672,-0.1660156 -0.888672,-0.6738281 0,-0.2929688 0.205079,-0.6640625 1.025391,-0.6640625 0.966797,0 1.025391,0.7421875 1.044922,0.9667969 0.0098,0.1074218 0.0098,0.1660156 0.126953,0.1660156 0.126953,0 0.126953,-0.068359 0.126953,-0.234375 z m 3.459473,0.1953125 V -3.8661523 H 29.95168 V -5.516543 h -0.244141 c -0.0098,0.7617188 -0.332031,1.6796875 -1.201172,1.7089844 v 0.2246094 h 0.78125 v 2.4707031 c 0,1.00585938 0.732422,1.21093751 1.201172,1.21093751 0.605469,0 0.917969,-0.57617188 0.917969,-1.21093751 v -0.5078125 h -0.253906 v 0.4785156 c 0,0.66406253 -0.273438,0.98632816 -0.595704,0.98632816 -0.605468,0 -0.605468,-0.78125 -0.605468,-0.94726566 v -2.4804687 z m 2.265625,1.5332031 c 0,-0.3710937 0.107422,-1.6894531 1.123047,-1.6894531 v 0.00977 c -0.01953,0.00977 -0.15625,0.1171875 -0.15625,0.3320313 0,0.2441406 0.185547,0.390625 0.390625,0.390625 0.185547,0 0.390625,-0.1269532 0.390625,-0.4003907 0,-0.2832031 -0.263672,-0.5566406 -0.664063,-0.5566406 -0.546875,0 -0.917969,0.3808594 -1.123047,0.9375 h -0.0098 v -0.9375 l -1.269532,0.097656 v 0.2832031 c 0.605469,0 0.683594,0.058594 0.683594,0.4980469 v 2.39257808 c 0,0.41992188 -0.09766,0.41992188 -0.683594,0.41992188 v 0.2734375 c 0.46875,-0.01953125 0.585938,-0.02929688 1.044922,-0.02929688 0.361328,0 0.576172,0.0097656 1.142578,0.02929688 v -0.2734375 h -0.185546 c -0.654297,0 -0.683594,-0.10742188 -0.683594,-0.43945313 z m 5.568847,0.5566406 c 0,0.79101566 -0.449218,1.36718753 -1.09375,1.36718753 -0.751953,0 -0.791015,-0.38085937 -0.791015,-0.86914062 V -3.9638086 l -1.357422,0.097656 v 0.2832031 c 0.693359,0 0.693359,0.029297 0.693359,0.8203125 v 1.3476562 c 0,0.58593753 0,0.95703128 0.410157,1.26953128 0.263671,0.18554688 0.625,0.24414063 0.986328,0.24414063 0.46875,0 0.908203,-0.20507813 1.162109,-0.7421875 h 0.0098 v 0.7421875 l 1.328125,-0.09765625 v -0.2734375 c -0.605469,0 -0.69336,-0.0683594 -0.69336,-0.5078125 V -3.9638086 l -1.347656,0.097656 v 0.2832031 c 0.605469,0 0.693359,0.058594 0.693359,0.4980469 z m 4.826661,-2.03125 c -0.185547,0.039063 -0.361328,0.1660157 -0.361328,0.4199219 0,0.234375 0.175781,0.4199219 0.410156,0.4199219 0.234375,0 0.419922,-0.15625 0.419922,-0.4296875 0,-0.5566406 -0.625,-0.8984375 -1.416016,-0.8984375 -1.152344,0 -2.011719,0.9570312 -2.011719,2.0800781 0,1.15234376 0.9375,2.03125001 1.992188,2.03125001 1.25,0 1.533203,-1.08398438 1.533203,-1.16210941 0,-0.1074218 -0.09766,-0.1074218 -0.126953,-0.1074218 -0.09766,0 -0.09766,0.019531 -0.146485,0.1660156 -0.214843,0.62499998 -0.71289,0.84960936 -1.171875,0.84960936 -0.576171,0 -1.308593,-0.45898438 -1.308593,-1.78710936 0,-1.3964844 0.722656,-1.8261719 1.259765,-1.8261719 0.117188,0 0.595703,0.019531 0.927735,0.2441406 z m 3.742675,-0.058594 V -3.8661523 H 46.355488 V -5.516543 h -0.24414 c -0.0098,0.7617188 -0.332032,1.6796875 -1.201172,1.7089844 v 0.2246094 h 0.78125 v 2.4707031 c 0,1.00585938 0.732422,1.21093751 1.201172,1.21093751 0.605468,0 0.917968,-0.57617188 0.917968,-1.21093751 V -1.6200586 H 47.55666 v 0.4785156 c 0,0.66406253 -0.273437,0.98632816 -0.595703,0.98632816 -0.605469,0 -0.605469,-0.78125 -0.605469,-0.94726566 v -2.4804687 z m 2.324219,-0.3808594 -1.289062,0.097656 v 0.2832031 c 0.566406,0 0.654297,0.048828 0.654297,0.4882812 v 2.40234378 c 0,0.41992188 -0.09766,0.41992188 -0.69336,0.41992188 v 0.2734375 c 0.400391,-0.01953125 0.595703,-0.02929688 0.986328,-0.02929688 0.146485,0 0.517578,0 0.957032,0.02929688 v -0.2734375 c -0.576172,0 -0.615235,-0.0488281 -0.615235,-0.40039063 z m 0.0293,-1.5527344 c 0,-0.2734375 -0.214844,-0.4882812 -0.488281,-0.4882812 -0.273438,0 -0.478516,0.2246094 -0.478516,0.4882812 0,0.2539063 0.205078,0.4785157 0.478516,0.4785157 0.273437,0 0.488281,-0.2148438 0.488281,-0.4785157 z m 5.217285,3.6035157 c 0,-1.171875 -0.927734,-2.0996094 -2.03125,-2.0996094 -1.142578,0 -2.041015,0.9570312 -2.041015,2.0996094 0,1.12304683 0.927734,2.01171871 2.03125,2.01171871 1.142578,0 2.041015,-0.90820313 2.041015,-2.01171871 z m -2.03125,1.75781246 c -0.449219,0 -0.830078,-0.22460938 -1.035156,-0.56640625 -0.234375,-0.38085941 -0.234375,-0.85937501 -0.234375,-1.26953121 0,-0.3320313 0,-0.8398438 0.224609,-1.2109375 0.263672,-0.4589844 0.712891,-0.5859375 1.035157,-0.5859375 0.507812,0 0.878906,0.2832031 1.054687,0.5859375 0.205078,0.3808593 0.214844,0.8398437 0.214844,1.2109375 0,0.3320312 0,0.8496093 -0.22461,1.24999996 -0.24414,0.41015625 -0.664062,0.5859375 -1.035156,0.5859375 z m 3.972168,-2.16796876 c 0,-0.9472656 0.673828,-1.4160156 1.230469,-1.4160156 0.537109,0 0.654297,0.4394531 0.654297,0.9765625 v 2.07031248 c 0,0.41992188 -0.107422,0.41992188 -0.69336,0.41992188 v 0.2734375 c 0.419922,-0.01953125 0.585938,-0.02929688 1.015625,-0.02929688 0.439454,0 0.546875,0.0097656 1.025391,0.02929688 v -0.2734375 c -0.458984,0 -0.683594,0 -0.693359,-0.28320313 V -2.2743555 c 0,-0.7421875 0,-1.0058593 -0.244141,-1.3183593 -0.205078,-0.2539063 -0.546875,-0.3710938 -0.996094,-0.3710938 -0.839843,0 -1.220703,0.625 -1.347656,0.8691406 h -0.0098 v -0.8691406 l -1.298828,0.097656 v 0.2832031 c 0.615235,0 0.69336,0.058594 0.69336,0.4980469 v 2.39257808 c 0,0.41992188 -0.09766,0.41992188 -0.69336,0.41992188 v 0.2734375 c 0.419922,-0.01953125 0.595703,-0.02929688 1.025391,-0.02929688 0.429687,0 0.546875,0.0097656 1.015625,0.02929688 v -0.2734375 c -0.585938,0 -0.683594,0 -0.683594,-0.41992188 z m 0,0"
       style="fill:#000000;fill-opacity:1;fill-rule:nonzero;stroke:none"
       aria-label="Reconstruction"
       transform="matrix(1.6,0,0,1.6,366.632,73.596)" />
    <path
       id="path12"
       d="M 8.21664,0 H 33.49065"
       style="fill:none;stroke:#000000;stroke-width:0.79701;stroke-linecap:butt;stroke-linejoin:miter;stroke-miterlimit:10;stroke-dasharray:none;stroke-opacity:1"
       transform="matrix(1.3333333,0,0,-1.3333333,23.128,27.744)" />
    <path
       id="path13"
       d="M 4.53381,0 C 3.97704,0.13808 1.52963,0.92049 0,1.77196 V -1.77196 C 1.52963,-0.92049 3.97704,-0.13808 4.53381,0 Z"
       style="fill:#000000;fill-opacity:1;fill-rule:nonzero;stroke:#000000;stroke-width:0.79701;stroke-linecap:butt;stroke-linejoin:miter;stroke-miterlimit:10;stroke-dasharray:none;stroke-opacity:1"
       transform="matrix(1.3333333,0,0,-1.3333333,67.7822,27.744)" />
    <path
       id="path14"
       d="m 107.69975,0 h 25.28743"
       style="fill:none;stroke:#000000;stroke-width:0.79701;stroke-linecap:butt;stroke-linejoin:miter;stroke-miterlimit:10;stroke-dasharray:none;stroke-opacity:1"
       transform="matrix(1.3333333,0,0,-1.3333333,23.128,27.744)" />
    <path
       id="path15"
       d="M 4.53381,0 C 3.97704,0.13808 1.52963,0.92049 0,1.77196 V -1.77196 C 1.52963,-0.92049 3.97704,-0.13808 4.53381,0 Z"
       style="fill:#000000;fill-opacity:1;fill-rule:nonzero;stroke:#000000;stroke-width:0.79701;stroke-linecap:butt;stroke-linejoin:miter;stroke-miterlimit:10;stroke-dasharray:none;stroke-opacity:1"
       transform="matrix(1.3333333,0,0,-1.3333333,200.44424,27.744)" />
    <path
       id="path16"
       d="m 154.77943,0 h 25.30225"
       style="fill:none;stroke:#000000;stroke-width:0.79701;stroke-linecap:butt;stroke-linejoin:miter;stroke-miterlimit:10;stroke-dasharray:none;stroke-opacity:1"
       transform="matrix(1.3333333,0,0,-1.3333333,23.128,27.744)" />
    <path
       id="path17"
       d="M 4.53381,0 C 3.97704,0.13808 1.52963,0.92049 0,1.77196 V -1.77196 C 1.52963,-0.92049 3.97704,-0.13808 4.53381,0 Z"
       style="fill:#000000;fill-opacity:1;fill-rule:nonzero;stroke:#000000;stroke-width:0.79701;stroke-linecap:butt;stroke-linejoin:miter;stroke-miterlimit:10;stroke-dasharray:none;stroke-opacity:1"
       transform="matrix(1.3333333,0,0,-1.3333333,263.23691,27.744)" />
    <path
       id="path18"
       d="m 254.2908,0 25.31569,6e-5"
       style="fill:none;stroke:#000000;stroke-width:0.79701;stroke-linecap:butt;stroke-linejoin:miter;stroke-miterlimit:10;stroke-dasharray:none;stroke-opacity:1"
       transform="matrix(1.3333333,0,0,-1.3333333,23.128,27.744)" />
    <path
       id="path19"
       d="M 4.53381,0 C 3.97704,0.13808 1.52963,0.92049 0,1.77196 V -1.77196 C 1.52963,-0.92049 3.97704,-0.13808 4.53381,0 Z"
       style="fill:#000000;fill-opacity:1;fill-rule:nonzero;stroke:#000000;stroke-width:0.79701;stroke-linecap:butt;stroke-linejoin:miter;stroke-miterlimit:10;stroke-dasharray:none;stroke-opacity:1"
       transform="matrix(1.3333333,0,0,-1.3333333,395.93665,27.74392)" />
  </g>
</svg>
