<?xml version="1.0" encoding="UTF-8" standalone="no"?>
<!-- Created with Inkscape (http://www.inkscape.org/) -->

<svg
   version="1.1"
   id="svg1"
   width="457.48828"
   height="78.496742"
   viewBox="0 0 457.48828 78.496742"
   xmlns="http://www.w3.org/2000/svg"
   xmlns:svg="http://www.w3.org/2000/svg">
  <defs
     id="defs1" />
  <g
     id="g1"
     transform="translate(-5.78125,0.05533604)">
    <path
       id="path1"
       d="m 5.6652669,-4.8723568 c -0.3808593,0.068359 -0.5273437,0.3515625 -0.5273437,0.5859375 0,0.2832032 0.234375,0.3808594 0.4003906,0.3808594 0.3515625,0 0.6054688,-0.3125 0.6054688,-0.6347656 0,-0.5078125 -0.5761719,-0.7324219 -1.0742188,-0.7324219 -0.7324219,0 -1.1328125,0.7226563 -1.2402344,0.9472656 -0.2734375,-0.8984375 -1.015625,-0.9472656 -1.2304687,-0.9472656 -1.2207031,0 -1.8652344,1.5722656 -1.8652344,1.8261719 0,0.048828 0.0488281,0.1171875 0.12695313,0.1171875 0.0976563,0 0.1171875,-0.078125 0.14648437,-0.1269531 0.4003906,-1.328125 1.2011719,-1.5722657 1.5527344,-1.5722657 0.5371094,0 0.6445312,0.4980469 0.6445312,0.78125 0,0.2636719 -0.068359,0.546875 -0.2148437,1.1132813 l -0.4101563,1.640625 c -0.1757812,0.7128906 -0.5175781,1.3769531 -1.1523437,1.3769531 -0.058594,0 -0.3613281,0 -0.6152344,-0.15625 0.4296875,-0.0878906 0.5273438,-0.43945312 0.5273438,-0.5859375 0,-0.2441406 -0.1757813,-0.3808594 -0.4101563,-0.3808594 -0.28320312,0 -0.59570312,0.24414065 -0.59570312,0.63476565 0,0.49804688 0.56640625,0.72265625 1.07421872,0.72265625 0.5761719,0 0.9863282,-0.44921875 1.2402344,-0.9375 0.1855469,0.703125 0.78125,0.9375 1.2304688,0.9375 1.2109375,0 1.8652343,-1.5625 1.8652343,-1.8261719 0,-0.058594 -0.048828,-0.1074218 -0.1269531,-0.1074218 -0.1074219,0 -0.1171875,0.058594 -0.15625,0.15625 -0.3222656,1.05468745 -1.015625,1.5429687 -1.5527344,1.5429687 -0.4199218,0 -0.6445312,-0.3125 -0.6445312,-0.80078125 0,-0.26367185 0.048828,-0.45898435 0.2441406,-1.24999995 l 0.4101563,-1.6210938 c 0.1855468,-0.7128906 0.5859375,-1.2402344 1.1425781,-1.2402344 0.019531,0 0.3515625,0 0.6054687,0.15625 z m 0,0"
       style="fill:#000000;fill-opacity:1;fill-rule:nonzero;stroke:none"
       aria-label="x"
       transform="matrix(1.6,0,0,1.6,17.806667,36.397333)" />
    <path
       id="path2"
       d="m 2.060026,-5.4109049 c 0,-0.3320313 0.019531,-0.4394532 0.7324219,-0.4394532 h 0.2246094 v -0.2734375 c -0.3613281,0.029297 -0.9765625,0.029297 -1.3574219,0.029297 -0.390625,0 -0.99609373,0 -1.36718748,-0.029297 v 0.2734375 h 0.22460937 c 0.72265621,0 0.74218751,0.1074219 0.74218751,0.4394532 v 4.69726558 c 0,0.33203125 -0.019531,0.43945312 -0.74218751,0.43945312 H 0.29244792 V -7.4869792e-4 C 0.66354167,-0.03004557 1.2690104,-0.03004557 1.6596354,-0.03004557 c 0.3808594,0 0.9960938,0 1.3574219,0.0292968721 V -0.2741862 H 2.7924479 c -0.7128906,0 -0.7324219,-0.10742187 -0.7324219,-0.43945312 z m 2.9370118,3.0859375 c 0,-0.9472657 0.6738281,-1.4160157 1.2304687,-1.4160157 0.5371094,0 0.6542969,0.4394532 0.6542969,0.9765625 v 2.07031253 c 0,0.41992187 -0.1074219,0.41992187 -0.6933594,0.41992187 V -7.4869792e-4 C 6.6083659,-0.02027995 6.7743815,-0.03004557 7.204069,-0.03004557 c 0.4394531,0 0.546875,0.0097656 1.0253906,0.0292968721 V -0.2741862 c -0.4589843,0 -0.6835937,0 -0.6933593,-0.28320312 V -2.2761393 c 0,-0.7421875 0,-1.0058594 -0.2441407,-1.3183594 -0.2050781,-0.2539062 -0.546875,-0.3710937 -0.9960937,-0.3710937 -0.8398438,0 -1.2207031,0.625 -1.3476563,0.8691406 h -0.00977 v -0.8691406 l -1.2988281,0.097656 v 0.2832031 c 0.6152344,0 0.6933594,0.058594 0.6933594,0.4980469 v 2.39257813 c 0,0.41992187 -0.097656,0.41992187 -0.6933594,0.41992187 V -7.4869792e-4 C 4.0595378,-0.02027995 4.235319,-0.03004557 4.6650065,-0.03004557 c 0.4296875,0 0.546875,0.0097656 1.015625,0.0292968721 V -0.2741862 c -0.5859375,0 -0.6835937,0 -0.6835937,-0.41992187 z m 5.0708012,-0.6835938 c 0.302734,-0.5273437 0.800781,-0.703125 1.171875,-0.703125 0.703125,0 1.240234,0.8105469 1.240234,1.7773438 0,1.01562495 -0.605469,1.80664058 -1.337891,1.80664058 -0.40039,0 -0.742187,-0.234375 -0.957031,-0.546875 -0.117187,-0.17578125 -0.117187,-0.1953125 -0.117187,-0.36132808 z m 0,2.578125 c 0.234375,0.234375 0.537109,0.52734375 1.132812,0.52734375 1.064453,0 2.050781,-0.859375 2.050781,-2.03124995 0,-1.1328125 -0.878906,-2.03125 -1.933593,-2.03125 -0.488282,0 -0.9375,0.1953125 -1.279297,0.5664062 v -0.5664062 l -1.3183597,0.097656 v 0.2832031 c 0.6347656,0 0.6835937,0.048828 0.6835937,0.4394532 V 1.044173 c 0,0.4199219 -0.097656,0.4199219 -0.6835937,0.4199219 v 0.2734375 c 0.4199219,-0.019531 0.5859375,-0.029297 1.015625,-0.029297 0.4296877,0 0.5468747,0.00977 1.0253907,0.029297 V 1.4640951 c -0.595703,0 -0.693359,0 -0.693359,-0.4199219 z m 7.053222,-1.0644531 c 0,0.7910156 -0.449219,1.36718748 -1.09375,1.36718748 -0.751953,0 -0.791015,-0.38085938 -0.791015,-0.86914063 V -3.9655924 l -1.357422,0.097656 v 0.2832031 c 0.693359,0 0.693359,0.029297 0.693359,0.8203125 v 1.3476563 c 0,0.58593748 0,0.95703123 0.410156,1.26953123 0.263672,0.18554687 0.625,0.24414062 0.986328,0.24414062 0.46875,0 0.908204,-0.20507812 1.16211,-0.7421875 h 0.0098 v 0.7421875 L 18.468752,-7.488979e-4 V -0.2741862 c -0.605468,0 -0.693359,-0.0683594 -0.693359,-0.5078125 v -3.1835937 l -1.347656,0.097656 v 0.2832031 c 0.605469,0 0.693359,0.058594 0.693359,0.4980469 z m 4.475098,-2.0898438 V -3.8679362 H 20.297331 V -5.5183268 H 20.05319 c -0.0098,0.7617187 -0.332031,1.6796875 -1.201172,1.7089844 v 0.2246093 h 0.78125 v 2.4707032 c 0,1.00585933 0.732422,1.21093745 1.201172,1.21093745 0.605469,0 0.917969,-0.57617187 0.917969,-1.21093745 v -0.5078125 h -0.253906 v 0.4785156 c 0,0.66406248 -0.273438,0.9863281 -0.595704,0.9863281 -0.605468,0 -0.605468,-0.78125 -0.605468,-0.9472656 v -2.4804688 z m 0,0"
       style="fill:#000000;fill-opacity:1;fill-rule:nonzero;stroke:none"
       aria-label="Input"
       transform="matrix(1.6,0,0,1.6,5.3133333,75.606667)" />
    <path
       id="path3"
       d="m 39.66757,23.81116 68.03218,-6.80315 v -34.01602 l -68.03218,-6.80315 z"
       style="fill:none;stroke:#000000;stroke-width:0.79701;stroke-linecap:butt;stroke-linejoin:miter;stroke-miterlimit:10;stroke-dasharray:none;stroke-opacity:1"
       transform="matrix(1.3333333,0,0,-1.3333333,23.128,32.28)" />
    <path
       id="path4"
       d="M 8.437819,-3.2235807 H 7.9397721 C 7.6858659,-1.446237 7.2464128,-0.5185026 5.1663346,-0.5185026 H 3.3011003 v -3.4472656 h 0.703125 c 1.1523437,0 1.2695312,0.4882812 1.2695312,1.3964843 H 5.7718034 V -5.8798307 H 5.2737565 c 0,0.8984375 -0.1171875,1.3964843 -1.2695312,1.3964843 h -0.703125 v -3.1445312 h 1.8652343 c 1.8261719,0 2.2167969,0.78125 2.4023438,2.3242187 H 8.0667253 L 7.7249284,-8.1454557 H 0.45930339 v 0.5175781 H 1.719069 v 7.109375 H 0.45930339 V -9.2447917e-4 H 7.9300065 Z M 15.1761,-3.6630339 c 0,-1.1328125 -0.488281,-1.71875 -1.80664,-1.71875 -0.859375,0 -1.601563,0.4199219 -2.011719,1.3183594 h -0.0098 v -1.3183594 l -2.0214841,0.097656 v 0.5175781 c 0.7421871,0 0.8300781,0 0.8300781,0.4589844 v 3.7890625 H 9.3264909 V -9.2447917e-4 C 9.609694,-0.02045573 10.469069,-0.02045573 10.8011,-0.02045573 c 0.332032,0 1.210938,0 1.484375,0.0195312508 V -0.5185026 h -0.830078 v -2.5390625 c 0,-1.2988281 0.957031,-1.9238281 1.728516,-1.9238281 0.439453,0 0.693359,0.2832031 0.693359,1.1914062 v 3.2714844 H 13.047194 V -9.2447917e-4 C 13.320632,-0.02045573 14.180007,-0.02045573 14.521803,-0.02045573 c 0.332032,0 1.201172,0 1.47461,0.0195312508 V -0.5185026 H 15.1761 Z m 6.71875,2.265625 c 0,-0.1464843 -0.136718,-0.1464843 -0.253906,-0.1464843 -0.185547,0 -0.205078,0.00977 -0.263672,0.15625 -0.07813,0.2246093 -0.40039,1.0253906 -1.503906,1.0253906 -1.689453,0 -1.689453,-1.8164063 -1.689453,-2.3535156 0,-0.703125 0.01953,-2.265625 1.582031,-2.265625 0.08789,0 0.791016,0.019531 0.791016,0.078125 0,0.00977 -0.0098,0.029297 -0.03906,0.039063 -0.03906,0.039063 -0.195312,0.2148437 -0.195312,0.5078125 0,0.5078125 0.410156,0.7128906 0.71289,0.7128906 0.244141,0 0.703125,-0.15625 0.703125,-0.7226563 0,-0.9765625 -1.376953,-1.0449218 -2.021484,-1.0449218 -2.128906,0 -2.958984,1.3867187 -2.958984,2.7539062 0,1.6308594 1.132812,2.7246094 2.890625,2.7246094 1.875,0 2.246093,-1.3867188 2.246093,-1.4648438 z m 6.721192,-1.2207031 c 0,-1.6113281 -1.103516,-2.7929687 -2.978516,-2.7929687 -1.953125,0 -2.988281,1.2402343 -2.988281,2.7929687 0,1.5625 1.103515,2.6855469 2.978515,2.6855469 1.94336,0 2.988282,-1.1816406 2.988282,-2.6855469 z m -2.978516,2.2558594 c -1.552734,0 -1.552734,-1.3964844 -1.552734,-2.3730469 0,-0.5664062 0,-1.1621094 0.224609,-1.5917969 0.263672,-0.4785156 0.800781,-0.6933593 1.318359,-0.6933593 0.673829,0 1.113282,0.3222656 1.308594,0.6542968 0.244141,0.4296875 0.244141,1.0546875 0.244141,1.6308594 0,0.9863281 0,2.3730469 -1.542969,2.3730469 z m 7.885742,-7.8417969 v 0.5175781 c 0.742188,0 0.820313,0 0.820313,0.46875 v 2.4121094 c -0.263672,-0.2246094 -0.791016,-0.5761719 -1.611328,-0.5761719 -1.699219,0 -2.900391,1.0546875 -2.900391,2.7246094 0,1.7089844 1.181641,2.7246094 2.763672,2.7246094 0.664062,0 1.220703,-0.22460938 1.689453,-0.61523438 V 0.0674349 L 36.413893,-9.244792e-4 V -0.5185026 c -0.742187,0 -0.830078,0 -0.830078,-0.45898438 V -8.2919401 Z m 0.761719,6.9921875 c -0.498047,0.7324219 -1.113281,0.8886719 -1.542969,0.8886719 -1.484375,0 -1.484375,-1.5136719 -1.484375,-2.3046875 0,-0.5664063 0,-1.1621094 0.263672,-1.6210938 0.371094,-0.6640625 1.074219,-0.7324218 1.357422,-0.7324218 0.488281,0 1.015625,0.2148437 1.40625,0.7324218 z m 7.958984,-1.4355469 c 0.273438,0 0.351563,0 0.351563,-0.2929687 0,-0.3613281 -0.08789,-1.2597656 -0.634766,-1.8164063 -0.507812,-0.5078125 -1.171875,-0.6542968 -1.865234,-0.6542968 -1.865235,0 -2.88086,1.2109375 -2.88086,2.7246093 0,1.6699219 1.230469,2.7539063 3.03711,2.7539063 1.80664,0 2.34375,-1.2597656 2.34375,-1.4648438 0,-0.1855468 -0.185547,-0.1855468 -0.253906,-0.1855468 -0.195313,0 -0.205079,0.039063 -0.273438,0.1953125 -0.3125,0.78124997 -1.103516,1.0253906 -1.669922,1.0253906 -1.738281,0 -1.748047,-1.6113281 -1.748047,-2.2851563 z m -3.59375,-0.3417968 c 0.01953,-0.4882813 0.0293,-0.9570313 0.283203,-1.3867188 0.22461,-0.3808594 0.644532,-0.6445312 1.16211,-0.6445312 1.279297,0 1.386719,1.4355468 1.396484,2.03125 z m 6.821289,0.3027343 c 0,-0.4003906 0.07813,-2.2949218 1.47461,-2.2949218 -0.166016,0.1269531 -0.244141,0.3320312 -0.244141,0.546875 0,0.4882812 0.390625,0.6933593 0.69336,0.6933593 0.292968,0 0.693359,-0.2050781 0.693359,-0.6933593 0,-0.6152344 -0.625,-0.9472657 -1.201172,-0.9472657 -0.9375,0 -1.347656,0.8300782 -1.513672,1.328125 h -0.0098 v -1.328125 l -1.962891,0.097656 v 0.5175781 c 0.742187,0 0.820312,0 0.820312,0.4589844 v 3.7890625 H 43.401198 V -9.2447917e-4 C 43.674635,-0.02045573 44.573073,-0.02045573 44.905104,-0.02045573 c 0.351563,0 1.31836,0 1.601563,0.0195312508 V -0.5185026 H 45.47151 Z m 0,0"
       style="fill:#000000;fill-opacity:1;fill-rule:nonzero;stroke:none"
       aria-label="Encoder"
       transform="matrix(1.6,0,0,1.6,82.589333,32.118667)" />
    <g
       id="g4"
       aria-label="q&#10;ϕ&#10;(z|x)"
       transform="matrix(1.6,0,0,1.6,98.430667,47.204)">
      <path
         id="path5"
         d="m 4.1302474,-3.6626563 c 0.039063,-0.1171875 0.039063,-0.1367187 0.039063,-0.1757812 0,-0.1074219 -0.087891,-0.1269531 -0.1074219,-0.1269531 -0.087891,0 -0.4296875,0.3027343 -0.6152344,0.625 -0.1367187,-0.3222657 -0.4199218,-0.625 -0.8789062,-0.625 -1.0351563,0 -2.1875,1.2402343 -2.1875,2.6074218 0,0.98632817 0.625,1.45507817 1.2207031,1.45507817 0.390625,0 0.7421875,-0.1953125 1.0742188,-0.5078125 L 2.3333724,0.96625 C 2.2161849,1.4252344 2.2064193,1.4545312 1.640013,1.4642969 c -0.1074219,0 -0.2148437,0 -0.2148437,0.15625 0,0.019531 0,0.1171875 0.1269531,0.1171875 0.1953125,0 0.703125,-0.029297 0.9082031,-0.029297 0.2929688,0 0.3125,0 0.4492188,0.00977 0.1171875,0.00977 0.3710937,0.019531 0.4785156,0.019531 0.058594,0 0.1660156,0 0.1660156,-0.15625 0,-0.1171875 -0.087891,-0.1171875 -0.234375,-0.1171875 -0.4199219,0 -0.4199219,-0.068359 -0.4199219,-0.1464844 0,-0.00977 0,-0.058594 0.029297,-0.1953125 z M 2.8411849,-1.0942969 C 2.7923568,-0.92828125 2.7923568,-0.91851563 2.655638,-0.74273438 2.3333724,-0.361875 1.9622786,-0.1275 1.6302474,-0.1275 c -0.4394531,0 -0.5957031,-0.45898438 -0.5957031,-0.83984375 0,-0.43945315 0.2636718,-1.47460935 0.4785156,-1.90429685 0.2929687,-0.5371094 0.703125,-0.8691407 1.0546875,-0.8691407 0.6054687,0 0.7421875,0.7226563 0.7421875,0.78125 0,0.048828 -0.019531,0.097656 -0.029297,0.1367188 z m 0,0"
         style="fill:#000000;fill-opacity:1;fill-rule:nonzero;stroke:none" />
      <path
         id="path6"
         d="m 7.2137435,-2.9107031 c 0.019531,-0.068359 0.019531,-0.087891 0.019531,-0.087891 0,-0.087891 -0.087891,-0.087891 -0.1074218,-0.087891 -0.087891,0 -0.097656,0.029297 -0.1269532,0.1367188 l -0.3417968,1.3671875 c -1.1230469,0.039063 -2.0410157,0.82031247 -2.0410157,1.59179685 0,0.49804687 0.4003907,1.05468745 1.3574219,1.12304685 l -0.1953123,0.800782 c -0.019531,0.097656 -0.068359,0.2441406 -0.068359,0.2636718 0,0.087891 0.097656,0.087891 0.1171875,0.087891 0.087891,0 0.097656,-0.039063 0.1171875,-0.1269532 0.00977,-0.019531 0.2246094,-0.8691406 0.2636719,-1.0253906 1.1035156,-0.029297 2.0410156,-0.81054685 2.0410156,-1.58203123 0,-0.51757812 -0.4296875,-1.06445317 -1.3671875,-1.13281247 z M 6.0223372,0.93695312 c -0.5371093,-0.0390625 -0.9375,-0.30273437 -0.9375,-0.83984375 0,-0.67382812 0.5664063,-1.39648437 1.5234375,-1.48437497 z M 6.8328841,-1.3872656 c 0.546875,0.029297 0.9472656,0.3027343 0.9472656,0.83984372 0,0.64453125 -0.546875,1.40625 -1.5332031,1.484375 z m 0,0"
         style="fill:#000000;fill-opacity:1;fill-rule:nonzero;stroke:none" />
      <path
         id="path7"
         d="m 12.108763,2.1283594 c 0,-0.039063 -0.0293,-0.068359 -0.07813,-0.1269532 -1.162109,-1.06445308 -1.503906,-2.6757812 -1.503906,-4.2382812 0,-1.3964844 0.263672,-3.0761719 1.533203,-4.2773438 0.0293,-0.039063 0.04883,-0.068359 0.04883,-0.1074218 0,-0.068359 -0.04883,-0.097656 -0.107422,-0.097656 -0.107422,0 -0.917969,0.6445313 -1.396484,1.6210938 -0.429688,0.859375 -0.6445315,1.7773437 -0.6445315,2.8515625 0,0.6445312 0.078126,1.66015622 0.5664065,2.72460935 0.537109,1.10351565 1.367187,1.75781245 1.474609,1.75781245 0.05859,0 0.107422,-0.039063 0.107422,-0.1074218 z m 0,0"
         style="fill:#000000;fill-opacity:1;fill-rule:nonzero;stroke:none" />
      <path
         id="path8"
         d="m 13.886107,-0.76226563 c 0.185547,-0.22460937 0.673828,-0.67382817 1.064453,-0.99609377 0.664062,-0.5664062 0.869141,-0.7617187 0.986328,-0.8886719 0.732422,-0.703125 0.976563,-1.1621093 0.976563,-1.2207031 0,-0.00977 0,-0.097656 -0.117188,-0.097656 -0.07813,0 -0.09766,0.029297 -0.146484,0.097656 -0.117188,0.1855469 -0.351563,0.5664063 -0.664063,0.5664063 -0.175781,0 -0.292969,-0.097656 -0.498047,-0.3320313 -0.214843,-0.234375 -0.390625,-0.3320312 -0.615234,-0.3320312 -0.693359,0 -1.113281,0.8300781 -1.113281,1.0546875 0,0.019531 0.01953,0.097656 0.117187,0.097656 0.08789,0 0.117188,-0.058594 0.126953,-0.087891 0.166016,-0.4296875 0.69336,-0.4296875 0.761719,-0.4296875 0.214844,0 0.429688,0.068359 0.625,0.1367187 0.361328,0.1171875 0.507813,0.1171875 0.644531,0.1171875 -0.283203,0.3125 -0.78125,0.7421875 -1.347656,1.2304688 -0.449219,0.3808594 -0.722656,0.6542969 -0.917969,0.84960937 -0.332031,0.3515625 -0.742187,0.8984375 -0.742187,0.996093755 0,0.058593745 0.04883,0.097656245 0.117187,0.097656245 0.08789,0 0.09766,-0.0390625 0.146485,-0.08789062 0.351562,-0.53710938 0.683593,-0.57617188 0.78125,-0.57617188 0.224609,0 0.351562,0.13671875 0.546875,0.37109375 0.205078,0.22460938 0.40039,0.29296875 0.585937,0.29296875 0.917969,0 1.455078,-1.14257817 1.455078,-1.38671877 0,-0.078125 -0.05859,-0.1074219 -0.126953,-0.1074219 -0.08789,0 -0.107422,0.058594 -0.126953,0.097656 -0.234375,0.6640625 -0.869141,0.76171875 -1.103516,0.76171875 -0.175781,0 -0.351562,-0.0488281 -0.625,-0.13671875 -0.175781,-0.0488281 -0.390625,-0.1171875 -0.576171,-0.1171875 -0.09766,0 -0.185547,0.0195313 -0.214844,0.0292978 z m 0,0"
         style="fill:#000000;fill-opacity:1;fill-rule:nonzero;stroke:none" />
      <path
         id="path9"
         d="m 18.781126,-6.3970313 c 0,-0.1464843 0,-0.3222656 -0.195312,-0.3222656 -0.195313,0 -0.195313,0.1660156 -0.195313,0.3222656 v 8.3105469 c 0,0.1464844 0,0.3222656 0.185547,0.3222656 0.205078,0 0.205078,-0.1660156 0.205078,-0.3222656 z m 0,0"
         style="fill:#000000;fill-opacity:1;fill-rule:nonzero;stroke:none" />
      <path
         id="path10"
         d="m 24.281615,-3.6235938 c -0.332032,0.068359 -0.429688,0.3515625 -0.429688,0.4882813 0,0.1660156 0.117188,0.3222656 0.341797,0.3222656 0.253906,0 0.498047,-0.2148437 0.498047,-0.5273437 0,-0.4199219 -0.449219,-0.625 -0.869141,-0.625 -0.537109,0 -0.849609,0.4785156 -0.957031,0.6640625 -0.175781,-0.4394532 -0.566406,-0.6640625 -0.996094,-0.6640625 -0.966797,0 -1.484375,1.1523437 -1.484375,1.3867187 0,0.078125 0.06836,0.1074219 0.126953,0.1074219 0.07813,0 0.107422,-0.048828 0.126953,-0.097656 0.273438,-0.8886718 0.869141,-1.171875 1.210938,-1.171875 0.253906,0 0.488281,0.1757813 0.488281,0.5957032 0,0.3222656 -0.380859,1.7578125 -0.498047,2.18749997 -0.06836,0.2734375 -0.341797,0.83007813 -0.830078,0.83007813 -0.185547,0 -0.371094,-0.0585938 -0.458984,-0.1171875 0.24414,-0.0390625 0.419922,-0.24414063 0.419922,-0.47851563 0,-0.22460937 -0.175782,-0.32226567 -0.341797,-0.32226567 -0.263672,0 -0.488281,0.22460942 -0.488281,0.5273438 0,0.43945312 0.478515,0.61523437 0.859375,0.61523437 0.517578,0 0.820312,-0.4296875 0.957031,-0.67382812 0.224609,0.59570312 0.751953,0.67382812 0.996094,0.67382812 0.966796,0 1.474609,-1.16210937 1.474609,-1.37695317 0,-0.048828 -0.01953,-0.1074218 -0.117188,-0.1074218 -0.09766,0 -0.107421,0.029297 -0.146484,0.1660156 -0.195312,0.64453125 -0.722656,1.09375 -1.181641,1.09375 -0.263671,0 -0.507812,-0.15625 -0.507812,-0.5859375 0,-0.20507813 0.126953,-0.6933594 0.205078,-1.0351563 0.03906,-0.1660156 0.283203,-1.1328125 0.302734,-1.1914062 0.107422,-0.3222656 0.371094,-0.8007813 0.830079,-0.8007813 0.15625,0 0.332031,0.029297 0.46875,0.1171872 z m 0,0"
         style="fill:#000000;fill-opacity:1;fill-rule:nonzero;stroke:none" />
      <path
         id="path11"
         d="m 27.767943,-2.2466406 c 0,-0.7421875 -0.107422,-1.7285157 -0.576172,-2.7246094 -0.527344,-1.09375 -1.367188,-1.7480469 -1.47461,-1.7480469 -0.08789,0 -0.107421,0.068359 -0.107421,0.097656 0,0.039063 0.01953,0.068359 0.08789,0.1269531 0.517578,0.46875 1.503906,1.6894531 1.503906,4.2480469 0,1.27929685 -0.234375,3.06640622 -1.533203,4.2675781 -0.01953,0.029297 -0.05859,0.068359 -0.05859,0.1074219 0,0.029297 0.01953,0.1074218 0.107421,0.1074218 0.107422,0 0.917969,-0.6542968 1.396485,-1.63085933 0.439453,-0.859375 0.654297,-1.77734377 0.654297,-2.85156247 z m 0,0"
         style="fill:#000000;fill-opacity:1;fill-rule:nonzero;stroke:none" />
    </g>
    <path
       id="path12"
       d="m 1.513737,-0.96610677 c 0.5175781,-0.58593753 0.9375,-0.95703123 1.5332031,-1.49414063 0.7226563,-0.625 1.0253906,-0.9179687 1.2011719,-1.1035156 0.8300781,-0.8203125 1.25,-1.5136719 1.25,-1.6113281 0,-0.097656 -0.097656,-0.097656 -0.1171875,-0.097656 -0.087891,0 -0.1074219,0.048828 -0.1660156,0.1367188 -0.3027344,0.5078125 -0.5859375,0.7617187 -0.8984375,0.7617187 -0.2539063,0 -0.3808594,-0.1074219 -0.6152344,-0.390625 -0.2441406,-0.3027344 -0.4492188,-0.5078125 -0.8007813,-0.5078125 -0.8691406,0 -1.3964843,1.09375 -1.3964843,1.3378906 0,0.039063 0.00977,0.1074219 0.1171875,0.1074219 0.097656,0 0.1074218,-0.048828 0.1464843,-0.1269531 0.2050782,-0.4785156 0.78125,-0.5664063 1.0058594,-0.5664063 0.2539063,0 0.4882813,0.087891 0.7421875,0.1953125 0.4492188,0.1855469 0.6445313,0.1855469 0.7617188,0.1855469 0.087891,0 0.1367187,0 0.1953125,-0.00977 -0.4003907,0.46875 -1.0449219,1.0449219 -1.5820313,1.5332031 l -1.2011719,1.1132813 c -0.73242185,0.74218745 -1.17187497,1.44531245 -1.17187497,1.52343745 0,0.078125 0.0585938,0.09765625 0.12695312,0.09765625 0.0683594,0 0.0878906,-0.009766 0.16601563,-0.15625 C 1.0059245,-0.33134525 1.3867839,-0.780564 1.826237,-0.780564 c 0.2539062,0 0.3710937,0.0878906 0.6152344,0.390625 0.2246093,0.26367188 0.4296875,0.5078125 0.8105468,0.5078125 1.171875,0 1.8359375,-1.5136719 1.8359375,-1.7871094 0,-0.048828 -0.00977,-0.1269531 -0.1269531,-0.1269531 -0.097656,0 -0.1074219,0.048828 -0.1464844,0.1757813 -0.2636718,0.70312495 -0.9667968,0.98632808 -1.4355468,0.98632808 -0.2441407,0 -0.4882813,-0.078125 -0.7324219,-0.18554688 C 2.1680339,-1.014939 2.0313151,-1.014939 1.8750651,-1.014939 c -0.1171875,0 -0.2539062,0 -0.3613281,0.0488281 z m 0,0"
       style="fill:#000000;fill-opacity:1;fill-rule:nonzero;stroke:none"
       aria-label="z"
       transform="matrix(1.6,0,0,1.6,214.27333,36.397333)" />
    <path
       id="path13"
       d="M 5.3613021,-2.3152018 H 5.1073958 c -0.097656,0.9082031 -0.2246093,2.0410156 -1.8261718,2.0410156 h -0.78125 c -0.4199219,0 -0.4394532,-0.0683594 -0.4394532,-0.37109375 V -5.4109049 c 0,-0.3320313 0.039063,-0.4394532 0.8496094,-0.4394532 H 3.203099 v -0.2734375 c -0.3125,0.029297 -1.1328125,0.029297 -1.4941407,0.029297 -0.4101562,0 -0.96679684,0 -1.36718747,-0.029297 v 0.2734375 h 0.20507813 c 0.69335934,0 0.71289064,0.1074219 0.71289064,0.4394532 v 4.69726558 c 0,0.33203125 -0.019531,0.43945312 -0.71289064,0.43945312 H 0.34177083 V -7.4869792e-4 H 5.1073958 Z m 3.4643555,1.66992185 c 0.048828,0.37109375 0.3027343,0.703125 0.6933593,0.703125 0.2246094,0 0.7812501,-0.13671875 0.7812501,-0.859375 V -1.2995768 h -0.244141 v 0.48828123 c 0,0.0976563 0,0.546875 -0.3222653,0.546875 -0.3222656,0 -0.3222656,-0.4296875 -0.3222656,-0.56640625 V -2.4030924 c 0,-0.5078125 0,-0.8203125 -0.4101563,-1.1816407 -0.3320312,-0.2929687 -0.7617187,-0.4296875 -1.2109375,-0.4296875 -0.7519531,0 -1.3769531,0.3710938 -1.3769531,0.9472657 0,0.2832031 0.1855469,0.4296875 0.4199219,0.4296875 0.2441406,0 0.4101562,-0.1757813 0.4101562,-0.4101563 0,-0.390625 -0.390625,-0.4296875 -0.4003906,-0.4296875 0.2441406,-0.234375 0.6738281,-0.3125 0.9375,-0.3125 0.4492187,0 0.9667969,0.3417969 0.9667969,1.1230469 v 0.3027344 c -0.4882813,0.00977 -1.1621094,0.058594 -1.7578125,0.3417968 -0.6445313,0.3222657 -0.8496094,0.78125 -0.8496094,1.14257815 0,0.73242188 0.8789062,0.9765625 1.4746094,0.9765625 0.7421875,0 1.0839843,-0.48828125 1.2109375,-0.7421875 z M 8.7475326,-1.2605143 c 0,0.8691406 -0.6738282,1.13281248 -1.0742188,1.13281248 -0.4199219,0 -0.8105469,-0.30273438 -0.8105469,-0.75195313 0,-0.59570315 0.5078125,-1.22070315 1.8847657,-1.26953125 z m 4.5288084,-2.3242188 v -0.2832031 h -1.298828 v -1.6503906 h -0.244141 c -0.0098,0.7617187 -0.332031,1.6796875 -1.201171,1.7089844 v 0.2246093 h 0.78125 v 2.4707032 c 0,1.00585933 0.732421,1.21093745 1.201171,1.21093745 0.605469,0 0.917969,-0.57617187 0.917969,-1.21093745 v -0.5078125 h -0.253906 v 0.4785156 c 0,0.66406248 -0.273438,0.9863281 -0.595703,0.9863281 -0.605469,0 -0.605469,-0.78125 -0.605469,-0.9472656 v -2.4804688 z m 4.257813,1.5332032 c 0.195312,0 0.24414,0 0.24414,-0.1855469 0,-0.9277344 -0.498047,-1.7773438 -1.65039,-1.7773438 -1.074219,0 -1.914063,0.9277344 -1.914063,2.0410157 0,1.17187495 0.9375,2.07031245 2.03125,2.07031245 1.09375,0 1.533203,-0.95703125 1.533203,-1.16210935 0,-0.068359 -0.04883,-0.1171875 -0.126953,-0.1171875 -0.08789,0 -0.117187,0.058594 -0.126953,0.097656 -0.302734,0.91796878 -1.103516,0.9277344 -1.230469,0.9277344 -0.429687,0 -0.800781,-0.234375 -1.005859,-0.546875 -0.302734,-0.4394531 -0.302734,-0.9765625 -0.302734,-1.3476562 z m -2.548828,-0.2148438 c 0.08789,-1.3867187 0.888671,-1.5234375 1.142578,-1.5234375 0.498047,0 1.035156,0.3710938 1.044922,1.5234375 z m 4.733886,-0.058594 c 0,-0.9472657 0.673828,-1.4160157 1.230469,-1.4160157 0.537109,0 0.654297,0.4394532 0.654297,0.9765625 v 2.07031253 c 0,0.41992187 -0.107422,0.41992187 -0.69336,0.41992187 V -7.4869792e-4 C 21.33054,-0.02027995 21.496556,-0.03004557 21.926243,-0.03004557 c 0.439454,0 0.546875,0.0097656 1.025391,0.0292968721 V -0.2741862 c -0.458984,0 -0.683594,0 -0.693359,-0.28320312 V -2.2761393 c 0,-0.7421875 0,-1.0058594 -0.244141,-1.3183594 -0.205078,-0.2539062 -0.546875,-0.3710937 -0.996094,-0.3710937 -0.839843,0 -1.220703,0.625 -1.347656,0.8691406 h -0.0098 v -0.8691406 l -1.298828,0.097656 v 0.2832031 c 0.615235,0 0.69336,0.058594 0.69336,0.4980469 v 2.39257813 c 0,0.41992187 -0.09766,0.41992187 -0.69336,0.41992187 V -7.4869792e-4 C 18.781712,-0.02027995 18.957493,-0.03004557 19.387181,-0.03004557 c 0.429687,0 0.546875,0.0097656 1.015625,0.0292968721 V -0.2741862 c -0.585938,0 -0.683594,0 -0.683594,-0.41992187 z m 6.101074,-1.2597657 v -0.2832031 h -1.298828 v -1.6503906 h -0.24414 c -0.0098,0.7617187 -0.332032,1.6796875 -1.201172,1.7089844 v 0.2246093 h 0.78125 v 2.4707032 c 0,1.00585933 0.732422,1.21093745 1.201172,1.21093745 0.605468,0 0.917968,-0.57617187 0.917968,-1.21093745 V -1.6218424 H 25.72263 v 0.4785156 c 0,0.66406248 -0.273437,0.9863281 -0.595703,0.9863281 -0.605469,0 -0.605469,-0.78125 -0.605469,-0.9472656 v -2.4804688 z m 0,0"
       style="fill:#000000;fill-opacity:1;fill-rule:nonzero;stroke:none"
       aria-label="Latent"
       transform="matrix(1.6,0,0,1.6,197.89067,75.606667)" />
    <path
       id="path14"
       d="m 186.25862,17.00801 68.03218,6.80315 v -47.62232 l -68.03218,6.80315 z"
       style="fill:none;stroke:#000000;stroke-width:0.79701;stroke-linecap:butt;stroke-linejoin:miter;stroke-miterlimit:10;stroke-dasharray:none;stroke-opacity:1"
       transform="matrix(1.3333333,0,0,-1.3333333,23.128,32.28)" />
    <path
       id="path15"
       d="m 0.45926432,-8.2040495 v 0.5175781 H 1.7190299 v 7.1679688 H 0.45926432 V -9.2447917e-4 H 5.4885612 c 2.2949219,0 4.0625,-1.47460942083 4.0625,-4.02343752083 0,-2.7050781 -1.8164063,-4.1796875 -4.0625,-4.1796875 z m 2.78320308,7.6855469 v -7.1679688 h 1.7871094 c 1.0449219,0 1.875,0.4101563 2.3242188,1.0253907 0.3417968,0.4882812 0.5761718,1.0742187 0.5761718,2.6171875 0,1.3964843 -0.1855468,2.0214843 -0.6054687,2.5878906 -0.4199219,0.546875 -1.2207031,0.9375 -2.2949219,0.9375 z M 15.708288,-2.6474089 c 0.273437,0 0.351562,0 0.351562,-0.2929687 0,-0.3613281 -0.08789,-1.2597656 -0.634765,-1.8164063 -0.507813,-0.5078125 -1.171875,-0.6542968 -1.865235,-0.6542968 -1.865234,0 -2.880859,1.2109375 -2.880859,2.7246093 0,1.6699219 1.230469,2.7539063 3.037109,2.7539063 1.806641,0 2.34375,-1.2597656 2.34375,-1.4648438 0,-0.1855468 -0.185547,-0.1855468 -0.253906,-0.1855468 -0.195312,0 -0.205078,0.039063 -0.273437,0.1953125 -0.3125,0.78124997 -1.103516,1.0253906 -1.669922,1.0253906 -1.738282,0 -1.748047,-1.6113281 -1.748047,-2.2851563 z m -3.59375,-0.3417968 c 0.01953,-0.4882813 0.0293,-0.9570313 0.283203,-1.3867188 0.224609,-0.3808594 0.644531,-0.6445312 1.162109,-0.6445312 1.279297,0 1.386719,1.4355468 1.396485,2.03125 z m 9.926758,1.5917968 c 0,-0.1464843 -0.136719,-0.1464843 -0.253907,-0.1464843 -0.185547,0 -0.205078,0.00977 -0.263672,0.15625 -0.07813,0.2246093 -0.40039,1.0253906 -1.503906,1.0253906 -1.689453,0 -1.689453,-1.8164063 -1.689453,-2.3535156 0,-0.703125 0.01953,-2.265625 1.582031,-2.265625 0.08789,0 0.791016,0.019531 0.791016,0.078125 0,0.00977 -0.0098,0.029297 -0.03906,0.039063 -0.03906,0.039063 -0.195312,0.2148437 -0.195312,0.5078125 0,0.5078125 0.410156,0.7128906 0.712891,0.7128906 0.24414,0 0.703125,-0.15625 0.703125,-0.7226563 0,-0.9765625 -1.376954,-1.0449218 -2.021485,-1.0449218 -2.128906,0 -2.958984,1.3867187 -2.958984,2.7539062 0,1.6308594 1.132812,2.7246094 2.890625,2.7246094 1.875,0 2.246094,-1.3867188 2.246094,-1.4648438 z m 6.71875,-1.2207031 c 0,-1.6113281 -1.103516,-2.7929687 -2.978516,-2.7929687 -1.953125,0 -2.988281,1.2402343 -2.988281,2.7929687 0,1.5625 1.103515,2.6855469 2.978515,2.6855469 1.94336,0 2.988282,-1.1816406 2.988282,-2.6855469 z m -2.978516,2.2558594 c -1.552734,0 -1.552734,-1.3964844 -1.552734,-2.3730469 0,-0.5664062 0,-1.1621094 0.224609,-1.5917969 0.263672,-0.4785156 0.800781,-0.6933593 1.318359,-0.6933593 0.673828,0 1.113282,0.3222656 1.308594,0.6542968 0.244141,0.4296875 0.244141,1.0546875 0.244141,1.6308594 0,0.9863281 0,2.3730469 -1.542969,2.3730469 z m 7.888184,-7.8417969 v 0.5175781 c 0.742187,0 0.820312,0 0.820312,0.46875 v 2.4121094 c -0.263672,-0.2246094 -0.791016,-0.5761719 -1.611328,-0.5761719 -1.699219,0 -2.900391,1.0546875 -2.900391,2.7246094 0,1.7089844 1.181641,2.7246094 2.763672,2.7246094 0.664063,0 1.220703,-0.22460938 1.689453,-0.61523438 V 0.0674349 L 36.560339,-9.244792e-4 V -0.5185026 c -0.742188,0 -0.830079,0 -0.830079,-0.45898438 V -8.2919401 Z m 0.761718,6.9921875 c -0.498047,0.7324219 -1.113281,0.8886719 -1.542968,0.8886719 -1.484375,0 -1.484375,-1.5136719 -1.484375,-2.3046875 0,-0.5664063 0,-1.1621094 0.263671,-1.6210938 0.371094,-0.6640625 1.074219,-0.7324218 1.357422,-0.7324218 0.488282,0 1.015625,0.2148437 1.40625,0.7324218 z m 7.958985,-1.4355469 c 0.273437,0 0.351562,0 0.351562,-0.2929687 0,-0.3613281 -0.08789,-1.2597656 -0.634765,-1.8164063 -0.507813,-0.5078125 -1.171875,-0.6542968 -1.865235,-0.6542968 -1.865234,0 -2.880859,1.2109375 -2.880859,2.7246093 0,1.6699219 1.230469,2.7539063 3.037109,2.7539063 1.806641,0 2.34375,-1.2597656 2.34375,-1.4648438 0,-0.1855468 -0.185547,-0.1855468 -0.253906,-0.1855468 -0.195313,0 -0.205078,0.039063 -0.273438,0.1953125 -0.3125,0.78124997 -1.103515,1.0253906 -1.669921,1.0253906 -1.738282,0 -1.748047,-1.6113281 -1.748047,-2.2851563 z m -3.59375,-0.3417968 c 0.01953,-0.4882813 0.0293,-0.9570313 0.283203,-1.3867188 0.224609,-0.3808594 0.644531,-0.6445312 1.162109,-0.6445312 1.279297,0 1.386719,1.4355468 1.396485,2.03125 z m 6.821289,0.3027343 c 0,-0.4003906 0.07813,-2.2949218 1.474609,-2.2949218 -0.166016,0.1269531 -0.244141,0.3320312 -0.244141,0.546875 0,0.4882812 0.390625,0.6933593 0.69336,0.6933593 0.292969,0 0.693359,-0.2050781 0.693359,-0.6933593 0,-0.6152344 -0.625,-0.9472657 -1.201172,-0.9472657 -0.9375,0 -1.347656,0.8300782 -1.513672,1.328125 h -0.0098 v -1.328125 l -1.962891,0.097656 v 0.5175781 c 0.742188,0 0.820313,0 0.820313,0.4589844 v 3.7890625 H 43.547643 V -9.2447917e-4 C 43.821081,-0.02045573 44.719518,-0.02045573 45.051549,-0.02045573 c 0.351563,0 1.31836,0 1.601563,0.0195312508 V -0.5185026 h -1.035156 z m 0,0"
       style="fill:#000000;fill-opacity:1;fill-rule:nonzero;stroke:none"
       aria-label="Decoder"
       transform="matrix(1.6,0,0,1.6,277.92533,32.118667)" />
    <g
       id="g15"
       aria-label="p&#10;θ&#10;(x|z)"
       transform="matrix(1.6,0,0,1.6,294.048,47.204)">
      <path
         id="path16"
         d="m 0.40945313,1.1225 c -0.0585938,0.2539062 -0.078125,0.3417969 -0.46875,0.3417969 -0.09765625,0 -0.20507813,0 -0.20507813,0.15625 0,0.039063 0.0195313,0.1171875 0.1171875,0.1171875 l 0.390625,-0.019531 c 0.0488281,-0.00977 0.25390625,-0.00977 0.38085938,-0.00977 0.15625,0 0.30273437,0.00977 0.45898442,0.00977 0.1464843,0 0.2929687,0.019531 0.4296875,0.019531 0.058594,0 0.1757812,0 0.1757812,-0.15625 0,-0.1171875 -0.097656,-0.1171875 -0.2441406,-0.1171875 -0.4199219,0 -0.4199219,-0.068359 -0.4199219,-0.1464844 0,-0.058594 0.058594,-0.2929688 0.097656,-0.43945313 L 1.454375,-0.45953125 c 0.087891,0.18554687 0.3417969,0.55664062 0.8496094,0.55664062 1.0449219,0 2.1972656,-1.25976567 2.1972656,-2.60742187 0,-0.9179688 -0.5664062,-1.4550781 -1.2402344,-1.4550781 -0.1855468,0 -0.6347656,0.048828 -1.1816406,0.6542968 C 1.9426563,-3.8091406 1.5325,-3.9653906 1.2297656,-3.9653906 c -0.38085935,0 -0.56640622,0.2832031 -0.69335935,0.5175781 -0.15625,0.3222656 -0.2734375,0.8300781 -0.2734375,0.8691406 0,0.078125 0.0585938,0.1074219 0.1171875,0.1074219 0.10742188,0 0.1171875,-0.048828 0.16601563,-0.2246094 C 0.7121875,-3.40875 0.9075,-3.7407813 1.2102344,-3.7407813 c 0.2636719,0 0.2636719,0.2929688 0.2636719,0.4199219 0,0.078125 0,0.2050781 -0.019531,0.2832031 z M 2.0305469,-2.7642188 C 2.079375,-2.94 2.079375,-2.9595313 2.1965625,-3.09625 c 0.2441406,-0.3027344 0.6445313,-0.6445313 1.0449219,-0.6445313 0.4199219,0 0.5957031,0.4199219 0.5957031,0.8398438 0,0.4101562 -0.2539062,1.5234375 -0.5273437,1.9921875 -0.3027344,0.51757812 -0.6835938,0.78125 -1.015625,0.78125 -0.5859375,0 -0.7226563,-0.703125 -0.7226563,-0.77148438 0,-0.0488281 0.00977,-0.0976563 0.019531,-0.13671872 z m 0,0"
         style="fill:#000000;fill-opacity:1;fill-rule:nonzero;stroke:none" />
      <path
         id="path17"
         d="m 7.8874805,-1.8071875 c 0,-0.6933594 -0.2929688,-1.3378906 -0.8984375,-1.3378906 -0.9277344,0 -1.9042969,1.5625 -1.9042969,2.92968747 0,0.78125 0.3320312,1.33789063 0.8886719,1.33789063 0.9375,0 1.9140625,-1.58203125 1.9140625,-2.9296875 z m -2.109375,0.6738281 c 0.3808593,-1.4746094 0.9277343,-1.8164062 1.2109375,-1.8164062 0.4199218,0 0.4199218,0.7226562 0.4199218,0.8105468 0,0.048828 0,0.4003907 -0.1660156,1.0058594 z m 1.40625,0.24414065 C 6.8523242,0.4584375 6.3054492,0.9271875 5.973418,0.9271875 c -0.390625,0 -0.4199219,-0.60546875 -0.4199219,-0.81054688 0,-0.20507812 0.029297,-0.45898437 0.15625,-1.00585937 z m 0,0"
         style="fill:#000000;fill-opacity:1;fill-rule:nonzero;stroke:none" />
      <path
         id="path18"
         d="m 11.903594,2.1283594 c 0,-0.039063 -0.0293,-0.068359 -0.07813,-0.1269532 -1.16211,-1.06445308 -1.503906,-2.6757812 -1.503906,-4.2382812 0,-1.3964844 0.263671,-3.0761719 1.533203,-4.2773438 0.0293,-0.039063 0.04883,-0.068359 0.04883,-0.1074218 0,-0.068359 -0.04883,-0.097656 -0.107422,-0.097656 -0.107422,0 -0.917969,0.6445313 -1.396484,1.6210938 -0.429688,0.859375 -0.6445317,1.7773437 -0.6445317,2.8515625 0,0.6445312 0.078125,1.66015622 0.5664067,2.72460935 0.537109,1.10351565 1.367187,1.75781245 1.474609,1.75781245 0.05859,0 0.107422,-0.039063 0.107422,-0.1074218 z m 0,0"
         style="fill:#000000;fill-opacity:1;fill-rule:nonzero;stroke:none" />
      <path
         id="path19"
         d="m 16.845,-3.6235938 c -0.332031,0.068359 -0.429687,0.3515625 -0.429687,0.4882813 0,0.1660156 0.117187,0.3222656 0.341796,0.3222656 0.253907,0 0.498047,-0.2148437 0.498047,-0.5273437 0,-0.4199219 -0.449218,-0.625 -0.86914,-0.625 -0.53711,0 -0.84961,0.4785156 -0.957032,0.6640625 -0.175781,-0.4394532 -0.566406,-0.6640625 -0.996093,-0.6640625 -0.966797,0 -1.484375,1.1523437 -1.484375,1.3867187 0,0.078125 0.06836,0.1074219 0.126953,0.1074219 0.07813,0 0.107422,-0.048828 0.126953,-0.097656 0.273437,-0.8886718 0.869141,-1.171875 1.210937,-1.171875 0.253907,0 0.488282,0.1757813 0.488282,0.5957032 0,0.3222656 -0.38086,1.7578125 -0.498047,2.18749997 -0.06836,0.2734375 -0.341797,0.83007813 -0.830078,0.83007813 -0.185547,0 -0.371094,-0.0585938 -0.458985,-0.1171875 0.244141,-0.0390625 0.419922,-0.24414063 0.419922,-0.47851563 0,-0.22460937 -0.175781,-0.32226567 -0.341797,-0.32226567 -0.263672,0 -0.488281,0.22460942 -0.488281,0.5273438 0,0.43945312 0.478516,0.61523437 0.859375,0.61523437 0.517578,0 0.820313,-0.4296875 0.957031,-0.67382812 0.22461,0.59570312 0.751953,0.67382812 0.996094,0.67382812 0.966797,0 1.474609,-1.16210937 1.474609,-1.37695317 0,-0.048828 -0.01953,-0.1074218 -0.117187,-0.1074218 -0.09766,0 -0.107422,0.029297 -0.146484,0.1660156 -0.195313,0.64453125 -0.722657,1.09375 -1.181641,1.09375 -0.263672,0 -0.507813,-0.15625 -0.507813,-0.5859375 0,-0.20507813 0.126954,-0.6933594 0.205079,-1.0351563 0.03906,-0.1660156 0.283203,-1.1328125 0.302734,-1.1914062 0.107422,-0.3222656 0.371094,-0.8007813 0.830078,-0.8007813 0.15625,0 0.332031,0.029297 0.46875,0.1171872 z m 0,0"
         style="fill:#000000;fill-opacity:1;fill-rule:nonzero;stroke:none" />
      <path
         id="path20"
         d="m 19.127715,-6.3970313 c 0,-0.1464843 0,-0.3222656 -0.195313,-0.3222656 -0.195312,0 -0.195312,0.1660156 -0.195312,0.3222656 v 8.3105469 c 0,0.1464844 0,0.3222656 0.185547,0.3222656 0.205078,0 0.205078,-0.1660156 0.205078,-0.3222656 z m 0,0"
         style="fill:#000000;fill-opacity:1;fill-rule:nonzero;stroke:none" />
      <path
         id="path21"
         d="m 21.464141,-0.76226563 c 0.185547,-0.22460937 0.673828,-0.67382817 1.064453,-0.99609377 0.664062,-0.5664062 0.86914,-0.7617187 0.986328,-0.8886719 0.732422,-0.703125 0.976562,-1.1621093 0.976562,-1.2207031 0,-0.00977 0,-0.097656 -0.117187,-0.097656 -0.07813,0 -0.09766,0.029297 -0.146484,0.097656 -0.117188,0.1855469 -0.351563,0.5664063 -0.664063,0.5664063 -0.175781,0 -0.292969,-0.097656 -0.498047,-0.3320313 -0.214844,-0.234375 -0.390625,-0.3320312 -0.615234,-0.3320312 -0.69336,0 -1.113281,0.8300781 -1.113281,1.0546875 0,0.019531 0.01953,0.097656 0.117187,0.097656 0.08789,0 0.117188,-0.058594 0.126953,-0.087891 0.166016,-0.4296875 0.69336,-0.4296875 0.761719,-0.4296875 0.214844,0 0.429687,0.068359 0.625,0.1367187 0.361328,0.1171875 0.507812,0.1171875 0.644531,0.1171875 -0.283203,0.3125 -0.78125,0.7421875 -1.347656,1.2304688 -0.449219,0.3808594 -0.722656,0.6542969 -0.917969,0.84960937 -0.332031,0.3515625 -0.742187,0.8984375 -0.742187,0.996093755 0,0.058593745 0.04883,0.097656245 0.117187,0.097656245 0.08789,0 0.09766,-0.0390625 0.146485,-0.08789062 0.351562,-0.53710938 0.683593,-0.57617188 0.78125,-0.57617188 0.224609,0 0.351562,0.13671875 0.546875,0.37109375 0.205078,0.22460938 0.40039,0.29296875 0.585937,0.29296875 0.917969,0 1.455078,-1.14257817 1.455078,-1.38671877 0,-0.078125 -0.05859,-0.1074219 -0.126953,-0.1074219 -0.08789,0 -0.107422,0.058594 -0.126953,0.097656 -0.234375,0.6640625 -0.869141,0.76171875 -1.103516,0.76171875 -0.175781,0 -0.351562,-0.0488281 -0.625,-0.13671875 -0.175781,-0.0488281 -0.390625,-0.1171875 -0.576172,-0.1171875 -0.09766,0 -0.185546,0.0195313 -0.214843,0.0292978 z m 0,0"
         style="fill:#000000;fill-opacity:1;fill-rule:nonzero;stroke:none" />
      <path
         id="path22"
         d="m 27.560332,-2.2466406 c 0,-0.7421875 -0.107422,-1.7285157 -0.576172,-2.7246094 -0.527344,-1.09375 -1.367187,-1.7480469 -1.474609,-1.7480469 -0.08789,0 -0.107422,0.068359 -0.107422,0.097656 0,0.039063 0.01953,0.068359 0.08789,0.1269531 0.517578,0.46875 1.503906,1.6894531 1.503906,4.2480469 0,1.27929685 -0.234375,3.06640622 -1.533203,4.2675781 -0.01953,0.029297 -0.05859,0.068359 -0.05859,0.1074219 0,0.029297 0.01953,0.1074218 0.107422,0.1074218 0.107422,0 0.917969,-0.6542968 1.396484,-1.63085933 0.439453,-0.859375 0.654297,-1.77734377 0.654297,-2.85156247 z m 0,0"
         style="fill:#000000;fill-opacity:1;fill-rule:nonzero;stroke:none" />
    </g>
    <g
       id="g22"
       aria-label="ˆx"
       transform="matrix(1.6,0,0,1.6,410.88533,38.921333)">
      <path
         id="path23"
         d="m 2.9305534,-8.2906771 -1.5625,1.6210938 0.1855469,0.1757812 1.3671875,-1.2304687 1.3671875,1.2304687 0.1953125,-0.1757812 z m 0,0"
         style="fill:#000000;fill-opacity:1;fill-rule:nonzero;stroke:none" />
      <path
         id="path24"
         d="m 4.9422721,-4.8727083 c -0.3808593,0.068359 -0.5273437,0.3515625 -0.5273437,0.5859375 0,0.2832031 0.234375,0.3808593 0.4003906,0.3808593 0.3515625,0 0.6054688,-0.3125 0.6054688,-0.6347656 0,-0.5078125 -0.5761719,-0.7324219 -1.0742188,-0.7324219 -0.7324219,0 -1.1328125,0.7226563 -1.2402344,0.9472657 -0.2734375,-0.8984375 -1.015625,-0.9472657 -1.2304687,-0.9472657 -1.22070314,0 -1.86523439,1.5722657 -1.86523439,1.8261719 0,0.048828 0.04882813,0.1171875 0.12695313,0.1171875 0.0976563,0 0.1171875,-0.078125 0.14648437,-0.1269531 0.40039063,-1.328125 1.20117189,-1.5722656 1.55273439,-1.5722656 0.5371094,0 0.6445312,0.4980468 0.6445312,0.78125 0,0.2636718 -0.068359,0.546875 -0.2148437,1.1132812 l -0.4101563,1.640625 c -0.1757812,0.71289064 -0.5175781,1.37695314 -1.15234371,1.37695314 -0.0585938,0 -0.36132813,0 -0.61523438,-0.15625 0.4296875,-0.0878906 0.52734375,-0.43945312 0.52734375,-0.5859375 0,-0.24414064 -0.17578125,-0.38085934 -0.41015625,-0.38085934 -0.28320312,0 -0.59570312,0.24414059 -0.59570312,0.63476559 0,0.49804688 0.56640625,0.72265625 1.07421875,0.72265625 0.57617186,0 0.98632816,-0.44921875 1.24023436,-0.9375 0.1855469,0.703125 0.78125,0.9375 1.2304688,0.9375 1.2109375,0 1.8652343,-1.56250004 1.8652343,-1.82617184 0,-0.058594 -0.048828,-0.1074219 -0.1269531,-0.1074219 -0.1074219,0 -0.1171875,0.058594 -0.15625,0.15625 -0.3222656,1.05468749 -1.015625,1.54296874 -1.5527344,1.54296874 -0.4199218,0 -0.6445312,-0.3125 -0.6445312,-0.80078125 0,-0.26367189 0.048828,-0.45898439 0.2441406,-1.24999999 L 3.1942253,-3.788724 c 0.1855468,-0.7128906 0.5859375,-1.2402343 1.1425781,-1.2402343 0.019531,0 0.3515625,0 0.6054687,0.15625 z m 0,0"
         style="fill:#000000;fill-opacity:1;fill-rule:nonzero;stroke:none" />
    </g>
    <path
       id="path25"
       d="m 2.0512891,-3.1749284 v -2.3046875 c 0,-0.234375 0.019531,-0.3125 0.1855468,-0.3515625 0.087891,-0.019531 0.3710938,-0.019531 0.5566407,-0.019531 0.7714843,0 1.9140625,0 1.9140625,1.3378906 0,0.7714844 -0.390625,1.3378906 -1.6113282,1.3378906 z m 2.0214843,0.1367188 c 0.8496094,-0.2441407 1.5527344,-0.7714844 1.5527344,-1.4746094 0,-0.8886719 -1.0839844,-1.6113281 -2.4023437,-1.6113281 H 0.36183594 v 0.2734375 h 0.20507812 c 0.69335934,0 0.70312504,0.1074218 0.70312504,0.4394531 v 4.69726561 c 0,0.33203125 -0.00977,0.43945313 -0.70312504,0.43945313 H 0.36183594 v 0.2734375 c 0.41992187,-0.02929688 0.86914066,-0.02929688 1.29882816,-0.02929688 0.4296875,0 0.8789062,0 1.3085937,0.02929688 v -0.2734375 H 2.7641797 c -0.6933594,0 -0.7128906,-0.10742188 -0.7128906,-0.43945313 V -2.950319 h 1.0742187 c 0.6445313,0 0.9375,0.3417969 0.9765625,0.3808594 0.2636719,0.3320312 0.2636719,0.4589843 0.2636719,1.09375 0,0.60546871 0,0.99609371 0.4296875,1.33789059 0.4199219,0.33203125 0.9570312,0.33203125 1.0546875,0.33203125 0.7617187,0 0.8886719,-0.78125 0.8886719,-0.99609375 0,-0.0488281 0,-0.15625 -0.1269532,-0.15625 -0.1074218,0 -0.1074218,0.078125 -0.1171875,0.14648437 -0.048828,0.56640625 -0.3222656,0.78125 -0.6054687,0.78125 -0.2832031,0 -0.3808594,-0.17578125 -0.4589844,-0.33203125 C 5.3520703,-0.55774089 5.2739453,-1.1632096 5.2153516,-1.5733659 5.1469922,-2.1300065 5.0688672,-2.7257096 4.0727734,-3.0382096 Z m 6.2939456,0.9863281 c 0.195312,0 0.24414,0 0.24414,-0.1855469 0,-0.9277344 -0.498046,-1.7773437 -1.6503902,-1.7773437 -1.0742188,0 -1.9140625,0.9277343 -1.9140625,2.0410156 0,1.17187499 0.9375,2.07031249 2.03125,2.07031249 1.0937497,0 1.5332027,-0.95703125 1.5332027,-1.16210939 0,-0.068359 -0.04883,-0.1171875 -0.126953,-0.1171875 -0.08789,0 -0.117187,0.058594 -0.126953,0.097656 -0.302734,0.91796871 -1.1035155,0.92773434 -1.2304686,0.92773434 -0.4296875,0 -0.8007813,-0.234375 -1.0058594,-0.546875 C 7.8178906,-1.1436784 7.8178906,-1.6807878 7.8178906,-2.0518815 Z M 7.8178906,-2.2667253 c 0.087891,-1.3867187 0.8886719,-1.5234375 1.1425782,-1.5234375 0.4980468,0 1.0351562,0.3710938 1.0449222,1.5234375 z m 6.3256834,-1.2597656 c -0.185547,0.039063 -0.361328,0.1660156 -0.361328,0.4199219 0,0.234375 0.175781,0.4199219 0.410156,0.4199219 0.234375,0 0.419922,-0.15625 0.419922,-0.4296875 0,-0.5566407 -0.625,-0.8984375 -1.416015,-0.8984375 -1.152344,0 -2.011719,0.9570312 -2.011719,2.0800781 0,1.15234374 0.9375,2.03124999 1.992187,2.03124999 1.25,0 1.533203,-1.08398438 1.533203,-1.16210939 0,-0.1074219 -0.09766,-0.1074219 -0.126953,-0.1074219 -0.09766,0 -0.09766,0.019531 -0.146484,0.1660157 -0.214844,0.62499996 -0.712891,0.84960934 -1.171875,0.84960934 -0.576172,0 -1.308594,-0.45898438 -1.308594,-1.78710934 0,-1.3964844 0.722656,-1.8261719 1.259766,-1.8261719 0.117187,0 0.595703,0.019531 0.927734,0.2441406 z m 5.170899,1.6113281 c 0,-1.171875 -0.927735,-2.0996093 -2.03125,-2.0996093 -1.142578,0 -2.041016,0.9570312 -2.041016,2.0996093 0,1.12304691 0.927734,2.01171879 2.03125,2.01171879 1.142578,0 2.041016,-0.90820313 2.041016,-2.01171879 z m -2.03125,1.75781254 c -0.449219,0 -0.830078,-0.22460938 -1.035157,-0.56640625 -0.234375,-0.38085939 -0.234375,-0.85937499 -0.234375,-1.26953129 0,-0.3320312 0,-0.8398437 0.22461,-1.2109375 0.263672,-0.4589843 0.71289,-0.5859375 1.035156,-0.5859375 0.507813,0 0.878906,0.2832032 1.054688,0.5859375 0.205078,0.3808594 0.214843,0.8398438 0.214843,1.2109375 0,0.3320313 0,0.8496094 -0.224609,1.25000004 -0.244141,0.41015625 -0.664063,0.5859375 -1.035156,0.5859375 z M 21.255391,-2.325319 c 0,-0.9472656 0.673828,-1.4160156 1.230468,-1.4160156 0.53711,0 0.654297,0.4394531 0.654297,0.9765625 v 2.07031246 c 0,0.41992188 -0.107422,0.41992188 -0.693359,0.41992188 v 0.2734375 c 0.419922,-0.01953125 0.585937,-0.02929688 1.015625,-0.02929688 0.439453,0 0.546875,0.0097656 1.025391,0.02929688 v -0.2734375 c -0.458985,0 -0.683594,0 -0.69336,-0.28320313 V -2.2764909 c 0,-0.7421875 0,-1.0058594 -0.24414,-1.3183594 -0.205079,-0.2539062 -0.546875,-0.3710937 -0.996094,-0.3710937 -0.839844,0 -1.220703,0.625 -1.347656,0.8691406 h -0.0098 V -3.965944 l -1.298828,0.097656 v 0.2832032 c 0.615234,0 0.693359,0.058594 0.693359,0.4980468 v 2.39257816 c 0,0.41992188 -0.09766,0.41992188 -0.693359,0.41992188 v 0.2734375 c 0.419922,-0.01953125 0.595703,-0.02929688 1.02539,-0.02929688 0.429688,0 0.546875,0.0097656 1.015625,0.02929688 v -0.2734375 c -0.585937,0 -0.683593,0 -0.683593,-0.41992188 z m 6.535644,-1.4550781 c 0,-0.15625 0,-0.234375 -0.107422,-0.234375 -0.04883,0 -0.06836,0 -0.185547,0.1074218 -0.0098,0.019531 -0.09766,0.097656 -0.146484,0.1367188 -0.283203,-0.1953125 -0.556641,-0.2441406 -0.859375,-0.2441406 -1.181641,0 -1.484375,0.6542968 -1.484375,1.1132812 0,0.2832031 0.126953,0.5175781 0.332031,0.7128906 0.302735,0.2734375 0.644532,0.3417969 1.103516,0.4199219 0.458984,0.087891 0.615234,0.1171875 0.810547,0.2734375 0.08789,0.068359 0.3125,0.234375 0.3125,0.57617189 0,0.79101562 -0.908203,0.79101562 -1.035156,0.79101562 -0.908204,0 -1.142579,-0.76171875 -1.25,-1.24023441 -0.0293,-0.097656 -0.03906,-0.1464843 -0.146485,-0.1464843 -0.126953,0 -0.126953,0.068359 -0.126953,0.234375 v 1.14257809 c 0,0.15625 0,0.234375 0.107422,0.234375 0.05859,0 0.06836,-0.0097656 0.224609,-0.17578125 0.03906,-0.05859375 0.136719,-0.17578125 0.185547,-0.21484375 0.371094,0.36132812 0.78125,0.390625 1.00586,0.390625 1.103515,0 1.49414,-0.64453125 1.49414,-1.24999999 0,-0.4003906 -0.185547,-0.6445313 -0.380859,-0.8496094 -0.302735,-0.2929687 -0.625,-0.3515625 -1.289063,-0.4785156 -0.234375,-0.048828 -0.888672,-0.1660156 -0.888672,-0.6738281 0,-0.2929688 0.205079,-0.6640625 1.025391,-0.6640625 0.966797,0 1.025391,0.7421875 1.044922,0.9667968 0.0098,0.1074219 0.0098,0.1660157 0.126953,0.1660157 0.126953,0 0.126953,-0.068359 0.126953,-0.234375 z m 3.459473,0.1953125 V -3.8682878 H 29.95168 v -1.6503906 h -0.244141 c -0.0098,0.7617188 -0.332031,1.6796875 -1.201172,1.7089844 v 0.2246094 h 0.78125 v 2.4707031 c 0,1.00585936 0.732422,1.21093749 1.201172,1.21093749 0.605469,0 0.917969,-0.57617188 0.917969,-1.21093749 V -1.622194 h -0.253906 v 0.4785156 c 0,0.66406251 -0.273438,0.98632814 -0.595704,0.98632814 -0.605468,0 -0.605468,-0.78125 -0.605468,-0.94726564 v -2.4804687 z m 2.265625,1.5332031 c 0,-0.3710938 0.107422,-1.6894531 1.123047,-1.6894531 v 0.00977 c -0.01953,0.00977 -0.15625,0.1171875 -0.15625,0.3320312 0,0.2441407 0.185547,0.390625 0.390625,0.390625 0.185547,0 0.390625,-0.1269531 0.390625,-0.4003906 0,-0.2832031 -0.263672,-0.5566406 -0.664063,-0.5566406 -0.546875,0 -0.917969,0.3808594 -1.123047,0.9375 h -0.0098 v -0.9375 l -1.269532,0.097656 v 0.2832032 c 0.605469,0 0.683594,0.058594 0.683594,0.4980468 v 2.39257816 c 0,0.41992188 -0.09766,0.41992188 -0.683594,0.41992188 v 0.2734375 c 0.46875,-0.01953125 0.585938,-0.02929688 1.044922,-0.02929688 0.361328,0 0.576172,0.0097656 1.142578,0.02929688 v -0.2734375 h -0.185546 c -0.654297,0 -0.683594,-0.10742188 -0.683594,-0.43945313 z m 5.568847,0.5566406 c 0,0.79101564 -0.449218,1.36718751 -1.09375,1.36718751 -0.751953,0 -0.791015,-0.38085937 -0.791015,-0.86914062 V -3.965944 l -1.357422,0.097656 v 0.2832032 c 0.693359,0 0.693359,0.029297 0.693359,0.8203125 v 1.3476562 c 0,0.58593751 0,0.95703126 0.410157,1.26953126 0.263671,0.18554688 0.625,0.24414063 0.986328,0.24414063 0.46875,0 0.908203,-0.20507813 1.162109,-0.7421875 h 0.0098 v 0.7421875 l 1.328125,-0.09765625 v -0.2734375 c -0.605469,0 -0.69336,-0.0683594 -0.69336,-0.5078125 V -3.965944 l -1.347656,0.097656 v 0.2832032 c 0.605469,0 0.693359,0.058594 0.693359,0.4980468 z m 4.826661,-2.03125 c -0.185547,0.039063 -0.361328,0.1660156 -0.361328,0.4199219 0,0.234375 0.175781,0.4199219 0.410156,0.4199219 0.234375,0 0.419922,-0.15625 0.419922,-0.4296875 0,-0.5566407 -0.625,-0.8984375 -1.416016,-0.8984375 -1.152344,0 -2.011719,0.9570312 -2.011719,2.0800781 0,1.15234374 0.9375,2.03124999 1.992188,2.03124999 1.25,0 1.533203,-1.08398438 1.533203,-1.16210939 0,-0.1074219 -0.09766,-0.1074219 -0.126953,-0.1074219 -0.09766,0 -0.09766,0.019531 -0.146485,0.1660157 -0.214843,0.62499996 -0.71289,0.84960934 -1.171875,0.84960934 -0.576171,0 -1.308593,-0.45898438 -1.308593,-1.78710934 0,-1.3964844 0.722656,-1.8261719 1.259765,-1.8261719 0.117188,0 0.595703,0.019531 0.927735,0.2441406 z m 3.742675,-0.058594 v -0.2832032 h -1.298828 v -1.6503906 h -0.24414 c -0.0098,0.7617188 -0.332032,1.6796875 -1.201172,1.7089844 v 0.2246094 h 0.78125 v 2.4707031 c 0,1.00585936 0.732422,1.21093749 1.201172,1.21093749 0.605468,0 0.917968,-0.57617188 0.917968,-1.21093749 V -1.622194 H 47.55666 v 0.4785156 c 0,0.66406251 -0.273437,0.98632814 -0.595703,0.98632814 -0.605469,0 -0.605469,-0.78125 -0.605469,-0.94726564 v -2.4804687 z m 2.324219,-0.3808594 -1.289062,0.097656 v 0.2832032 c 0.566406,0 0.654297,0.048828 0.654297,0.4882812 v 2.40234376 c 0,0.41992188 -0.09766,0.41992188 -0.69336,0.41992188 v 0.2734375 c 0.400391,-0.01953125 0.595703,-0.02929688 0.986328,-0.02929688 0.146485,0 0.517578,0 0.957032,0.02929688 v -0.2734375 c -0.576172,0 -0.615235,-0.0488281 -0.615235,-0.40039063 z m 0.0293,-1.5527344 c 0,-0.2734375 -0.214844,-0.4882812 -0.488281,-0.4882812 -0.273438,0 -0.478516,0.2246093 -0.478516,0.4882812 0,0.2539063 0.205078,0.4785156 0.478516,0.4785156 0.273437,0 0.488281,-0.2148437 0.488281,-0.4785156 z m 5.217285,3.6035156 c 0,-1.171875 -0.927734,-2.0996093 -2.03125,-2.0996093 -1.142578,0 -2.041015,0.9570312 -2.041015,2.0996093 0,1.12304691 0.927734,2.01171879 2.03125,2.01171879 1.142578,0 2.041015,-0.90820313 2.041015,-2.01171879 z m -2.03125,1.75781254 c -0.449219,0 -0.830078,-0.22460938 -1.035156,-0.56640625 -0.234375,-0.38085939 -0.234375,-0.85937499 -0.234375,-1.26953129 0,-0.3320312 0,-0.8398437 0.224609,-1.2109375 0.263672,-0.4589843 0.712891,-0.5859375 1.035157,-0.5859375 0.507812,0 0.878906,0.2832032 1.054687,0.5859375 0.205078,0.3808594 0.214844,0.8398438 0.214844,1.2109375 0,0.3320313 0,0.8496094 -0.22461,1.25000004 -0.24414,0.41015625 -0.664062,0.5859375 -1.035156,0.5859375 z M 57.166035,-2.325319 c 0,-0.9472656 0.673828,-1.4160156 1.230469,-1.4160156 0.537109,0 0.654297,0.4394531 0.654297,0.9765625 v 2.07031246 c 0,0.41992188 -0.107422,0.41992188 -0.69336,0.41992188 v 0.2734375 c 0.419922,-0.01953125 0.585938,-0.02929688 1.015625,-0.02929688 0.439454,0 0.546875,0.0097656 1.025391,0.02929688 v -0.2734375 c -0.458984,0 -0.683594,0 -0.693359,-0.28320313 V -2.2764909 c 0,-0.7421875 0,-1.0058594 -0.244141,-1.3183594 -0.205078,-0.2539062 -0.546875,-0.3710937 -0.996094,-0.3710937 -0.839843,0 -1.220703,0.625 -1.347656,0.8691406 h -0.0098 V -3.965944 l -1.298828,0.097656 v 0.2832032 c 0.615235,0 0.69336,0.058594 0.69336,0.4980468 v 2.39257816 c 0,0.41992188 -0.09766,0.41992188 -0.69336,0.41992188 v 0.2734375 c 0.419922,-0.01953125 0.595703,-0.02929688 1.025391,-0.02929688 0.429687,0 0.546875,0.0097656 1.015625,0.02929688 v -0.2734375 c -0.585938,0 -0.683594,0 -0.683594,-0.41992188 z m 0,0"
       style="fill:#000000;fill-opacity:1;fill-rule:nonzero;stroke:none"
       aria-label="Reconstruction"
       transform="matrix(1.6,0,0,1.6,366.632,78.130667)" />
    <path
       id="path26"
       d="M 8.21664,0 H 33.49065"
       style="fill:none;stroke:#000000;stroke-width:0.79701;stroke-linecap:butt;stroke-linejoin:miter;stroke-miterlimit:10;stroke-dasharray:none;stroke-opacity:1"
       transform="matrix(1.3333333,0,0,-1.3333333,23.128,32.28)" />
    <path
       id="path27"
       d="M 4.53381,0 C 3.97704,0.13808 1.52963,0.92049 0,1.77196 V -1.77196 C 1.52963,-0.92049 3.97704,-0.13808 4.53381,0 Z"
       style="fill:#000000;fill-opacity:1;fill-rule:nonzero;stroke:#000000;stroke-width:0.79701;stroke-linecap:butt;stroke-linejoin:miter;stroke-miterlimit:10;stroke-dasharray:none;stroke-opacity:1"
       transform="matrix(1.3333333,0,0,-1.3333333,67.7822,32.28)" />
    <path
       id="path28"
       d="m 107.69975,0 h 25.28743"
       style="fill:none;stroke:#000000;stroke-width:0.79701;stroke-linecap:butt;stroke-linejoin:miter;stroke-miterlimit:10;stroke-dasharray:none;stroke-opacity:1"
       transform="matrix(1.3333333,0,0,-1.3333333,23.128,32.28)" />
    <path
       id="path29"
       d="M 4.53381,0 C 3.97704,0.13808 1.52963,0.92049 0,1.77196 V -1.77196 C 1.52963,-0.92049 3.97704,-0.13808 4.53381,0 Z"
       style="fill:#000000;fill-opacity:1;fill-rule:nonzero;stroke:#000000;stroke-width:0.79701;stroke-linecap:butt;stroke-linejoin:miter;stroke-miterlimit:10;stroke-dasharray:none;stroke-opacity:1"
       transform="matrix(1.3333333,0,0,-1.3333333,200.44424,32.28)" />
    <path
       id="path30"
       d="m 154.77943,0 h 25.30225"
       style="fill:none;stroke:#000000;stroke-width:0.79701;stroke-linecap:butt;stroke-linejoin:miter;stroke-miterlimit:10;stroke-dasharray:none;stroke-opacity:1"
       transform="matrix(1.3333333,0,0,-1.3333333,23.128,32.28)" />
    <path
       id="path31"
       d="M 4.53381,0 C 3.97704,0.13808 1.52963,0.92049 0,1.77196 V -1.77196 C 1.52963,-0.92049 3.97704,-0.13808 4.53381,0 Z"
       style="fill:#000000;fill-opacity:1;fill-rule:nonzero;stroke:#000000;stroke-width:0.79701;stroke-linecap:butt;stroke-linejoin:miter;stroke-miterlimit:10;stroke-dasharray:none;stroke-opacity:1"
       transform="matrix(1.3333333,0,0,-1.3333333,263.23691,32.28)" />
    <path
       id="path32"
       d="m 254.2908,0 25.31569,6e-5"
       style="fill:none;stroke:#000000;stroke-width:0.79701;stroke-linecap:butt;stroke-linejoin:miter;stroke-miterlimit:10;stroke-dasharray:none;stroke-opacity:1"
       transform="matrix(1.3333333,0,0,-1.3333333,23.128,32.28)" />
    <path
       id="path33"
       d="M 4.53381,0 C 3.97704,0.13808 1.52963,0.92049 0,1.77196 V -1.77196 C 1.52963,-0.92049 3.97704,-0.13808 4.53381,0 Z"
       style="fill:#000000;fill-opacity:1;fill-rule:nonzero;stroke:#000000;stroke-width:0.79701;stroke-linecap:butt;stroke-linejoin:miter;stroke-miterlimit:10;stroke-dasharray:none;stroke-opacity:1"
       transform="matrix(1.3333333,0,0,-1.3333333,395.93665,32.27992)" />
  </g>
</svg>
